<?xml version="1.0" encoding="UTF-8" standalone="no"?>
<svg
   xmlns:serif="http://www.serif.com/"
   xmlns:dc="http://purl.org/dc/elements/1.1/"
   xmlns:cc="http://creativecommons.org/ns#"
   xmlns:rdf="http://www.w3.org/1999/02/22-rdf-syntax-ns#"
   xmlns:svg="http://www.w3.org/2000/svg"
   xmlns="http://www.w3.org/2000/svg"
   xmlns:sodipodi="http://sodipodi.sourceforge.net/DTD/sodipodi-0.dtd"
   xmlns:inkscape="http://www.inkscape.org/namespaces/inkscape"
   id="svg97"
   clip-rule="evenodd"
   fill-rule="evenodd"
   stroke-linecap="round"
   stroke-linejoin="round"
   stroke-miterlimit="1.5"
   version="1.1"
   viewBox="0 0 380 380"
   xml:space="preserve"
   sodipodi:docname="logoTile.svg"
   inkscape:version="0.92.1 r15371"><metadata
     id="metadata74"><rdf:RDF><cc:Work
         rdf:about=""><dc:format>image/svg+xml</dc:format><dc:type
           rdf:resource="http://purl.org/dc/dcmitype/StillImage" /></cc:Work></rdf:RDF></metadata><defs
     id="defs72" /><sodipodi:namedview
     pagecolor="#ffffff"
     bordercolor="#666666"
     borderopacity="1"
     objecttolerance="10"
     gridtolerance="10"
     guidetolerance="10"
     inkscape:pageopacity="0"
     inkscape:pageshadow="2"
     inkscape:window-width="1920"
     inkscape:window-height="1057"
     id="namedview70"
     showgrid="false"
     inkscape:zoom="1.2421053"
     inkscape:cx="275.29565"
     inkscape:cy="198.09685"
     inkscape:window-x="-8"
     inkscape:window-y="-8"
     inkscape:window-maximized="1"
     inkscape:current-layer="svg97" /><rect
     id="logoTile"
     width="380"
     height="380"
     fill="none" /><clipPath
     id="_clip1"><style
       id="style3">#sharkOutline02,#sharkOutline03,#sharkOutline04,#sharkEye02,#sharkEye03,#sharkEye04,#sharkEye05,#sharkWater03,#sharkWater04,#fishEye02,#fishEye03{display:none};</style><rect
       id="rect4"
       width="380"
       height="380" /></clipPath><g
     id="g95"
     clip-path="url(#_clip1)"><g
       id="Logo-tile"
       serif:id="Logo tile"><rect
         id="rect7"
         x="-18.948"
         y="-17.354"
         width="420"
         height="416"
         fill="#fff" /><rect
         id="Logo"
         x="60.482"
         y="39.772"
         width="259.01"
         height="259.01"
         fill="#fff" /><clipPath
         id="_clip2"><rect
           id="rect10"
           x="60.482"
           y="39.772"
           width="259.01"
           height="259.01" /></clipPath><g
         id="g65"
         clip-path="url(#_clip2)"><path
           id="vWindow"
           d="m70.066 20.861h249.42l-5.595 18.911-243.83 235.94v-254.85z"
           fill="none" /><clipPath
           id="_clip3"><path
             id="path14"
             d="m70.066 20.861h249.42l-5.595 18.911-243.83 235.94v-254.85z" /></clipPath><g
           id="g36"
           clip-path="url(#_clip3)"><g
             id="targetState"><g
               id="g17"
               fill="#ec7979"><path
                 id="fishEye01"
                 d="m224.44 86.254a11.731 11.731 0 0 1 -11.731 11.731 11.731 11.731 0 0 1 -11.731 -11.731 11.731 11.731 0 0 1 11.731 -11.731 11.731 11.731 0 0 1 11.731 11.731z" /><path
                 id="fishEye02"
                 d="m210.79 83.869c5.046-4.056 10.193-6.043 11.487-4.434 1.293 1.61-1.753 6.21-6.799 10.266-5.046 4.057-10.194 6.043-11.487 4.434-1.294-1.61 1.752-6.209 6.799-10.266z" /><path
                 id="fishEye03"
                 d="m210.71 74.694c0.65-0.112 1.318-0.171 2-0.171s1.35 0.059 2 0.171v9.56h9.561c0.111 0.65 0.17 1.318 0.17 2s-0.059 1.35-0.17 2h-9.561v9.561c-0.65 0.112-1.318 0.17-2 0.17s-1.35-0.058-2-0.17v-9.561h-9.561c-0.112-0.65-0.17-1.318-0.17-2 0-0.681 0.058-1.35 0.17-2h9.561v-9.56z" /></g><g
               id="sharkWaterGroup"><path
                 id="sharkWater01"
                 fill="#8fd6ef"
                 d="m 69.802,113.08 c 40.425,-32.328 80.344,-46.655 122.06,-48.544 -30.668,48.924 -6.5399,58.051 35.005,46.638 l -158.55,164.54 z"
                 inkscape:connector-curvature="0" /><path
                 id="sharkWater03"
                 d="m 69.804,116.1 c 42.438,-32.529 116,-22.803 160.48,-2.784 -61.778,67.592 -161.96,162.4 -161.96,162.4 l 1.484,-159.62 z"
                 inkscape:connector-curvature="0" /><path
                 id="sharkWater04"
                 d="m 70.066,79.28 c 45.993,24.856 119.26,36.581 170.09,25.114 -61.777,67.592 -171.84,171.32 -171.84,171.32 l 1.746,-196.44 z"
                 inkscape:connector-curvature="0" /><path
                 id="sharkWaterBkg"
                 fill="#8fd6ef"
                 d="m 69.804,116.1 c 42.438,-32.529 116.4,10.205 160.48,-2.784 -61.778,67.592 -161.96,162.4 -161.96,162.4 l 1.484,-159.62 z"
                 inkscape:connector-curvature="0" /></g><g
               id="g33"><path
                 id="sharkOutline01" fill="#486b78" 
                 d="m 72.168,95.236 c 38.964,-29.428 143.21,-80.931 146.95,-40.667 -29.355,11.091 -42.195,45.677 -35.29,55.731 5.277,7.683 35.327,2.612 51.856,-11.143 l -31.251,34.894 c -34.359,17.424 -49.938,9.595 -52.535,-6.9274 -2.5972,-16.522 7.787,-41.738 25.354,-59.085 -54.878,15.73 -81.14,37.385 -108.93,61.151 l 3.848,-33.954 z"
                 inkscape:connector-curvature="0" /><path
                 id="sharkOutline02"
                 d="m 72.168,95.236 c 19.482,-14.714 59.655,-27.702 94.42,-36.552 25.04,-6.3743 57.534,-13.697 62.741,5.2804 -15.348,7.0998 -36.723,23.907 -36.462,38.055 18.598,5.8717 33.443,-16.557 41.328,-28.826 9.9163,16.172 0.28258,32.225 -3.9115,40.123 -5.16,9.933 -7.9875,9.2539 -17.56,17.951 -45.521,41.355 -72.935,-1.6829 -46.705,-47.244 -31.838,3.417 -69.901,21.401 -97.695,45.167 l 3.848,-33.954 z"
                 inkscape:connector-curvature="0" /><path
                 id="sharkOutline03"
                 d="m 72.168,95.236 c 68.427,-32.378 150.97,-5.569 165.22,15.729 l -12.971,4.289 c -19.399,-10.762 -89.28,-31.747 -156.1,13.936 l 3.848,-33.954 z"
                 inkscape:connector-curvature="0" /><path
                 id="sharkOutline04"
                 d="m 70.066,73.843 c 54.207,22.468 148.25,29.028 190.17,3.351 l -24.143,32.703 c -52.661,23.77 -118.77,2.307 -166.03,-24.63 V 73.843 Z"
                 inkscape:connector-curvature="0" /><path
                 id="sharkEye01" fill="#486b78" 
                 d="M 128.64,127.8 A 11.731,11.731 0 0 1 116.909,139.531 11.731,11.731 0 0 1 105.178,127.8 11.731,11.731 0 0 1 116.909,116.069 11.731,11.731 0 0 1 128.64,127.8 Z"
                 inkscape:connector-curvature="0" /><path
                 id="sharkEye02"
                 d="m 112.4,116.96 c 1.388,-0.578 2.91,-0.898 4.505,-0.898 6.475,0 11.731,5.257 11.731,11.731 0,6.474 -5.256,11.731 -11.731,11.731 -6.474,0 -11.73,-5.257 -11.73,-11.731 0,-0.756 0.071,-1.495 0.208,-2.211 0.756,3.01 3.483,5.242 6.727,5.242 3.827,0 6.935,-3.107 6.935,-6.935 0,-3.73 -2.952,-6.777 -6.645,-6.929 z"
                 inkscape:connector-curvature="0" /><path
                 id="sharkEye03"
                 d="m 128.51,129.54 c -0.845,5.647 -5.72,9.983 -11.601,9.983 -6.474,0 -11.73,-5.257 -11.73,-11.731 0,-6.474 5.256,-11.731 11.73,-11.731 2.459,0 4.742,0.758 6.628,2.053 -0.101,-0.004 -0.202,-0.006 -0.304,-0.006 -3.828,0 -6.935,3.107 -6.935,6.935 0,3.827 3.107,6.935 6.935,6.935 2.112,0 4.005,-0.946 5.277,-2.438 z"
                 inkscape:connector-curvature="0" /><path
                 id="sharkEye04"
                 d="m 127.72,130.33 c -3.836,6.457 -8.088,9.504 -12.769,9.037 -3.751,-0.63 -6.9,-3.041 -8.547,-6.334 -3.829,-10.389 13.806,-16.374 17.118,-14.919 l 0.009,0.006 c -0.101,-0.004 -0.202,-0.006 -0.304,-0.006 -3.828,0 -6.935,3.107 -6.935,6.935 0,3.827 3.107,6.935 6.935,6.935 1.714,0 3.283,-0.623 4.493,-1.654 z"
                 inkscape:connector-curvature="0" /><path
                 id="sharkEye05"
                 d="m 127.72,123.25 -22.547,4.544 c 2.388,2.078 3.42,4.708 3.063,7.902 z"
                 inkscape:connector-curvature="0" /></g></g></g><path
           id="path35"
           d="m70.066 20.861h249.42l-5.595 18.911-243.83 235.94v-254.85z"
           fill="none"
           stroke="#ef90d2"
           stroke-width="2.21px" /><g
           fill="#ec7979"
           id="g50"><rect
             id="rect37"
             x="60.482"
             y="20.861"
             width="19.168"
             height="255.2" /><path
             id="path39"
             d="m338.4 20.861l-30.318 3.19-251.52 251.52-0.767 27.895 282.6-282.6z" /><g
             id="ance"
             fill-rule="nonzero"><path
               id="path41"
               d="m155.53 297.77h-18.255c-0.449-2.082-0.673-4.355-0.673-6.822-3.459 5.221-8.695 7.831-15.709 7.831-5.765 0-10.08-1.473-12.946-4.42-2.867-2.946-4.3-6.325-4.3-10.136 0-5.156 2.346-9.328 7.038-12.514 4.692-3.187 13.01-5.101 24.956-5.741v-1.105c0-2.146-0.488-3.571-1.465-4.275-0.977-0.705-2.41-1.057-4.299-1.057-4.42 0-6.886 1.777-7.399 5.332l-17.486-1.633c2.498-10.217 11.001-15.325 25.509-15.325 3.939 0 7.558 0.392 10.857 1.177s5.909 2.01 7.83 3.675c1.922 1.665 3.211 3.427 3.868 5.284 0.656 1.858 0.984 5.429 0.984 10.713v19.504c0 3.715 0.497 6.886 1.49 9.512zm-19.889-22.867c-8.166 0.865-12.25 3.475-12.25 7.831 0 2.946 1.618 4.419 4.852 4.419 2.05 0 3.795-0.608 5.237-1.825 1.441-1.217 2.161-3.907 2.161-8.071v-2.354z" /><path
               id="path43"
               d="m209.23 297.77h-19.168v-30.745c0-2.53-0.392-4.148-1.177-4.852-0.784-0.705-1.769-1.057-2.954-1.057-3.491 0-5.236 2.434-5.236 7.302v29.352h-19.168v-48.856h17.775v6.918c2.626-5.285 7.318-7.927 14.075-7.927 3.555 0 6.558 0.681 9.008 2.042s4.203 3.122 5.26 5.284 1.585 5.917 1.585 11.265v31.274z" /><path
               id="path45"
               d="m246.3 278.08l16.333 1.393c-0.768 5.701-3.162 10.345-7.181 13.931-4.02 3.587-9.36 5.381-16.022 5.381-7.462 0-13.523-2.346-18.183-7.038-4.659-4.692-6.989-10.705-6.989-18.039 0-7.494 2.314-13.667 6.941-18.519 4.628-4.852 10.641-7.278 18.039-7.278 6.566 0 11.914 1.834 16.045 5.501 4.132 3.667 6.502 8.302 7.11 13.907l-16.766 1.393c-0.704-5.156-2.658-7.734-5.86-7.734-2.05 0-3.547 0.937-4.492 2.81-0.945 1.874-1.417 5.132-1.417 9.776 0 4.003 0.472 6.966 1.417 8.887 0.945 1.922 2.586 2.883 4.924 2.883 3.427 0 5.461-2.418 6.101-7.254z" /><path
               id="path47"
               d="m301.57 280.24l17.87 1.201c-1.057 4.804-3.755 8.895-8.094 12.274-4.34 3.379-10.209 5.068-17.607 5.068-8.231 0-14.796-2.378-19.696-7.134s-7.35-10.657-7.35-17.702c0-7.302 2.418-13.468 7.254-18.496s11.289-7.542 19.36-7.542c7.814 0 14.131 2.37 18.951 7.11s7.23 11.193 7.23 19.36c0 0.672-0.016 1.601-0.048 2.786h-32.715c0.064 3.075 0.609 5.357 1.634 6.846 1.024 1.489 2.978 2.234 5.86 2.234 4.164 0 6.614-2.002 7.351-6.005zm-1.298-12.683c-0.032-3.298-0.694-5.516-1.986-6.653-1.293-1.137-2.897-1.706-4.811-1.706-4.532 0-6.798 2.787-6.798 8.359h13.595z" /></g><g
             id="Beckett"
             fill-rule="nonzero"><path
               id="path50"
               d="m161.21 234.62v-31.571h16.028c3.331 0 5.759 0.841 7.286 2.521 1.526 1.681 2.29 3.601 2.29 5.759 0 1.573-0.444 2.996-1.33 4.268-0.887 1.272-2.209 2.147-3.967 2.625 4.086 0.987 6.129 3.438 6.129 7.355 0 2.343-0.721 4.436-2.162 6.279-1.442 1.843-4.522 2.764-9.24 2.764h-15.034zm8.928-19.474h4.487c1.125 0 1.919-0.286 2.382-0.856 0.463-0.571 0.694-1.18 0.694-1.827 0-1.758-1.079-2.637-3.238-2.637h-4.325v5.32zm0 12.443h4.718c1.172 0 2.032-0.289 2.579-0.867 0.547-0.579 0.821-1.23 0.821-1.955s-0.266-1.391-0.798-2c-0.532-0.61-1.507-0.914-2.926-0.914h-4.394v5.736z" /><path
               id="path52"
               d="m204.97 226.18l8.604 0.578c-0.509 2.313-1.808 4.283-3.897 5.91-2.089 1.626-4.915 2.44-8.477 2.44-3.962 0-7.123-1.145-9.482-3.435s-3.539-5.131-3.539-8.523c0-3.515 1.164-6.484 3.492-8.904 2.329-2.421 5.436-3.632 9.321-3.632 3.762 0 6.804 1.141 9.124 3.423 2.321 2.283 3.481 5.389 3.481 9.321 0 0.324-7e-3 0.771-0.023 1.342h-15.75c0.03 1.48 0.293 2.579 0.786 3.296s1.434 1.075 2.822 1.075c2.004 0 3.184-0.964 3.538-2.891zm-0.624-6.106c-0.016-1.588-0.334-2.656-0.957-3.203-0.622-0.548-1.394-0.821-2.316-0.821-2.182 0-3.273 1.341-3.273 4.024h6.546z" /><path
               id="path54"
               d="m229.49 225.14l7.863 0.671c-0.37 2.745-1.522 4.98-3.458 6.707-1.935 1.727-4.506 2.591-7.713 2.591-3.593 0-6.511-1.13-8.754-3.389-2.244-2.259-3.365-5.154-3.365-8.684 0-3.609 1.114-6.581 3.342-8.917s5.123-3.504 8.685-3.504c3.161 0 5.735 0.883 7.725 2.649 1.989 1.765 3.13 3.997 3.423 6.695l-8.072 0.671c-0.34-2.482-1.28-3.724-2.822-3.724-0.987 0-1.708 0.451-2.163 1.353-0.454 0.902-0.682 2.471-0.682 4.707 0 1.927 0.228 3.354 0.682 4.279 0.455 0.925 1.246 1.388 2.371 1.388 1.65 0 2.629-1.165 2.938-3.493z" /><path
               id="path56"
               d="m263.07 211.1l-7.108 8.08 7.918 15.442h-9.54l-4.413-9.419-2.515 2.943v6.476h-8.65v-31.571h8.65v12.744c0 0.354-0.023 1.773-0.069 4.255 0.555-0.787 1.118-1.503 1.689-2.151l5.904-6.799h8.134z" /><path
               id="path58"
               d="m278.92 226.18l8.604 0.578c-0.509 2.313-1.808 4.283-3.897 5.91-2.09 1.626-4.915 2.44-8.477 2.44-3.963 0-7.124-1.145-9.483-3.435s-3.538-5.131-3.538-8.523c0-3.515 1.164-6.484 3.492-8.904 2.328-2.421 5.435-3.632 9.321-3.632 3.762 0 6.804 1.141 9.124 3.423 2.321 2.283 3.481 5.389 3.481 9.321 0 0.324-8e-3 0.771-0.023 1.342h-15.751c0.031 1.48 0.293 2.579 0.787 3.296 0.493 0.717 1.434 1.075 2.821 1.075 2.005 0 3.184-0.964 3.539-2.891zm-0.624-6.106c-0.016-1.588-0.335-2.656-0.957-3.203-0.622-0.548-1.394-0.821-2.316-0.821-2.182 0-3.273 1.341-3.273 4.024h6.546z" /><path
               id="path60"
               d="m303.78 211.1v5.99h-4.695v8.674c0 1.187 0.224 1.892 0.671 2.116s0.909 0.335 1.387 0.335c0.741 0 1.619-0.131 2.637-0.393v6.569c-1.819 0.354-3.608 0.532-5.366 0.532-2.837 0-4.922-0.609-6.256-1.828-1.334-1.218-2.001-3.16-2.001-5.828l0.023-2.752v-7.425h-3.515v-5.99h3.515l0.139-7.655 8.766-0.139v7.794h4.695z" /><path
               id="path62"
               d="m319.49 211.1v5.99h-4.695v8.674c0 1.187 0.224 1.892 0.671 2.116s0.91 0.335 1.388 0.335c0.74 0 1.619-0.131 2.636-0.393v6.569c-1.819 0.354-3.608 0.532-5.366 0.532-2.837 0-4.922-0.609-6.256-1.828-1.334-1.218-2.001-3.16-2.001-5.828l0.024-2.752v-7.425h-3.516v-5.99h3.516l0.138-7.655 8.766-0.139v7.794h4.695z" /></g></g></g><g
         id="Illustrations"
         fill="#ec7979"
         fill-rule="nonzero"><rect
           id="rect67"
           x="60.482"
           y="307.76"
           width="10.207"
           height="33.251" /><rect
           id="rect69"
           x="74.15"
           y="307.76"
           width="9.573"
           height="33.251" /><rect
           id="rect71"
           x="86.843"
           y="307.76"
           width="9.573"
           height="33.251" /><path
           id="path73"
           d="m123.63 316.24v24.774h-8.989v-4.068c-1.315 3.053-3.881 4.579-7.698 4.579-2.355 0-4.177-0.653-5.469-1.961-1.291-1.307-1.936-3.179-1.936-5.614v-17.71h9.719v15.59c0 0.975 0.134 1.661 0.402 2.059 0.268 0.397 0.792 0.596 1.572 0.596 0.828 0 1.502-0.296 2.021-0.889 0.52-0.592 0.78-1.425 0.78-2.497v-14.859h9.598z" /><path
           id="path75"
           d="m124.56 333.99l7.674-1.047c0.438 1.786 2.176 2.679 5.213 2.679 2.517 0 3.776-0.487 3.776-1.461 0-0.422-0.244-0.751-0.731-0.987-0.487-0.235-1.64-0.475-3.459-0.719-5.035-0.698-8.177-1.791-9.428-3.276-1.25-1.486-1.875-3.139-1.875-4.957 0-2.534 1.055-4.584 3.166-6.151 2.112-1.567 4.881-2.351 8.307-2.351 6.009 0 9.842 2.168 11.498 6.504l-7.357 1.389c-0.682-1.462-2.119-2.192-4.311-2.192-1.04 0-1.815 0.142-2.327 0.426-0.511 0.284-0.767 0.564-0.767 0.84 0 0.812 0.78 1.306 2.339 1.483 4.061 0.449 6.814 0.909 8.259 1.38 1.445 0.472 2.679 1.333 3.702 2.585 1.022 1.251 1.534 2.762 1.534 4.534 0 2.714-1.133 4.867-3.398 6.459-2.266 1.593-5.388 2.389-9.367 2.389-6.707 0-10.856-2.509-12.448-7.527z" /><path
           id="path77"
           d="m166.72 316.24v6.309h-4.945v9.135c0 1.251 0.236 1.993 0.707 2.229 0.471 0.235 0.958 0.353 1.461 0.353 0.78 0 1.706-0.138 2.777-0.414v6.918c-1.916 0.374-3.8 0.561-5.651 0.561-2.988 0-5.185-0.642-6.589-1.925-1.405-1.283-2.108-3.329-2.108-6.139l0.025-2.898v-7.82h-3.703v-6.309h3.703l0.146-8.063 9.232-0.146v8.209h4.945z" /><path
           id="path79"
           d="m177.28 341.01h-9.305v-24.774h8.087v5.115c0.926-3.718 3.078-5.578 6.456-5.578 0.341 0 0.812 0.033 1.412 0.097v8.648c-0.682-0.162-1.291-0.243-1.827-0.243-3.215 0-4.823 1.794-4.823 5.383v11.352z" /><path
           id="path81"
           d="m209.97 341.01h-9.257c-0.227-1.056-0.341-2.209-0.341-3.459-1.754 2.647-4.409 3.97-7.965 3.97-2.924 0-5.112-0.747-6.565-2.241-1.454-1.494-2.181-3.207-2.181-5.14 0-2.614 1.19-4.729 3.569-6.345s6.598-2.587 12.655-2.911v-0.561c0-1.088-0.248-1.81-0.743-2.168-0.495-0.357-1.222-0.536-2.18-0.536-2.241 0-3.492 0.902-3.752 2.704l-8.867-0.828c1.267-5.18 5.579-7.771 12.936-7.771 1.997 0 3.832 0.199 5.505 0.597s2.996 1.019 3.971 1.864c0.974 0.844 1.628 1.737 1.961 2.679 0.332 0.942 0.499 2.753 0.499 5.433v9.89c0 1.883 0.252 3.491 0.755 4.823zm-10.085-11.595c-4.141 0.438-6.212 1.762-6.212 3.97 0 1.494 0.82 2.241 2.461 2.241 1.039 0 1.924-0.308 2.655-0.925s1.096-1.982 1.096-4.093v-1.193z" /><path
           id="path83"
           d="m227.56 316.24v6.309h-4.945v9.135c0 1.251 0.235 1.993 0.706 2.229 0.471 0.235 0.958 0.353 1.462 0.353 0.779 0 1.705-0.138 2.777-0.414v6.918c-1.916 0.374-3.8 0.561-5.652 0.561-2.988 0-5.184-0.642-6.589-1.925s-2.107-3.329-2.107-6.139l0.024-2.898v-7.82h-3.702v-6.309h3.702l0.146-8.063 9.233-0.146v8.209h4.945z" /><path
           id="path85"
           d="m238.52 306.71v7.698h-9.72v-7.698h9.72zm0 9.525v24.774h-9.72v-24.774h9.72z" /><path
           id="path87"
           d="m253.75 341.52c-4.109 0-7.373-1.278-9.793-3.836s-3.63-5.558-3.63-9.001c0-3.703 1.263-6.789 3.788-9.257 2.526-2.468 5.81-3.703 9.854-3.703 4.076 0 7.352 1.218 9.829 3.654s3.715 5.489 3.715 9.16c0 3.702-1.255 6.792-3.764 9.269-2.509 2.476-5.842 3.714-9.999 3.714zm0.146-5.895c1.51 0 2.432-0.783 2.765-2.35 0.333-1.568 0.499-3.204 0.499-4.909 0-2.322-0.235-3.995-0.706-5.018s-1.316-1.535-2.534-1.535c-1.12 0-1.941 0.528-2.46 1.584-0.52 1.055-0.78 2.793-0.78 5.213 0 2.842 0.268 4.721 0.804 5.639s1.34 1.376 2.412 1.376z" /><path
           id="path89"
           d="m293.48 341.01h-9.72v-15.59c0-1.283-0.199-2.104-0.597-2.461s-0.897-0.536-1.498-0.536c-1.77 0-2.655 1.235-2.655 3.703v14.884h-9.72v-24.774h9.013v3.508c1.332-2.68 3.711-4.02 7.138-4.02 1.802 0 3.325 0.345 4.567 1.036 1.243 0.69 2.132 1.583 2.668 2.679s0.804 3.001 0.804 5.713v15.858z" /><path
           id="path91"
           d="m294.41 333.99l7.674-1.047c0.438 1.786 2.176 2.679 5.213 2.679 2.517 0 3.775-0.487 3.775-1.461 0-0.422-0.243-0.751-0.73-0.987-0.488-0.235-1.641-0.475-3.46-0.719-5.034-0.698-8.176-1.791-9.427-3.276-1.25-1.486-1.876-3.139-1.876-4.957 0-2.534 1.056-4.584 3.167-6.151s4.88-2.351 8.307-2.351c6.009 0 9.841 2.168 11.498 6.504l-7.357 1.389c-0.682-1.462-2.119-2.192-4.312-2.192-1.039 0-1.814 0.142-2.326 0.426-0.511 0.284-0.767 0.564-0.767 0.84 0 0.812 0.779 1.306 2.339 1.483 4.06 0.449 6.813 0.909 8.258 1.38 1.446 0.472 2.68 1.333 3.702 2.585 1.023 1.251 1.535 2.762 1.535 4.534 0 2.714-1.133 4.867-3.399 6.459-2.265 1.593-5.387 2.389-9.366 2.389-6.707 0-10.856-2.509-12.448-7.527z" /></g></g></g></svg>