<?xml version="1.0" encoding="UTF-8" standalone="no"?><!DOCTYPE svg PUBLIC "-//W3C//DTD SVG 1.1//EN" "http://www.w3.org/Graphics/SVG/1.1/DTD/svg11.dtd"><svg width="710px" height="330px" version="1.1" xmlns="http://www.w3.org/2000/svg" xmlns:xlink="http://www.w3.org/1999/xlink" xml:space="preserve" xmlns:serif="http://www.serif.com/" style="fill-rule:evenodd;clip-rule:evenodd;stroke-linejoin:round;stroke-miterlimit:1.41421;"><g transform="matrix(1,0,0,1,-7734,-7355)"><rect id="p2Tile3" x="7734" y="7355" width="710" height="330" style="fill:none;"/><clipPath id="_clip1"><rect id="p2Tile31" serif:id="p2Tile3" x="7734" y="7355" width="710" height="330"/></clipPath><g clip-path="url(#_clip1)"><g transform="matrix(1.88505,0,0,0.876152,1882.46,3397.7)"><rect x="3104.18" y="4516.68" width="376.647" height="376.647" style="fill:#fff;"/></g><g transform="matrix(1,0,0,1,7593.96,7103.09)"><g><path d="M312.854,388.28l5.318,-0.957c0.447,1.504 1.595,2.256 3.446,2.256c1.44,0 2.16,-0.383 2.16,-1.148c0,-0.401 -0.167,-0.714 -0.499,-0.937c-0.333,-0.223 -0.928,-0.421 -1.785,-0.594c-3.272,-0.627 -5.373,-1.447 -6.303,-2.459c-0.929,-1.012 -1.394,-2.202 -1.394,-3.569c0,-1.76 0.668,-3.223 2.003,-4.39c1.335,-1.167 3.256,-1.751 5.763,-1.751c3.801,0 6.312,1.527 7.533,4.58l-4.744,1.436c-0.492,-1.249 -1.49,-1.873 -2.994,-1.873c-1.249,0 -1.873,0.387 -1.873,1.162c0,0.346 0.141,0.615 0.424,0.807c0.282,0.191 0.829,0.373 1.64,0.546c2.234,0.472 3.82,0.89 4.759,1.253c0.939,0.363 1.723,0.985 2.351,1.865c0.629,0.88 0.943,1.918 0.943,3.113c0,1.888 -0.766,3.418 -2.297,4.59c-1.531,1.172 -3.541,1.758 -6.029,1.758c-4.548,0 -7.356,-1.896 -8.422,-5.688Z" style="fill-rule:nonzero;"/><path d="M338.393,393.968c-2.306,0 -4.138,-0.718 -5.496,-2.154c-1.358,-1.435 -2.037,-3.119 -2.037,-5.051c0,-2.079 0.708,-3.81 2.126,-5.196c1.417,-1.385 3.26,-2.078 5.53,-2.078c2.288,0 4.127,0.684 5.517,2.051c1.39,1.367 2.085,3.081 2.085,5.141c0,2.078 -0.705,3.812 -2.113,5.202c-1.408,1.39 -3.279,2.085 -5.612,2.085Zm0.082,-3.309c0.848,0 1.365,-0.44 1.552,-1.319c0.187,-0.88 0.28,-1.798 0.28,-2.755c0,-1.304 -0.132,-2.242 -0.396,-2.817c-0.265,-0.574 -0.739,-0.861 -1.422,-0.861c-0.629,0 -1.09,0.296 -1.381,0.889c-0.292,0.592 -0.438,1.568 -0.438,2.926c0,1.595 0.151,2.65 0.451,3.165c0.301,0.515 0.752,0.772 1.354,0.772Z" style="fill-rule:nonzero;"/><path d="M369.305,393.681l-5.291,0l0,-8.696c0,-0.583 -0.084,-0.991 -0.253,-1.223c-0.168,-0.233 -0.467,-0.349 -0.895,-0.349c-1.021,0 -1.532,0.743 -1.532,2.229l0,8.039l-5.236,0l0,-8.696c0,-1.112 -0.428,-1.668 -1.285,-1.668c-0.884,0 -1.326,0.556 -1.326,1.668l0,8.696l-5.25,0l0,-13.905l4.894,0l0,1.873c0.875,-1.44 2.147,-2.16 3.815,-2.16c1.795,0 3.099,0.72 3.91,2.16c0.902,-1.44 2.288,-2.16 4.156,-2.16c0.893,0 1.679,0.187 2.359,0.561c0.679,0.373 1.171,0.854 1.476,1.442c0.305,0.588 0.458,1.497 0.458,2.728l0,9.461Z" style="fill-rule:nonzero;"/><path d="M381.377,388.69l5.086,0.342c-0.301,1.367 -1.068,2.532 -2.303,3.493c-1.235,0.962 -2.906,1.443 -5.011,1.443c-2.343,0 -4.211,-0.677 -5.606,-2.031c-1.394,-1.353 -2.091,-3.032 -2.091,-5.038c0,-2.078 0.688,-3.832 2.064,-5.263c1.376,-1.431 3.213,-2.147 5.51,-2.147c2.224,0 4.022,0.675 5.393,2.024c1.372,1.349 2.058,3.185 2.058,5.509c0,0.192 -0.005,0.456 -0.014,0.793l-9.31,0c0.018,0.875 0.173,1.525 0.465,1.949c0.291,0.423 0.847,0.635 1.668,0.635c1.184,0 1.882,-0.569 2.091,-1.709Zm-0.369,-3.609c-0.009,-0.939 -0.197,-1.57 -0.565,-1.894c-0.368,-0.323 -0.824,-0.485 -1.369,-0.485c-1.29,0 -1.935,0.793 -1.935,2.379l3.869,0Z" style="fill-rule:nonzero;"/><path d="M401.065,398.069l-5.455,0l0,-18.293l5.017,0l0,1.969c0.702,-1.504 2.01,-2.256 3.924,-2.256c1.659,0 2.958,0.645 3.897,1.935c0.938,1.289 1.408,3.046 1.408,5.27c0,2.224 -0.481,3.992 -1.443,5.305c-0.961,1.312 -2.23,1.969 -3.807,1.969c-1.55,0 -2.73,-0.593 -3.541,-1.778l0,5.879Zm0,-9.474c0,0.619 0.141,1.1 0.424,1.442c0.282,0.342 0.633,0.513 1.052,0.513c0.657,0 1.108,-0.303 1.354,-0.909c0.246,-0.607 0.369,-1.539 0.369,-2.796c0,-1.45 -0.141,-2.468 -0.424,-3.056c-0.282,-0.588 -0.706,-0.882 -1.271,-0.882c-0.337,0 -0.672,0.132 -1.005,0.397c-0.333,0.264 -0.499,0.697 -0.499,1.298l0,3.993Z" style="fill-rule:nonzero;"/><path d="M417.252,393.681l-5.222,0l0,-13.905l4.539,0l0,2.871c0.519,-2.087 1.727,-3.13 3.623,-3.13c0.191,0 0.456,0.018 0.793,0.054l0,4.854c-0.383,-0.091 -0.725,-0.137 -1.026,-0.137c-1.804,0 -2.707,1.007 -2.707,3.021l0,6.372Z" style="fill-rule:nonzero;"/><path d="M431.895,388.69l5.086,0.342c-0.301,1.367 -1.069,2.532 -2.304,3.493c-1.235,0.962 -2.905,1.443 -5.011,1.443c-2.342,0 -4.211,-0.677 -5.605,-2.031c-1.395,-1.353 -2.092,-3.032 -2.092,-5.038c0,-2.078 0.688,-3.832 2.065,-5.263c1.376,-1.431 3.212,-2.147 5.509,-2.147c2.224,0 4.022,0.675 5.394,2.024c1.372,1.349 2.058,3.185 2.058,5.509c0,0.192 -0.005,0.456 -0.014,0.793l-9.311,0c0.019,0.875 0.173,1.525 0.465,1.949c0.292,0.423 0.848,0.635 1.668,0.635c1.185,0 1.882,-0.569 2.092,-1.709Zm-0.369,-3.609c-0.009,-0.939 -0.198,-1.57 -0.566,-1.894c-0.368,-0.323 -0.824,-0.485 -1.369,-0.485c-1.29,0 -1.934,0.793 -1.934,2.379l3.869,0Z" style="fill-rule:nonzero;"/><path d="M445.006,383.317l0,10.364l-5.14,0l0,-10.364l-2.079,0l0,-3.541l2.079,0c0,-1.148 0.05,-1.998 0.15,-2.55c0.1,-0.551 0.351,-1.08 0.752,-1.585c0.401,-0.506 0.939,-0.894 1.613,-1.163c0.675,-0.268 1.582,-0.403 2.721,-0.403c1.221,0 2.393,0.096 3.514,0.287l0,3.569c-0.866,-0.119 -1.513,-0.178 -1.942,-0.178c-0.428,0 -0.82,0.086 -1.176,0.26c-0.355,0.173 -0.533,0.597 -0.533,1.271l0,0.492l3.555,0l0,3.541l-3.514,0Z" style="fill-rule:nonzero;"/><path d="M464.12,393.681l-5.196,0c-0.127,-0.593 -0.191,-1.24 -0.191,-1.942c-0.985,1.486 -2.475,2.229 -4.471,2.229c-1.641,0 -2.869,-0.42 -3.684,-1.258c-0.816,-0.839 -1.224,-1.8 -1.224,-2.885c0,-1.467 0.668,-2.655 2.003,-3.561c1.335,-0.907 3.703,-1.452 7.102,-1.634l0,-0.315c0,-0.61 -0.139,-1.016 -0.417,-1.216c-0.278,-0.201 -0.685,-0.301 -1.223,-0.301c-1.258,0 -1.96,0.506 -2.106,1.517l-4.976,-0.465c0.711,-2.907 3.131,-4.361 7.259,-4.361c1.122,0 2.152,0.112 3.09,0.335c0.939,0.223 1.682,0.572 2.229,1.046c0.547,0.474 0.914,0.975 1.1,1.504c0.187,0.529 0.281,1.545 0.281,3.049l0,5.551c0,1.057 0.141,1.959 0.424,2.707Zm-5.661,-6.508c-2.324,0.246 -3.486,0.989 -3.486,2.228c0,0.839 0.46,1.258 1.381,1.258c0.583,0 1.08,-0.173 1.49,-0.519c0.41,-0.347 0.615,-1.112 0.615,-2.297l0,-0.67Z" style="fill-rule:nonzero;"/><path d="M474.907,388.075l4.648,0.397c-0.219,1.622 -0.9,2.944 -2.044,3.964c-1.144,1.021 -2.664,1.532 -4.559,1.532c-2.124,0 -3.849,-0.668 -5.175,-2.003c-1.326,-1.336 -1.99,-3.047 -1.99,-5.134c0,-2.133 0.659,-3.89 1.976,-5.271c1.317,-1.38 3.028,-2.071 5.134,-2.071c1.868,0 3.39,0.522 4.566,1.566c1.176,1.043 1.851,2.363 2.024,3.958l-4.772,0.396c-0.2,-1.467 -0.756,-2.201 -1.668,-2.201c-0.583,0 -1.009,0.267 -1.278,0.8c-0.269,0.533 -0.403,1.46 -0.403,2.782c0,1.139 0.134,1.982 0.403,2.529c0.269,0.547 0.736,0.821 1.401,0.821c0.976,0 1.554,-0.689 1.737,-2.065Z" style="fill-rule:nonzero;"/><path d="M490.356,388.69l5.086,0.342c-0.301,1.367 -1.069,2.532 -2.304,3.493c-1.235,0.962 -2.905,1.443 -5.011,1.443c-2.342,0 -4.211,-0.677 -5.605,-2.031c-1.395,-1.353 -2.092,-3.032 -2.092,-5.038c0,-2.078 0.688,-3.832 2.065,-5.263c1.376,-1.431 3.212,-2.147 5.509,-2.147c2.224,0 4.022,0.675 5.394,2.024c1.372,1.349 2.057,3.185 2.057,5.509c0,0.192 -0.004,0.456 -0.013,0.793l-9.311,0c0.018,0.875 0.173,1.525 0.465,1.949c0.292,0.423 0.848,0.635 1.668,0.635c1.185,0 1.882,-0.569 2.092,-1.709Zm-0.369,-3.609c-0.009,-0.939 -0.198,-1.57 -0.566,-1.894c-0.368,-0.323 -0.824,-0.485 -1.369,-0.485c-1.29,0 -1.934,0.793 -1.934,2.379l3.869,0Z" style="fill-rule:nonzero;"/><path d="M513.174,379.776l0,3.541l-2.775,0l0,5.127c0,0.702 0.132,1.119 0.396,1.251c0.265,0.132 0.538,0.198 0.821,0.198c0.437,0 0.957,-0.077 1.558,-0.232l0,3.883c-1.075,0.209 -2.133,0.314 -3.172,0.314c-1.677,0 -2.909,-0.36 -3.698,-1.08c-0.788,-0.72 -1.183,-1.868 -1.183,-3.445l0.014,-1.627l0,-4.389l-2.078,0l0,-3.541l2.078,0l0.082,-4.525l5.182,-0.082l0,4.607l2.775,0Z" style="fill:#ec7979;fill-rule:nonzero;"/><path d="M528.651,393.681l-5.455,0l0,-8.368c0,-0.765 -0.084,-1.292 -0.252,-1.579c-0.168,-0.287 -0.492,-0.43 -0.973,-0.43c-0.371,0 -0.696,0.111 -0.972,0.335c-0.277,0.223 -0.438,0.453 -0.483,0.69c-0.046,0.237 -0.068,0.734 -0.068,1.49l0,7.862l-5.455,0l0,-18.663l5.455,0l0,6.399c0.984,-1.285 2.269,-1.928 3.855,-1.928c0.802,0 1.506,0.139 2.112,0.417c0.607,0.278 1.074,0.636 1.402,1.073c0.328,0.438 0.549,0.862 0.663,1.272c0.114,0.41 0.171,1.203 0.171,2.379l0,9.051Z" style="fill:#ec7979;fill-rule:nonzero;"/><path d="M540.723,388.69l5.086,0.342c-0.301,1.367 -1.069,2.532 -2.304,3.493c-1.235,0.962 -2.905,1.443 -5.01,1.443c-2.343,0 -4.211,-0.677 -5.606,-2.031c-1.394,-1.353 -2.092,-3.032 -2.092,-5.038c0,-2.078 0.688,-3.832 2.065,-5.263c1.376,-1.431 3.213,-2.147 5.509,-2.147c2.224,0 4.022,0.675 5.394,2.024c1.372,1.349 2.058,3.185 2.058,5.509c0,0.192 -0.005,0.456 -0.014,0.793l-9.311,0c0.019,0.875 0.174,1.525 0.465,1.949c0.292,0.423 0.848,0.635 1.668,0.635c1.185,0 1.882,-0.569 2.092,-1.709Zm-0.369,-3.609c-0.009,-0.939 -0.198,-1.57 -0.566,-1.894c-0.367,-0.323 -0.824,-0.485 -1.369,-0.485c-1.289,0 -1.934,0.793 -1.934,2.379l3.869,0Z" style="fill:#ec7979;fill-rule:nonzero;"/><path d="M553.178,393.681l-5.223,0l0,-13.905l4.54,0l0,2.871c0.519,-2.087 1.727,-3.13 3.623,-3.13c0.191,0 0.455,0.018 0.793,0.054l0,4.854c-0.383,-0.091 -0.725,-0.137 -1.026,-0.137c-1.805,0 -2.707,1.007 -2.707,3.021l0,6.372Z" style="fill:#ec7979;fill-rule:nonzero;"/><path d="M567.821,388.69l5.086,0.342c-0.301,1.367 -1.069,2.532 -2.304,3.493c-1.235,0.962 -2.905,1.443 -5.011,1.443c-2.342,0 -4.211,-0.677 -5.605,-2.031c-1.395,-1.353 -2.092,-3.032 -2.092,-5.038c0,-2.078 0.688,-3.832 2.064,-5.263c1.377,-1.431 3.213,-2.147 5.51,-2.147c2.224,0 4.022,0.675 5.394,2.024c1.371,1.349 2.057,3.185 2.057,5.509c0,0.192 -0.004,0.456 -0.013,0.793l-9.311,0c0.018,0.875 0.173,1.525 0.465,1.949c0.292,0.423 0.848,0.635 1.668,0.635c1.185,0 1.882,-0.569 2.092,-1.709Zm-0.369,-3.609c-0.01,-0.939 -0.198,-1.57 -0.566,-1.894c-0.368,-0.323 -0.824,-0.485 -1.369,-0.485c-1.29,0 -1.935,0.793 -1.935,2.379l3.87,0Z" style="fill:#ec7979;fill-rule:nonzero;"/><rect x="574.862" y="388.69" width="5.195" height="4.99" style="fill-rule:nonzero;"/><rect x="582.559" y="388.69" width="5.195" height="4.99" style="fill-rule:nonzero;"/><path d="M221.318,448.837l0,4.844l-4.15,0l0,-13.331l5.693,0c1.42,0 2.499,0.163 3.238,0.489c0.739,0.325 1.325,0.823 1.757,1.494c0.433,0.67 0.65,1.422 0.65,2.256c0,1.269 -0.443,2.295 -1.328,3.076c-0.886,0.781 -2.067,1.172 -3.545,1.172l-2.315,0Zm-0.058,-2.862l1.367,0c1.204,0 1.807,-0.442 1.807,-1.328c0,-0.833 -0.557,-1.25 -1.67,-1.25l-1.504,0l0,2.578Z" style="fill-rule:nonzero;"/><rect x="229.893" y="440.35" width="3.838" height="13.33" style="fill-rule:nonzero;"/><path d="M245.791,453.681l-3.711,0c-0.091,-0.424 -0.137,-0.886 -0.137,-1.387c-0.703,1.061 -1.767,1.592 -3.193,1.592c-1.172,0 -2.049,-0.3 -2.632,-0.899c-0.582,-0.599 -0.874,-1.286 -0.874,-2.06c0,-1.049 0.477,-1.896 1.431,-2.544c0.954,-0.648 2.645,-1.037 5.073,-1.167l0,-0.225c0,-0.436 -0.099,-0.726 -0.298,-0.869c-0.198,-0.143 -0.49,-0.215 -0.874,-0.215c-0.898,0 -1.4,0.361 -1.504,1.084l-3.554,-0.332c0.507,-2.077 2.236,-3.115 5.185,-3.115c0.801,0 1.537,0.08 2.207,0.239c0.671,0.16 1.201,0.409 1.592,0.747c0.391,0.339 0.653,0.697 0.786,1.074c0.134,0.378 0.2,1.104 0.2,2.178l0,3.965c0,0.755 0.101,1.4 0.303,1.934Zm-4.043,-4.649c-1.66,0.176 -2.49,0.707 -2.49,1.592c0,0.599 0.329,0.898 0.986,0.898c0.417,0 0.772,-0.123 1.065,-0.371c0.293,-0.247 0.439,-0.794 0.439,-1.64l0,-0.479Z" style="fill-rule:nonzero;"/><path d="M253.496,449.677l3.32,0.283c-0.156,1.159 -0.642,2.103 -1.46,2.832c-0.817,0.729 -1.902,1.094 -3.256,1.094c-1.517,0 -2.749,-0.477 -3.697,-1.431c-0.947,-0.954 -1.421,-2.176 -1.421,-3.667c0,-1.523 0.471,-2.778 1.412,-3.765c0.94,-0.986 2.163,-1.479 3.667,-1.479c1.334,0 2.421,0.373 3.261,1.118c0.84,0.745 1.322,1.688 1.446,2.827l-3.409,0.283c-0.143,-1.048 -0.54,-1.572 -1.191,-1.572c-0.417,0 -0.721,0.191 -0.913,0.571c-0.192,0.381 -0.288,1.044 -0.288,1.988c0,0.813 0.096,1.416 0.288,1.806c0.192,0.391 0.526,0.586 1.001,0.586c0.697,0 1.11,-0.491 1.24,-1.474Z" style="fill-rule:nonzero;"/><path d="M264.531,450.116l3.633,0.244c-0.215,0.977 -0.763,1.809 -1.645,2.495c-0.883,0.687 -2.076,1.031 -3.579,1.031c-1.674,0 -3.008,-0.484 -4.004,-1.451c-0.996,-0.966 -1.495,-2.166 -1.495,-3.598c0,-1.485 0.492,-2.738 1.475,-3.76c0.983,-1.022 2.295,-1.533 3.936,-1.533c1.588,0 2.872,0.482 3.852,1.445c0.98,0.964 1.47,2.276 1.47,3.936c0,0.136 -0.003,0.325 -0.01,0.566l-6.65,0c0.013,0.625 0.123,1.089 0.332,1.392c0.208,0.302 0.605,0.454 1.191,0.454c0.847,0 1.345,-0.407 1.494,-1.221Zm-0.263,-2.578c-0.007,-0.671 -0.142,-1.121 -0.404,-1.353c-0.263,-0.231 -0.589,-0.346 -0.978,-0.346c-0.921,0 -1.382,0.566 -1.382,1.699l2.764,0Z" style="fill-rule:nonzero;"/><path d="M279.453,453.681l-3.896,0l0,-5.977c0,-0.547 -0.06,-0.923 -0.18,-1.128c-0.12,-0.205 -0.351,-0.308 -0.695,-0.308c-0.265,0 -0.497,0.08 -0.695,0.24c-0.197,0.159 -0.312,0.324 -0.345,0.493c-0.032,0.169 -0.048,0.524 -0.048,1.064l0,5.616l-3.897,0l0,-13.331l3.897,0l0,4.571c0.703,-0.918 1.621,-1.377 2.754,-1.377c0.573,0 1.076,0.099 1.508,0.298c0.433,0.198 0.767,0.454 1.001,0.766c0.235,0.313 0.393,0.616 0.474,0.909c0.081,0.292 0.122,0.859 0.122,1.699l0,6.465Z" style="fill-rule:nonzero;"/><path d="M286.367,453.886c-1.647,0 -2.955,-0.513 -3.926,-1.538c-0.97,-1.026 -1.455,-2.229 -1.455,-3.609c0,-1.484 0.507,-2.721 1.519,-3.711c1.012,-0.989 2.329,-1.484 3.95,-1.484c1.634,0 2.948,0.488 3.941,1.465c0.992,0.976 1.489,2.2 1.489,3.672c0,1.484 -0.503,2.723 -1.509,3.715c-1.006,0.993 -2.342,1.49 -4.009,1.49Zm0.059,-2.364c0.605,0 0.975,-0.314 1.108,-0.942c0.134,-0.628 0.2,-1.284 0.2,-1.968c0,-0.931 -0.094,-1.601 -0.283,-2.012c-0.189,-0.41 -0.527,-0.615 -1.015,-0.615c-0.45,0 -0.778,0.212 -0.987,0.635c-0.208,0.423 -0.312,1.12 -0.312,2.09c0,1.139 0.107,1.893 0.322,2.261c0.215,0.367 0.537,0.551 0.967,0.551Z" style="fill-rule:nonzero;"/><rect x="293.398" y="440.35" width="3.838" height="13.33" style="fill-rule:nonzero;"/><path d="M308.984,453.681l-3.652,0l0,-1.319c-0.54,1.016 -1.432,1.524 -2.676,1.524c-1.146,0 -2.075,-0.448 -2.788,-1.343c-0.713,-0.895 -1.069,-2.196 -1.069,-3.901c0,-1.596 0.358,-2.862 1.074,-3.799c0.716,-0.938 1.664,-1.407 2.842,-1.407c0.983,0 1.794,0.375 2.432,1.123l0,-4.209l3.837,0l0,13.331Zm-3.837,-6.387c0,-0.892 -0.368,-1.338 -1.104,-1.338c-0.514,0 -0.851,0.283 -1.011,0.85c-0.159,0.566 -0.239,1.259 -0.239,2.08c0,1.608 0.41,2.412 1.23,2.412c0.313,0 0.578,-0.127 0.796,-0.381c0.218,-0.254 0.328,-0.641 0.328,-1.162l0,-2.461Z" style="fill-rule:nonzero;"/><path d="M317.598,450.116l3.633,0.244c-0.215,0.977 -0.764,1.809 -1.646,2.495c-0.882,0.687 -2.075,1.031 -3.579,1.031c-1.673,0 -3.008,-0.484 -4.004,-1.451c-0.996,-0.966 -1.494,-2.166 -1.494,-3.598c0,-1.485 0.491,-2.738 1.474,-3.76c0.984,-1.022 2.295,-1.533 3.936,-1.533c1.589,0 2.873,0.482 3.853,1.445c0.979,0.964 1.469,2.276 1.469,3.936c0,0.136 -0.003,0.325 -0.009,0.566l-6.651,0c0.013,0.625 0.124,1.089 0.332,1.392c0.208,0.302 0.606,0.454 1.192,0.454c0.846,0 1.344,-0.407 1.494,-1.221Zm-0.264,-2.578c-0.006,-0.671 -0.141,-1.121 -0.404,-1.353c-0.263,-0.231 -0.589,-0.346 -0.978,-0.346c-0.921,0 -1.382,0.566 -1.382,1.699l2.764,0Z" style="fill-rule:nonzero;"/><path d="M326.494,453.681l-3.73,0l0,-9.932l3.242,0l0,2.051c0.371,-1.491 1.234,-2.237 2.588,-2.237c0.137,0 0.325,0.013 0.566,0.039l0,3.467c-0.273,-0.065 -0.517,-0.097 -0.732,-0.097c-1.289,0 -1.934,0.719 -1.934,2.158l0,4.551Z" style="fill-rule:nonzero;"/><path d="M350.593,443.749l0,2.529l-1.982,0l0,3.662c0,0.502 0.094,0.799 0.283,0.894c0.189,0.094 0.384,0.141 0.586,0.141c0.313,0 0.684,-0.055 1.113,-0.166l0,2.774c-0.768,0.15 -1.523,0.225 -2.265,0.225c-1.198,0 -2.079,-0.258 -2.642,-0.772c-0.563,-0.514 -0.844,-1.335 -0.844,-2.461l0.009,-1.162l0,-3.135l-1.484,0l0,-2.529l1.484,0l0.059,-3.232l3.701,-0.059l0,3.291l1.982,0Z" style="fill-rule:nonzero;"/><path d="M358.455,450.116l3.633,0.244c-0.215,0.977 -0.764,1.809 -1.646,2.495c-0.882,0.687 -2.075,1.031 -3.579,1.031c-1.673,0 -3.008,-0.484 -4.004,-1.451c-0.996,-0.966 -1.494,-2.166 -1.494,-3.598c0,-1.485 0.492,-2.738 1.475,-3.76c0.983,-1.022 2.294,-1.533 3.935,-1.533c1.589,0 2.873,0.482 3.853,1.445c0.979,0.964 1.469,2.276 1.469,3.936c0,0.136 -0.003,0.325 -0.009,0.566l-6.651,0c0.013,0.625 0.124,1.089 0.332,1.392c0.209,0.302 0.606,0.454 1.192,0.454c0.846,0 1.344,-0.407 1.494,-1.221Zm-0.264,-2.578c-0.006,-0.671 -0.141,-1.121 -0.404,-1.353c-0.263,-0.231 -0.588,-0.346 -0.978,-0.346c-0.921,0 -1.382,0.566 -1.382,1.699l2.764,0Z" style="fill-rule:nonzero;"/><path d="M373.484,453.681l-4.389,0l-1.823,-3.173l-1.95,3.173l-3.166,0l3.488,-5.266l-3.058,-4.666l4.331,0l1.025,1.852c0.045,0.084 0.101,0.182 0.166,0.292c0.032,0.052 0.078,0.137 0.137,0.254c0.071,-0.111 0.159,-0.26 0.264,-0.449c0.013,-0.032 0.049,-0.101 0.107,-0.205l1.018,-1.744l3.215,0l-2.909,4.518l3.544,5.414Z" style="fill-rule:nonzero;"/><path d="M380.515,443.749l0,2.529l-1.982,0l0,3.662c0,0.502 0.094,0.799 0.283,0.894c0.189,0.094 0.384,0.141 0.586,0.141c0.313,0 0.684,-0.055 1.113,-0.166l0,2.774c-0.768,0.15 -1.523,0.225 -2.265,0.225c-1.198,0 -2.079,-0.258 -2.642,-0.772c-0.563,-0.514 -0.845,-1.335 -0.845,-2.461l0.01,-1.162l0,-3.135l-1.484,0l0,-2.529l1.484,0l0.059,-3.232l3.701,-0.059l0,3.291l1.982,0Z" style="fill-rule:nonzero;"/><path d="M400.083,446.278l0,7.403l-3.671,0l0,-7.403l-1.485,0l0,-2.529l1.485,0c0,-0.82 0.035,-1.427 0.107,-1.821c0.072,-0.394 0.251,-0.772 0.537,-1.133c0.287,-0.362 0.671,-0.638 1.152,-0.83c0.482,-0.192 1.13,-0.288 1.944,-0.288c0.872,0 1.709,0.068 2.51,0.205l0,2.549c-0.619,-0.085 -1.081,-0.127 -1.387,-0.127c-0.306,0 -0.586,0.061 -0.84,0.185c-0.254,0.124 -0.381,0.427 -0.381,0.908l0,0.352l2.539,0l0,2.529l-2.51,0Z" style="fill-rule:nonzero;"/><path d="M408.579,453.886c-1.647,0 -2.955,-0.513 -3.925,-1.538c-0.97,-1.026 -1.455,-2.229 -1.455,-3.609c0,-1.484 0.506,-2.721 1.518,-3.711c1.013,-0.989 2.329,-1.484 3.95,-1.484c1.634,0 2.948,0.488 3.941,1.465c0.993,0.976 1.489,2.2 1.489,3.672c0,1.484 -0.503,2.723 -1.509,3.715c-1.006,0.993 -2.342,1.49 -4.009,1.49Zm0.059,-2.364c0.606,0 0.975,-0.314 1.108,-0.942c0.134,-0.628 0.201,-1.284 0.201,-1.968c0,-0.931 -0.095,-1.601 -0.284,-2.012c-0.188,-0.41 -0.527,-0.615 -1.015,-0.615c-0.449,0 -0.778,0.212 -0.986,0.635c-0.209,0.423 -0.313,1.12 -0.313,2.09c0,1.139 0.107,1.893 0.322,2.261c0.215,0.367 0.537,0.551 0.967,0.551Z" style="fill-rule:nonzero;"/><path d="M419.341,453.681l-3.73,0l0,-9.932l3.242,0l0,2.051c0.371,-1.491 1.234,-2.237 2.588,-2.237c0.137,0 0.325,0.013 0.566,0.039l0,3.467c-0.273,-0.065 -0.517,-0.097 -0.732,-0.097c-1.289,0 -1.934,0.719 -1.934,2.158l0,4.551Z" style="fill-rule:nonzero;"/><path d="M443.44,443.749l0,2.529l-1.982,0l0,3.662c0,0.502 0.094,0.799 0.283,0.894c0.189,0.094 0.384,0.141 0.586,0.141c0.313,0 0.684,-0.055 1.113,-0.166l0,2.774c-0.768,0.15 -1.523,0.225 -2.265,0.225c-1.198,0 -2.079,-0.258 -2.642,-0.772c-0.563,-0.514 -0.844,-1.335 -0.844,-2.461l0.009,-1.162l0,-3.135l-1.484,0l0,-2.529l1.484,0l0.059,-3.232l3.701,-0.059l0,3.291l1.982,0Z" style="fill-rule:nonzero;"/><path d="M454.495,453.681l-3.896,0l0,-5.977c0,-0.547 -0.06,-0.923 -0.18,-1.128c-0.12,-0.205 -0.351,-0.308 -0.695,-0.308c-0.265,0 -0.497,0.08 -0.695,0.24c-0.197,0.159 -0.312,0.324 -0.345,0.493c-0.032,0.169 -0.048,0.524 -0.048,1.064l0,5.616l-3.897,0l0,-13.331l3.897,0l0,4.571c0.703,-0.918 1.621,-1.377 2.754,-1.377c0.573,0 1.076,0.099 1.508,0.298c0.433,0.198 0.767,0.454 1.001,0.766c0.235,0.313 0.393,0.616 0.474,0.909c0.081,0.292 0.122,0.859 0.122,1.699l0,6.465Z" style="fill-rule:nonzero;"/><path d="M460.452,439.931l0,3.086l-3.896,0l0,-3.086l3.896,0Zm0,3.818l0,9.932l-3.896,0l0,-9.932l3.896,0Z" style="fill-rule:nonzero;"/><path d="M461.624,450.868l3.076,-0.42c0.176,0.716 0.873,1.074 2.09,1.074c1.009,0 1.514,-0.195 1.514,-0.586c0,-0.169 -0.098,-0.301 -0.293,-0.395c-0.196,-0.094 -0.658,-0.191 -1.387,-0.288c-2.018,-0.28 -3.278,-0.718 -3.779,-1.314c-0.502,-0.596 -0.752,-1.258 -0.752,-1.987c0,-1.016 0.423,-1.838 1.269,-2.466c0.847,-0.628 1.957,-0.942 3.33,-0.942c2.409,0 3.946,0.869 4.61,2.607l-2.949,0.557c-0.274,-0.586 -0.85,-0.879 -1.729,-0.879c-0.417,0 -0.727,0.057 -0.933,0.171c-0.205,0.114 -0.307,0.226 -0.307,0.337c0,0.325 0.312,0.523 0.938,0.594c1.627,0.18 2.731,0.365 3.31,0.554c0.58,0.189 1.074,0.534 1.484,1.036c0.41,0.501 0.616,1.107 0.616,1.817c0,1.088 -0.455,1.951 -1.363,2.59c-0.908,0.638 -2.16,0.958 -3.755,0.958c-2.688,0 -4.352,-1.006 -4.99,-3.018Z" style="fill-rule:nonzero;"/><path d="M493.301,443.749l0,2.529l-1.982,0l0,3.662c0,0.502 0.094,0.799 0.283,0.894c0.189,0.094 0.384,0.141 0.586,0.141c0.313,0 0.684,-0.055 1.113,-0.166l0,2.774c-0.768,0.15 -1.523,0.225 -2.265,0.225c-1.198,0 -2.079,-0.258 -2.642,-0.772c-0.563,-0.514 -0.844,-1.335 -0.844,-2.461l0.009,-1.162l0,-3.135l-1.484,0l0,-2.529l1.484,0l0.059,-3.232l3.701,-0.059l0,3.291l1.982,0Z" style="fill-rule:nonzero;"/><path d="M498.497,439.931l0,3.086l-3.897,0l0,-3.086l3.897,0Zm0,3.818l0,9.932l-3.897,0l0,-9.932l3.897,0Z" style="fill-rule:nonzero;"/><rect x="500.548" y="440.35" width="3.838" height="13.33" style="fill-rule:nonzero;"/><path d="M512.999,450.116l3.633,0.244c-0.215,0.977 -0.764,1.809 -1.646,2.495c-0.882,0.687 -2.075,1.031 -3.579,1.031c-1.673,0 -3.008,-0.484 -4.004,-1.451c-0.996,-0.966 -1.494,-2.166 -1.494,-3.598c0,-1.485 0.491,-2.738 1.475,-3.76c0.983,-1.022 2.294,-1.533 3.935,-1.533c1.589,0 2.873,0.482 3.853,1.445c0.979,0.964 1.469,2.276 1.469,3.936c0,0.136 -0.003,0.325 -0.009,0.566l-6.651,0c0.013,0.625 0.124,1.089 0.332,1.392c0.209,0.302 0.606,0.454 1.192,0.454c0.846,0 1.344,-0.407 1.494,-1.221Zm-0.264,-2.578c-0.006,-0.671 -0.141,-1.121 -0.404,-1.353c-0.263,-0.231 -0.589,-0.346 -0.978,-0.346c-0.921,0 -1.382,0.566 -1.382,1.699l2.764,0Z" style="fill-rule:nonzero;"/><rect x="518.028" y="450.116" width="3.711" height="3.564" style="fill-rule:nonzero;"/><path d="M543.348,443.544l0,10.137l-3.877,0l0,-10.137l-2.764,0l0,-3.194l9.405,0l0,3.194l-2.764,0Z" style="fill-rule:nonzero;"/><path d="M556.893,453.681l-3.897,0l0,-5.977c0,-0.547 -0.059,-0.923 -0.179,-1.128c-0.12,-0.205 -0.352,-0.308 -0.695,-0.308c-0.266,0 -0.497,0.08 -0.695,0.24c-0.197,0.159 -0.312,0.324 -0.345,0.493c-0.032,0.169 -0.048,0.524 -0.048,1.064l0,5.616l-3.897,0l0,-13.331l3.897,0l0,4.571c0.703,-0.918 1.621,-1.377 2.753,-1.377c0.573,0 1.076,0.099 1.509,0.298c0.433,0.198 0.767,0.454 1.001,0.766c0.235,0.313 0.393,0.616 0.474,0.909c0.081,0.292 0.122,0.859 0.122,1.699l0,6.465Z" style="fill-rule:nonzero;"/><path d="M565.516,450.116l3.633,0.244c-0.215,0.977 -0.764,1.809 -1.646,2.495c-0.882,0.687 -2.075,1.031 -3.579,1.031c-1.673,0 -3.008,-0.484 -4.004,-1.451c-0.996,-0.966 -1.494,-2.166 -1.494,-3.598c0,-1.485 0.492,-2.738 1.475,-3.76c0.983,-1.022 2.295,-1.533 3.935,-1.533c1.589,0 2.873,0.482 3.853,1.445c0.98,0.964 1.47,2.276 1.47,3.936c0,0.136 -0.004,0.325 -0.01,0.566l-6.651,0c0.013,0.625 0.124,1.089 0.332,1.392c0.209,0.302 0.606,0.454 1.192,0.454c0.846,0 1.344,-0.407 1.494,-1.221Zm-0.264,-2.578c-0.006,-0.671 -0.141,-1.121 -0.404,-1.353c-0.262,-0.231 -0.588,-0.346 -0.977,-0.346c-0.922,0 -1.382,0.566 -1.382,1.699l2.763,0Z" style="fill-rule:nonzero;"/><path d="M574.412,453.681l-3.73,0l0,-9.932l3.242,0l0,2.051c0.371,-1.491 1.234,-2.237 2.588,-2.237c0.137,0 0.326,0.013 0.567,0.039l0,3.467c-0.274,-0.065 -0.518,-0.097 -0.733,-0.097c-1.289,0 -1.934,0.719 -1.934,2.158l0,4.551Z" style="fill-rule:nonzero;"/><path d="M584.871,450.116l3.633,0.244c-0.215,0.977 -0.763,1.809 -1.645,2.495c-0.882,0.687 -2.075,1.031 -3.579,1.031c-1.673,0 -3.008,-0.484 -4.004,-1.451c-0.996,-0.966 -1.494,-2.166 -1.494,-3.598c0,-1.485 0.491,-2.738 1.474,-3.76c0.983,-1.022 2.295,-1.533 3.936,-1.533c1.588,0 2.873,0.482 3.852,1.445c0.98,0.964 1.47,2.276 1.47,3.936c0,0.136 -0.003,0.325 -0.01,0.566l-6.65,0c0.013,0.625 0.124,1.089 0.332,1.392c0.208,0.302 0.605,0.454 1.191,0.454c0.847,0 1.345,-0.407 1.494,-1.221Zm-0.263,-2.578c-0.007,-0.671 -0.141,-1.121 -0.404,-1.353c-0.263,-0.231 -0.589,-0.346 -0.978,-0.346c-0.921,0 -1.382,0.566 -1.382,1.699l2.764,0Z" style="fill-rule:nonzero;"/><path d="M230.723,465.749l-3.143,9.932l-2.803,0l-1.3,-5.381l-1.358,5.381l-2.773,0l-3.203,-9.932l3.827,0l1.311,4.863l1.249,-4.863l2.882,0l1.232,4.859l1.375,-4.859l2.704,0Z" style="fill-rule:nonzero;"/><path d="M236.455,475.886c-1.647,0 -2.956,-0.513 -3.926,-1.538c-0.97,-1.026 -1.455,-2.229 -1.455,-3.609c0,-1.484 0.506,-2.721 1.519,-3.711c1.012,-0.989 2.329,-1.484 3.95,-1.484c1.634,0 2.948,0.488 3.94,1.465c0.993,0.976 1.49,2.2 1.49,3.672c0,1.484 -0.503,2.723 -1.509,3.715c-1.006,0.993 -2.342,1.49 -4.009,1.49Zm0.059,-2.364c0.605,0 0.975,-0.314 1.108,-0.942c0.134,-0.628 0.2,-1.284 0.2,-1.968c0,-0.931 -0.094,-1.601 -0.283,-2.012c-0.189,-0.41 -0.527,-0.615 -1.016,-0.615c-0.449,0 -0.778,0.212 -0.986,0.635c-0.208,0.423 -0.312,1.12 -0.312,2.09c0,1.139 0.107,1.893 0.322,2.261c0.215,0.367 0.537,0.551 0.967,0.551Z" style="fill-rule:nonzero;"/><path d="M253.145,465.749l0,9.932l-3.604,0l0,-1.631c-0.527,1.224 -1.556,1.836 -3.086,1.836c-0.944,0 -1.675,-0.262 -2.192,-0.786c-0.518,-0.525 -0.777,-1.275 -0.777,-2.251l0,-7.1l3.897,0l0,6.25c0,0.391 0.054,0.666 0.161,0.825c0.107,0.16 0.317,0.239 0.63,0.239c0.332,0 0.602,-0.118 0.81,-0.356c0.209,-0.238 0.313,-0.571 0.313,-1.001l0,-5.957l3.848,0Z" style="fill-rule:nonzero;"/><rect x="255.195" y="462.35" width="3.838" height="13.33" style="fill-rule:nonzero;"/><path d="M270.781,475.681l-3.652,0l0,-1.319c-0.54,1.016 -1.432,1.524 -2.676,1.524c-1.146,0 -2.075,-0.448 -2.788,-1.343c-0.713,-0.895 -1.069,-2.196 -1.069,-3.901c0,-1.596 0.358,-2.862 1.074,-3.799c0.716,-0.938 1.663,-1.407 2.842,-1.407c0.983,0 1.793,0.375 2.431,1.123l0,-4.209l3.838,0l0,13.331Zm-3.838,-6.387c0,-0.892 -0.367,-1.338 -1.103,-1.338c-0.514,0 -0.851,0.283 -1.011,0.85c-0.159,0.566 -0.239,1.259 -0.239,2.08c0,1.608 0.41,2.412 1.23,2.412c0.313,0 0.578,-0.127 0.796,-0.381c0.218,-0.254 0.327,-0.641 0.327,-1.162l0,-2.461Z" style="fill-rule:nonzero;"/><path d="M284.092,475.681l-2.198,0l0,-13.331l3.838,0l0,4.581c0.534,-0.925 1.384,-1.387 2.549,-1.387c0.82,0 1.517,0.215 2.09,0.644c0.573,0.43 0.999,1.044 1.279,1.841c0.28,0.798 0.42,1.636 0.42,2.515c0,1.601 -0.358,2.892 -1.074,3.872c-0.716,0.98 -1.784,1.47 -3.203,1.47c-1.4,0 -2.464,-0.524 -3.194,-1.573c-0.208,0.391 -0.377,0.847 -0.507,1.368Zm1.64,-3.702c0,0.977 0.378,1.465 1.133,1.465c0.41,0 0.724,-0.177 0.942,-0.532c0.219,-0.355 0.328,-1.086 0.328,-2.192c0,-1.205 -0.124,-1.962 -0.372,-2.271c-0.247,-0.309 -0.553,-0.464 -0.917,-0.464c-0.287,0 -0.544,0.111 -0.772,0.332c-0.228,0.222 -0.342,0.544 -0.342,0.967l0,2.695Z" style="fill-rule:nonzero;"/><path d="M300.185,472.116l3.633,0.244c-0.215,0.977 -0.763,1.809 -1.645,2.495c-0.882,0.687 -2.076,1.031 -3.579,1.031c-1.674,0 -3.008,-0.484 -4.004,-1.451c-0.996,-0.966 -1.494,-2.166 -1.494,-3.598c0,-1.485 0.491,-2.738 1.474,-3.76c0.983,-1.022 2.295,-1.533 3.936,-1.533c1.588,0 2.872,0.482 3.852,1.445c0.98,0.964 1.47,2.276 1.47,3.936c0,0.136 -0.003,0.325 -0.01,0.566l-6.65,0c0.013,0.625 0.123,1.089 0.332,1.392c0.208,0.302 0.605,0.454 1.191,0.454c0.847,0 1.345,-0.407 1.494,-1.221Zm-0.263,-2.578c-0.007,-0.671 -0.141,-1.121 -0.404,-1.353c-0.263,-0.231 -0.589,-0.346 -0.978,-0.346c-0.921,0 -1.382,0.566 -1.382,1.699l2.764,0Z" style="fill-rule:nonzero;"/><path d="M313.515,472.868l3.076,-0.42c0.176,0.716 0.873,1.074 2.09,1.074c1.009,0 1.514,-0.195 1.514,-0.586c0,-0.169 -0.098,-0.301 -0.293,-0.395c-0.195,-0.094 -0.658,-0.191 -1.387,-0.288c-2.018,-0.28 -3.278,-0.718 -3.779,-1.314c-0.501,-0.596 -0.752,-1.258 -0.752,-1.987c0,-1.016 0.423,-1.838 1.269,-2.466c0.847,-0.628 1.957,-0.942 3.331,-0.942c2.408,0 3.945,0.869 4.609,2.607l-2.949,0.557c-0.274,-0.586 -0.85,-0.879 -1.729,-0.879c-0.416,0 -0.727,0.057 -0.932,0.171c-0.205,0.114 -0.308,0.226 -0.308,0.337c0,0.325 0.313,0.523 0.938,0.594c1.628,0.18 2.731,0.365 3.31,0.554c0.58,0.189 1.075,0.534 1.485,1.036c0.41,0.501 0.615,1.107 0.615,1.817c0,1.088 -0.454,1.951 -1.363,2.59c-0.908,0.638 -2.159,0.958 -3.755,0.958c-2.688,0 -4.352,-1.006 -4.99,-3.018Z" style="fill-rule:nonzero;"/><path d="M329.843,475.886c-1.647,0 -2.955,-0.513 -3.925,-1.538c-0.97,-1.026 -1.456,-2.229 -1.456,-3.609c0,-1.484 0.507,-2.721 1.519,-3.711c1.012,-0.989 2.329,-1.484 3.95,-1.484c1.634,0 2.948,0.488 3.941,1.465c0.992,0.976 1.489,2.2 1.489,3.672c0,1.484 -0.503,2.723 -1.509,3.715c-1.006,0.993 -2.342,1.49 -4.009,1.49Zm0.059,-2.364c0.605,0 0.975,-0.314 1.108,-0.942c0.134,-0.628 0.201,-1.284 0.201,-1.968c0,-0.931 -0.095,-1.601 -0.284,-2.012c-0.188,-0.41 -0.527,-0.615 -1.015,-0.615c-0.45,0 -0.778,0.212 -0.987,0.635c-0.208,0.423 -0.312,1.12 -0.312,2.09c0,1.139 0.107,1.893 0.322,2.261c0.215,0.367 0.537,0.551 0.967,0.551Z" style="fill-rule:nonzero;"/><path d="M351.923,475.681l-3.779,0l0,-6.211c0,-0.417 -0.06,-0.708 -0.181,-0.874c-0.12,-0.166 -0.333,-0.249 -0.639,-0.249c-0.729,0 -1.094,0.53 -1.094,1.591l0,5.743l-3.74,0l0,-6.211c0,-0.795 -0.306,-1.192 -0.918,-1.192c-0.632,0 -0.947,0.397 -0.947,1.192l0,6.211l-3.75,0l0,-9.932l3.496,0l0,1.338c0.625,-1.029 1.533,-1.543 2.724,-1.543c1.283,0 2.214,0.514 2.793,1.543c0.645,-1.029 1.634,-1.543 2.969,-1.543c0.638,0 1.2,0.133 1.685,0.4c0.485,0.267 0.836,0.611 1.054,1.031c0.218,0.419 0.327,1.069 0.327,1.948l0,6.758Z" style="fill-rule:nonzero;"/><path d="M360.546,472.116l3.633,0.244c-0.215,0.977 -0.763,1.809 -1.645,2.495c-0.882,0.687 -2.075,1.031 -3.579,1.031c-1.674,0 -3.008,-0.484 -4.004,-1.451c-0.996,-0.966 -1.494,-2.166 -1.494,-3.598c0,-1.485 0.491,-2.738 1.474,-3.76c0.983,-1.022 2.295,-1.533 3.936,-1.533c1.588,0 2.872,0.482 3.852,1.445c0.98,0.964 1.47,2.276 1.47,3.936c0,0.136 -0.003,0.325 -0.01,0.566l-6.65,0c0.013,0.625 0.124,1.089 0.332,1.392c0.208,0.302 0.605,0.454 1.191,0.454c0.847,0 1.345,-0.407 1.494,-1.221Zm-0.263,-2.578c-0.007,-0.671 -0.141,-1.121 -0.404,-1.353c-0.263,-0.231 -0.589,-0.346 -0.978,-0.346c-0.921,0 -1.382,0.566 -1.382,1.699l2.764,0Z" style="fill-rule:nonzero;"/><path d="M378.652,461.931l0,3.086l-3.897,0l0,-3.086l3.897,0Zm0,3.818l0,9.932l-3.897,0l0,-9.932l3.897,0Z" style="fill-rule:nonzero;"/><path d="M390.4,475.681l-3.897,0l0,-6.25c0,-0.515 -0.079,-0.844 -0.239,-0.987c-0.159,-0.143 -0.36,-0.215 -0.601,-0.215c-0.709,0 -1.064,0.495 -1.064,1.485l0,5.967l-3.897,0l0,-9.932l3.614,0l0,1.406c0.534,-1.074 1.487,-1.611 2.861,-1.611c0.723,0 1.333,0.138 1.831,0.415c0.498,0.277 0.855,0.635 1.069,1.074c0.215,0.44 0.323,1.203 0.323,2.29l0,6.358Z" style="fill-rule:nonzero;"/><path d="M396.65,468.278l0,7.403l-3.672,0l0,-7.403l-1.484,0l0,-2.529l1.484,0c0,-0.82 0.036,-1.427 0.107,-1.821c0.072,-0.394 0.251,-0.772 0.537,-1.133c0.287,-0.362 0.671,-0.638 1.153,-0.83c0.482,-0.192 1.129,-0.288 1.943,-0.288c0.873,0 1.709,0.068 2.51,0.205l0,2.549c-0.619,-0.085 -1.081,-0.127 -1.387,-0.127c-0.306,0 -0.586,0.061 -0.84,0.185c-0.254,0.124 -0.381,0.427 -0.381,0.908l0,0.352l2.54,0l0,2.529l-2.51,0Z" style="fill-rule:nonzero;"/><path d="M405.146,475.886c-1.647,0 -2.956,-0.513 -3.926,-1.538c-0.97,-1.026 -1.455,-2.229 -1.455,-3.609c0,-1.484 0.506,-2.721 1.519,-3.711c1.012,-0.989 2.329,-1.484 3.95,-1.484c1.634,0 2.947,0.488 3.94,1.465c0.993,0.976 1.489,2.2 1.489,3.672c0,1.484 -0.503,2.723 -1.508,3.715c-1.006,0.993 -2.342,1.49 -4.009,1.49Zm0.058,-2.364c0.606,0 0.975,-0.314 1.109,-0.942c0.133,-0.628 0.2,-1.284 0.2,-1.968c0,-0.931 -0.094,-1.601 -0.283,-2.012c-0.189,-0.41 -0.528,-0.615 -1.016,-0.615c-0.449,0 -0.778,0.212 -0.986,0.635c-0.208,0.423 -0.313,1.12 -0.313,2.09c0,1.139 0.108,1.893 0.323,2.261c0.214,0.367 0.537,0.551 0.966,0.551Z" style="fill-rule:nonzero;"/><path d="M431.23,475.681l-3.711,0c-0.091,-0.424 -0.137,-0.886 -0.137,-1.387c-0.703,1.061 -1.768,1.592 -3.193,1.592c-1.172,0 -2.05,-0.3 -2.632,-0.899c-0.583,-0.599 -0.874,-1.286 -0.874,-2.06c0,-1.049 0.477,-1.896 1.43,-2.544c0.954,-0.648 2.645,-1.037 5.074,-1.167l0,-0.225c0,-0.436 -0.1,-0.726 -0.298,-0.869c-0.199,-0.143 -0.49,-0.215 -0.874,-0.215c-0.899,0 -1.4,0.361 -1.504,1.084l-3.555,-0.332c0.508,-2.077 2.236,-3.115 5.186,-3.115c0.8,0 1.536,0.08 2.207,0.239c0.67,0.16 1.201,0.409 1.592,0.747c0.39,0.339 0.652,0.697 0.786,1.074c0.133,0.378 0.2,1.104 0.2,2.178l0,3.965c0,0.755 0.101,1.4 0.303,1.934Zm-4.043,-4.649c-1.661,0.176 -2.491,0.707 -2.491,1.592c0,0.599 0.329,0.898 0.987,0.898c0.416,0 0.771,-0.123 1.064,-0.371c0.293,-0.247 0.44,-0.794 0.44,-1.64l0,-0.479Z" style="fill-rule:nonzero;"/><path d="M435.165,475.681l-2.197,0l0,-13.331l3.838,0l0,4.581c0.534,-0.925 1.383,-1.387 2.549,-1.387c0.82,0 1.517,0.215 2.089,0.644c0.573,0.43 1,1.044 1.28,1.841c0.28,0.798 0.42,1.636 0.42,2.515c0,1.601 -0.358,2.892 -1.075,3.872c-0.716,0.98 -1.783,1.47 -3.203,1.47c-1.399,0 -2.464,-0.524 -3.193,-1.573c-0.208,0.391 -0.378,0.847 -0.508,1.368Zm1.641,-3.702c0,0.977 0.377,1.465 1.133,1.465c0.41,0 0.724,-0.177 0.942,-0.532c0.218,-0.355 0.327,-1.086 0.327,-2.192c0,-1.205 -0.124,-1.962 -0.371,-2.271c-0.247,-0.309 -0.553,-0.464 -0.918,-0.464c-0.286,0 -0.544,0.111 -0.771,0.332c-0.228,0.222 -0.342,0.544 -0.342,0.967l0,2.695Z" style="fill-rule:nonzero;"/><path d="M449.55,475.886c-1.647,0 -2.956,-0.513 -3.926,-1.538c-0.97,-1.026 -1.455,-2.229 -1.455,-3.609c0,-1.484 0.506,-2.721 1.519,-3.711c1.012,-0.989 2.329,-1.484 3.95,-1.484c1.634,0 2.947,0.488 3.94,1.465c0.993,0.976 1.489,2.2 1.489,3.672c0,1.484 -0.502,2.723 -1.508,3.715c-1.006,0.993 -2.342,1.49 -4.009,1.49Zm0.059,-2.364c0.605,0 0.974,-0.314 1.108,-0.942c0.133,-0.628 0.2,-1.284 0.2,-1.968c0,-0.931 -0.094,-1.601 -0.283,-2.012c-0.189,-0.41 -0.527,-0.615 -1.016,-0.615c-0.449,0 -0.778,0.212 -0.986,0.635c-0.208,0.423 -0.313,1.12 -0.313,2.09c0,1.139 0.108,1.893 0.323,2.261c0.215,0.367 0.537,0.551 0.967,0.551Z" style="fill-rule:nonzero;"/><path d="M466.239,465.749l0,9.932l-3.603,0l0,-1.631c-0.527,1.224 -1.556,1.836 -3.086,1.836c-0.944,0 -1.675,-0.262 -2.192,-0.786c-0.518,-0.525 -0.777,-1.275 -0.777,-2.251l0,-7.1l3.897,0l0,6.25c0,0.391 0.053,0.666 0.161,0.825c0.107,0.16 0.317,0.239 0.63,0.239c0.332,0 0.602,-0.118 0.81,-0.356c0.209,-0.238 0.313,-0.571 0.313,-1.001l0,-5.957l3.847,0Z" style="fill-rule:nonzero;"/><path d="M474.423,465.749l0,2.529l-1.982,0l0,3.662c0,0.502 0.094,0.799 0.283,0.894c0.189,0.094 0.384,0.141 0.586,0.141c0.312,0 0.683,-0.055 1.113,-0.166l0,2.774c-0.768,0.15 -1.523,0.225 -2.266,0.225c-1.198,0 -2.078,-0.258 -2.641,-0.772c-0.563,-0.514 -0.845,-1.335 -0.845,-2.461l0.01,-1.162l0,-3.135l-1.485,0l0,-2.529l1.485,0l0.058,-3.232l3.702,-0.059l0,3.291l1.982,0Z" style="fill-rule:nonzero;"/><path d="M499.94,465.749l0,2.529l-1.982,0l0,3.662c0,0.502 0.094,0.799 0.283,0.894c0.189,0.094 0.384,0.141 0.586,0.141c0.312,0 0.683,-0.055 1.113,-0.166l0,2.774c-0.768,0.15 -1.523,0.225 -2.266,0.225c-1.197,0 -2.078,-0.258 -2.641,-0.772c-0.563,-0.514 -0.845,-1.335 -0.845,-2.461l0.01,-1.162l0,-3.135l-1.484,0l0,-2.529l1.484,0l0.058,-3.232l3.702,-0.059l0,3.291l1.982,0Z" style="fill-rule:nonzero;"/><path d="M510.995,475.681l-3.897,0l0,-5.977c0,-0.547 -0.06,-0.923 -0.179,-1.128c-0.12,-0.205 -0.352,-0.308 -0.695,-0.308c-0.266,0 -0.497,0.08 -0.695,0.24c-0.198,0.159 -0.313,0.324 -0.345,0.493c-0.032,0.169 -0.049,0.524 -0.049,1.064l0,5.616l-3.896,0l0,-13.331l3.896,0l0,4.571c0.704,-0.918 1.621,-1.377 2.754,-1.377c0.573,0 1.076,0.099 1.509,0.298c0.433,0.198 0.767,0.454 1.001,0.766c0.234,0.313 0.392,0.616 0.474,0.909c0.081,0.292 0.122,0.859 0.122,1.699l0,6.465Z" style="fill-rule:nonzero;"/><path d="M516.952,461.931l0,3.086l-3.897,0l0,-3.086l3.897,0Zm0,3.818l0,9.932l-3.897,0l0,-9.932l3.897,0Z" style="fill-rule:nonzero;"/><path d="M518.124,472.868l3.076,-0.42c0.176,0.716 0.872,1.074 2.09,1.074c1.009,0 1.513,-0.195 1.513,-0.586c0,-0.169 -0.097,-0.301 -0.293,-0.395c-0.195,-0.094 -0.657,-0.191 -1.386,-0.288c-2.019,-0.28 -3.278,-0.718 -3.78,-1.314c-0.501,-0.596 -0.752,-1.258 -0.752,-1.987c0,-1.016 0.424,-1.838 1.27,-2.466c0.846,-0.628 1.956,-0.942 3.33,-0.942c2.409,0 3.945,0.869 4.609,2.607l-2.949,0.557c-0.273,-0.586 -0.849,-0.879 -1.728,-0.879c-0.417,0 -0.728,0.057 -0.933,0.171c-0.205,0.114 -0.308,0.226 -0.308,0.337c0,0.325 0.313,0.523 0.938,0.594c1.628,0.18 2.732,0.365 3.311,0.554c0.579,0.189 1.074,0.534 1.484,1.036c0.41,0.501 0.615,1.107 0.615,1.817c0,1.088 -0.454,1.951 -1.362,2.59c-0.908,0.638 -2.16,0.958 -3.755,0.958c-2.689,0 -4.352,-1.006 -4.99,-3.018Z" style="fill-rule:nonzero;"/><path d="M552.332,465.749l-3.143,9.932l-2.802,0l-1.301,-5.381l-1.357,5.381l-2.774,0l-3.203,-9.932l3.828,0l1.311,4.863l1.249,-4.863l2.882,0l1.231,4.859l1.375,-4.859l2.704,0Z" style="fill-rule:nonzero;"/><path d="M558.065,475.886c-1.647,0 -2.956,-0.513 -3.926,-1.538c-0.97,-1.026 -1.455,-2.229 -1.455,-3.609c0,-1.484 0.506,-2.721 1.519,-3.711c1.012,-0.989 2.329,-1.484 3.95,-1.484c1.634,0 2.947,0.488 3.94,1.465c0.993,0.976 1.489,2.2 1.489,3.672c0,1.484 -0.503,2.723 -1.508,3.715c-1.006,0.993 -2.342,1.49 -4.009,1.49Zm0.058,-2.364c0.606,0 0.975,-0.314 1.109,-0.942c0.133,-0.628 0.2,-1.284 0.2,-1.968c0,-0.931 -0.094,-1.601 -0.283,-2.012c-0.189,-0.41 -0.528,-0.615 -1.016,-0.615c-0.449,0 -0.778,0.212 -0.986,0.635c-0.208,0.423 -0.313,1.12 -0.313,2.09c0,1.139 0.108,1.893 0.323,2.261c0.214,0.367 0.537,0.551 0.966,0.551Z" style="fill-rule:nonzero;"/><path d="M568.827,475.681l-3.731,0l0,-9.932l3.242,0l0,2.051c0.371,-1.491 1.234,-2.237 2.588,-2.237c0.137,0 0.326,0.013 0.567,0.039l0,3.467c-0.274,-0.065 -0.518,-0.097 -0.733,-0.097c-1.289,0 -1.933,0.719 -1.933,2.158l0,4.551Z" style="fill-rule:nonzero;"/><path d="M582.987,465.749l-3.002,3.412l3.344,6.52l-4.028,0l-1.864,-3.977l-1.062,1.242l0,2.735l-3.652,0l0,-13.331l3.652,0l0,5.381c0,0.15 -0.009,0.749 -0.029,1.797c0.235,-0.332 0.473,-0.635 0.714,-0.908l2.492,-2.871l3.435,0Z" style="fill-rule:nonzero;"/><rect x="584.403" y="472.116" width="3.711" height="3.564" style="fill-rule:nonzero;"/><path d="M222.647,487.544l0,10.137l-3.877,0l0,-10.137l-2.764,0l0,-3.194l9.404,0l0,3.194l-2.763,0Z" style="fill-rule:nonzero;"/><path d="M232.197,494.116l3.633,0.244c-0.215,0.977 -0.763,1.809 -1.645,2.495c-0.883,0.687 -2.076,1.031 -3.579,1.031c-1.674,0 -3.008,-0.484 -4.004,-1.451c-0.996,-0.966 -1.495,-2.166 -1.495,-3.598c0,-1.485 0.492,-2.738 1.475,-3.76c0.983,-1.022 2.295,-1.533 3.936,-1.533c1.588,0 2.872,0.482 3.852,1.445c0.98,0.964 1.47,2.276 1.47,3.936c0,0.136 -0.003,0.325 -0.01,0.566l-6.65,0c0.013,0.625 0.123,1.089 0.332,1.392c0.208,0.302 0.605,0.454 1.191,0.454c0.847,0 1.345,-0.407 1.494,-1.221Zm-0.263,-2.578c-0.007,-0.671 -0.141,-1.121 -0.404,-1.353c-0.263,-0.231 -0.589,-0.346 -0.978,-0.346c-0.921,0 -1.382,0.566 -1.382,1.699l2.764,0Z" style="fill-rule:nonzero;"/><path d="M247.227,497.681l-4.39,0l-1.822,-3.173l-1.95,3.173l-3.167,0l3.488,-5.266l-3.058,-4.666l4.331,0l1.025,1.852c0.046,0.084 0.101,0.182 0.166,0.292c0.033,0.052 0.078,0.137 0.137,0.254c0.072,-0.111 0.16,-0.26 0.264,-0.449c0.013,-0.032 0.049,-0.101 0.108,-0.205l1.017,-1.744l3.216,0l-2.91,4.518l3.545,5.414Z" style="fill-rule:nonzero;"/><path d="M254.258,487.749l0,2.529l-1.983,0l0,3.662c0,0.502 0.095,0.799 0.284,0.894c0.188,0.094 0.384,0.141 0.586,0.141c0.312,0 0.683,-0.055 1.113,-0.166l0,2.774c-0.768,0.15 -1.524,0.225 -2.266,0.225c-1.198,0 -2.078,-0.258 -2.641,-0.772c-0.564,-0.514 -0.845,-1.335 -0.845,-2.461l0.01,-1.162l0,-3.135l-1.485,0l0,-2.529l1.485,0l0.058,-3.232l3.701,-0.059l0,3.291l1.983,0Z" style="fill-rule:nonzero;"/><path d="M279.494,487.749l-3.143,9.932l-2.802,0l-1.301,-5.381l-1.357,5.381l-2.774,0l-3.203,-9.932l3.828,0l1.311,4.863l1.249,-4.863l2.882,0l1.231,4.859l1.375,-4.859l2.704,0Z" style="fill-rule:nonzero;"/><path d="M285.227,497.886c-1.647,0 -2.956,-0.513 -3.926,-1.538c-0.97,-1.026 -1.455,-2.229 -1.455,-3.609c0,-1.484 0.506,-2.721 1.519,-3.711c1.012,-0.989 2.329,-1.484 3.95,-1.484c1.634,0 2.947,0.488 3.94,1.465c0.993,0.976 1.489,2.2 1.489,3.672c0,1.484 -0.502,2.723 -1.508,3.715c-1.006,0.993 -2.342,1.49 -4.009,1.49Zm0.058,-2.364c0.606,0 0.975,-0.314 1.109,-0.942c0.133,-0.628 0.2,-1.284 0.2,-1.968c0,-0.931 -0.094,-1.601 -0.283,-2.012c-0.189,-0.41 -0.527,-0.615 -1.016,-0.615c-0.449,0 -0.778,0.212 -0.986,0.635c-0.208,0.423 -0.313,1.12 -0.313,2.09c0,1.139 0.108,1.893 0.323,2.261c0.215,0.367 0.537,0.551 0.966,0.551Z" style="fill-rule:nonzero;"/><path d="M301.916,487.749l0,9.932l-3.603,0l0,-1.631c-0.528,1.224 -1.556,1.836 -3.086,1.836c-0.944,0 -1.675,-0.262 -2.192,-0.786c-0.518,-0.525 -0.777,-1.275 -0.777,-2.251l0,-7.1l3.897,0l0,6.25c0,0.391 0.053,0.666 0.161,0.825c0.107,0.16 0.317,0.239 0.63,0.239c0.332,0 0.602,-0.118 0.81,-0.356c0.209,-0.238 0.313,-0.571 0.313,-1.001l0,-5.957l3.847,0Z" style="fill-rule:nonzero;"/><rect x="303.967" y="484.35" width="3.838" height="13.33" style="fill-rule:nonzero;"/><path d="M319.553,497.681l-3.652,0l0,-1.319c-0.541,1.016 -1.433,1.524 -2.676,1.524c-1.146,0 -2.075,-0.448 -2.788,-1.343c-0.713,-0.895 -1.069,-2.196 -1.069,-3.901c0,-1.596 0.358,-2.862 1.074,-3.799c0.716,-0.938 1.663,-1.407 2.842,-1.407c0.983,0 1.793,0.375 2.431,1.123l0,-4.209l3.838,0l0,13.331Zm-3.838,-6.387c0,-0.892 -0.368,-1.338 -1.103,-1.338c-0.515,0 -0.852,0.283 -1.011,0.85c-0.16,0.566 -0.239,1.259 -0.239,2.08c0,1.608 0.41,2.412 1.23,2.412c0.313,0 0.578,-0.127 0.796,-0.381c0.218,-0.254 0.327,-0.641 0.327,-1.162l0,-2.461Z" style="fill-rule:nonzero;"/><path d="M334.067,497.681l-2.197,0l0,-13.331l3.838,0l0,4.581c0.534,-0.925 1.383,-1.387 2.548,-1.387c0.821,0 1.517,0.215 2.09,0.644c0.573,0.43 1,1.044 1.28,1.841c0.28,0.798 0.42,1.636 0.42,2.515c0,1.601 -0.359,2.892 -1.075,3.872c-0.716,0.98 -1.784,1.47 -3.203,1.47c-1.4,0 -2.464,-0.524 -3.193,-1.573c-0.208,0.391 -0.378,0.847 -0.508,1.368Zm1.641,-3.702c0,0.977 0.377,1.465 1.132,1.465c0.411,0 0.725,-0.177 0.943,-0.532c0.218,-0.355 0.327,-1.086 0.327,-2.192c0,-1.205 -0.124,-1.962 -0.371,-2.271c-0.247,-0.309 -0.553,-0.464 -0.918,-0.464c-0.287,0 -0.544,0.111 -0.772,0.332c-0.227,0.222 -0.341,0.544 -0.341,0.967l0,2.695Z" style="fill-rule:nonzero;"/><path d="M350.161,494.116l3.633,0.244c-0.215,0.977 -0.764,1.809 -1.646,2.495c-0.882,0.687 -2.075,1.031 -3.579,1.031c-1.673,0 -3.008,-0.484 -4.004,-1.451c-0.996,-0.966 -1.494,-2.166 -1.494,-3.598c0,-1.485 0.491,-2.738 1.475,-3.76c0.983,-1.022 2.294,-1.533 3.935,-1.533c1.589,0 2.873,0.482 3.853,1.445c0.979,0.964 1.469,2.276 1.469,3.936c0,0.136 -0.003,0.325 -0.009,0.566l-6.651,0c0.013,0.625 0.124,1.089 0.332,1.392c0.209,0.302 0.606,0.454 1.192,0.454c0.846,0 1.344,-0.407 1.494,-1.221Zm-0.264,-2.578c-0.006,-0.671 -0.141,-1.121 -0.404,-1.353c-0.263,-0.231 -0.589,-0.346 -0.978,-0.346c-0.921,0 -1.382,0.566 -1.382,1.699l2.764,0Z" style="fill-rule:nonzero;"/><path d="M379.265,487.749l-3.144,9.932l-2.802,0l-1.301,-5.381l-1.357,5.381l-2.774,0l-3.202,-9.932l3.827,0l1.311,4.863l1.249,-4.863l2.882,0l1.232,4.859l1.374,-4.859l2.705,0Z" style="fill-rule:nonzero;"/><path d="M384.157,497.681l-3.73,0l0,-9.932l3.242,0l0,2.051c0.371,-1.491 1.234,-2.237 2.588,-2.237c0.136,0 0.325,0.013 0.566,0.039l0,3.467c-0.273,-0.065 -0.517,-0.097 -0.732,-0.097c-1.289,0 -1.934,0.719 -1.934,2.158l0,4.551Z" style="fill-rule:nonzero;"/><path d="M391.95,483.931l0,3.086l-3.896,0l0,-3.086l3.896,0Zm0,3.818l0,9.932l-3.896,0l0,-9.932l3.896,0Z" style="fill-rule:nonzero;"/><path d="M400.134,487.749l0,2.529l-1.983,0l0,3.662c0,0.502 0.095,0.799 0.284,0.894c0.188,0.094 0.384,0.141 0.585,0.141c0.313,0 0.684,-0.055 1.114,-0.166l0,2.774c-0.769,0.15 -1.524,0.225 -2.266,0.225c-1.198,0 -2.078,-0.258 -2.642,-0.772c-0.563,-0.514 -0.844,-1.335 -0.844,-2.461l0.01,-1.162l0,-3.135l-1.485,0l0,-2.529l1.485,0l0.058,-3.232l3.701,-0.059l0,3.291l1.983,0Z" style="fill-rule:nonzero;"/><path d="M407.565,487.749l0,2.529l-1.982,0l0,3.662c0,0.502 0.094,0.799 0.283,0.894c0.189,0.094 0.384,0.141 0.586,0.141c0.313,0 0.684,-0.055 1.113,-0.166l0,2.774c-0.768,0.15 -1.523,0.225 -2.265,0.225c-1.198,0 -2.079,-0.258 -2.642,-0.772c-0.563,-0.514 -0.845,-1.335 -0.845,-2.461l0.01,-1.162l0,-3.135l-1.484,0l0,-2.529l1.484,0l0.059,-3.232l3.701,-0.059l0,3.291l1.982,0Z" style="fill-rule:nonzero;"/><path d="M415.427,494.116l3.633,0.244c-0.215,0.977 -0.764,1.809 -1.646,2.495c-0.882,0.687 -2.075,1.031 -3.579,1.031c-1.673,0 -3.008,-0.484 -4.004,-1.451c-0.996,-0.966 -1.494,-2.166 -1.494,-3.598c0,-1.485 0.491,-2.738 1.474,-3.76c0.984,-1.022 2.295,-1.533 3.936,-1.533c1.589,0 2.873,0.482 3.853,1.445c0.979,0.964 1.469,2.276 1.469,3.936c0,0.136 -0.003,0.325 -0.009,0.566l-6.651,0c0.013,0.625 0.124,1.089 0.332,1.392c0.208,0.302 0.606,0.454 1.192,0.454c0.846,0 1.344,-0.407 1.494,-1.221Zm-0.264,-2.578c-0.006,-0.671 -0.141,-1.121 -0.404,-1.353c-0.263,-0.231 -0.589,-0.346 -0.978,-0.346c-0.921,0 -1.382,0.566 -1.382,1.699l2.764,0Z" style="fill-rule:nonzero;"/><path d="M430.29,497.681l-3.897,0l0,-6.25c0,-0.515 -0.079,-0.844 -0.239,-0.987c-0.159,-0.143 -0.359,-0.215 -0.6,-0.215c-0.71,0 -1.065,0.495 -1.065,1.485l0,5.967l-3.896,0l0,-9.932l3.613,0l0,1.406c0.534,-1.074 1.488,-1.611 2.861,-1.611c0.723,0 1.333,0.138 1.831,0.415c0.498,0.277 0.855,0.635 1.07,1.074c0.215,0.44 0.322,1.203 0.322,2.29l0,6.358Z" style="fill-rule:nonzero;"/><path d="M446.484,483.931l0,3.086l-3.897,0l0,-3.086l3.897,0Zm0,3.818l0,9.932l-3.897,0l0,-9.932l3.897,0Z" style="fill-rule:nonzero;"/><path d="M458.232,497.681l-3.897,0l0,-6.25c0,-0.515 -0.08,-0.844 -0.239,-0.987c-0.16,-0.143 -0.36,-0.215 -0.601,-0.215c-0.709,0 -1.064,0.495 -1.064,1.485l0,5.967l-3.897,0l0,-9.932l3.614,0l0,1.406c0.534,-1.074 1.487,-1.611 2.861,-1.611c0.723,0 1.333,0.138 1.831,0.415c0.498,0.277 0.855,0.635 1.069,1.074c0.215,0.44 0.323,1.203 0.323,2.29l0,6.358Z" style="fill-rule:nonzero;"/><path d="M480.539,497.681l-3.711,0c-0.091,-0.424 -0.137,-0.886 -0.137,-1.387c-0.703,1.061 -1.768,1.592 -3.193,1.592c-1.172,0 -2.05,-0.3 -2.632,-0.899c-0.583,-0.599 -0.874,-1.286 -0.874,-2.06c0,-1.049 0.477,-1.896 1.43,-2.544c0.954,-0.648 2.645,-1.037 5.074,-1.167l0,-0.225c0,-0.436 -0.1,-0.726 -0.298,-0.869c-0.199,-0.143 -0.49,-0.215 -0.874,-0.215c-0.899,0 -1.4,0.361 -1.504,1.084l-3.555,-0.332c0.508,-2.077 2.236,-3.115 5.186,-3.115c0.8,0 1.536,0.08 2.207,0.239c0.67,0.16 1.201,0.409 1.592,0.747c0.39,0.339 0.652,0.697 0.786,1.074c0.133,0.378 0.2,1.104 0.2,2.178l0,3.965c0,0.755 0.101,1.4 0.303,1.934Zm-4.043,-4.649c-1.661,0.176 -2.491,0.707 -2.491,1.592c0,0.599 0.329,0.898 0.987,0.898c0.416,0 0.771,-0.123 1.064,-0.371c0.293,-0.247 0.44,-0.794 0.44,-1.64l0,-0.479Z" style="fill-rule:nonzero;"/><path d="M506.195,487.749l-3.143,9.932l-2.803,0l-1.3,-5.381l-1.358,5.381l-2.773,0l-3.203,-9.932l3.828,0l1.311,4.863l1.249,-4.863l2.882,0l1.231,4.859l1.375,-4.859l2.704,0Z" style="fill-rule:nonzero;"/><path d="M517.064,497.681l-3.711,0c-0.091,-0.424 -0.136,-0.886 -0.136,-1.387c-0.704,1.061 -1.768,1.592 -3.194,1.592c-1.172,0 -2.049,-0.3 -2.632,-0.899c-0.582,-0.599 -0.874,-1.286 -0.874,-2.06c0,-1.049 0.477,-1.896 1.431,-2.544c0.954,-0.648 2.645,-1.037 5.073,-1.167l0,-0.225c0,-0.436 -0.099,-0.726 -0.298,-0.869c-0.198,-0.143 -0.489,-0.215 -0.874,-0.215c-0.898,0 -1.399,0.361 -1.503,1.084l-3.555,-0.332c0.508,-2.077 2.236,-3.115 5.185,-3.115c0.801,0 1.537,0.08 2.207,0.239c0.671,0.16 1.202,0.409 1.592,0.747c0.391,0.339 0.653,0.697 0.786,1.074c0.134,0.378 0.201,1.104 0.201,2.178l0,3.965c0,0.755 0.1,1.4 0.302,1.934Zm-4.043,-4.649c-1.66,0.176 -2.49,0.707 -2.49,1.592c0,0.599 0.329,0.898 0.986,0.898c0.417,0 0.772,-0.123 1.065,-0.371c0.293,-0.247 0.439,-0.794 0.439,-1.64l0,-0.479Z" style="fill-rule:nonzero;"/><path d="M527.797,487.749l-3.897,10.762c-0.299,0.813 -0.729,1.45 -1.289,1.909c-0.56,0.459 -1.422,0.688 -2.588,0.688c-0.28,0 -0.931,-0.029 -1.953,-0.088l0,-2.763c0.508,0.078 0.977,0.117 1.406,0.117c1.12,0 1.68,-0.247 1.68,-0.742c0,-0.163 -0.055,-0.388 -0.166,-0.674l-3.564,-9.209l4.167,0l1.643,5.3l1.714,-5.3l2.847,0Z" style="fill-rule:nonzero;"/><path d="M531.762,494.136l0,3.271l-2.139,3.701l-1.533,0l1.533,-3.427l-1.572,0l0,-3.545l3.711,0Z" style="fill-rule:nonzero;"/><path d="M543.053,494.868l3.076,-0.42c0.176,0.716 0.872,1.074 2.09,1.074c1.009,0 1.514,-0.195 1.514,-0.586c0,-0.169 -0.098,-0.301 -0.293,-0.395c-0.196,-0.094 -0.658,-0.191 -1.387,-0.288c-2.018,-0.28 -3.278,-0.718 -3.779,-1.314c-0.502,-0.596 -0.752,-1.258 -0.752,-1.987c0,-1.016 0.423,-1.838 1.269,-2.466c0.846,-0.628 1.956,-0.942 3.33,-0.942c2.409,0 3.946,0.869 4.61,2.607l-2.95,0.557c-0.273,-0.586 -0.849,-0.879 -1.728,-0.879c-0.417,0 -0.728,0.057 -0.933,0.171c-0.205,0.114 -0.307,0.226 -0.307,0.337c0,0.325 0.312,0.523 0.937,0.594c1.628,0.18 2.732,0.365 3.311,0.554c0.579,0.189 1.074,0.534 1.484,1.036c0.41,0.501 0.615,1.107 0.615,1.817c0,1.088 -0.454,1.951 -1.362,2.59c-0.908,0.638 -2.16,0.958 -3.755,0.958c-2.689,0 -4.352,-1.006 -4.99,-3.018Z" style="fill-rule:nonzero;"/><path d="M559.381,497.886c-1.647,0 -2.956,-0.513 -3.926,-1.538c-0.97,-1.026 -1.455,-2.229 -1.455,-3.609c0,-1.484 0.506,-2.721 1.519,-3.711c1.012,-0.989 2.329,-1.484 3.95,-1.484c1.634,0 2.947,0.488 3.94,1.465c0.993,0.976 1.49,2.2 1.49,3.672c0,1.484 -0.503,2.723 -1.509,3.715c-1.006,0.993 -2.342,1.49 -4.009,1.49Zm0.059,-2.364c0.605,0 0.974,-0.314 1.108,-0.942c0.133,-0.628 0.2,-1.284 0.2,-1.968c0,-0.931 -0.094,-1.601 -0.283,-2.012c-0.189,-0.41 -0.527,-0.615 -1.016,-0.615c-0.449,0 -0.778,0.212 -0.986,0.635c-0.208,0.423 -0.313,1.12 -0.313,2.09c0,1.139 0.108,1.893 0.323,2.261c0.215,0.367 0.537,0.551 0.967,0.551Z" style="fill-rule:nonzero;"/><path d="M580.555,483.931l0,3.086l-3.896,0l0,-3.086l3.896,0Zm0,3.818l0,9.932l-3.896,0l0,-9.932l3.896,0Z" style="fill-rule:nonzero;"/><path d="M588.739,487.749l0,2.529l-1.983,0l0,3.662c0,0.502 0.095,0.799 0.283,0.894c0.189,0.094 0.385,0.141 0.586,0.141c0.313,0 0.684,-0.055 1.114,-0.166l0,2.774c-0.769,0.15 -1.524,0.225 -2.266,0.225c-1.198,0 -2.078,-0.258 -2.642,-0.772c-0.563,-0.514 -0.844,-1.335 -0.844,-2.461l0.009,-1.162l0,-3.135l-1.484,0l0,-2.529l1.484,0l0.059,-3.232l3.701,-0.059l0,3.291l1.983,0Z" style="fill-rule:nonzero;"/><path d="M230.723,509.749l-3.143,9.932l-2.803,0l-1.3,-5.381l-1.358,5.381l-2.773,0l-3.203,-9.932l3.827,0l1.311,4.863l1.249,-4.863l2.882,0l1.232,4.859l1.375,-4.859l2.704,0Z" style="fill-rule:nonzero;"/><path d="M236.455,519.886c-1.647,0 -2.956,-0.513 -3.926,-1.538c-0.97,-1.026 -1.455,-2.229 -1.455,-3.609c0,-1.484 0.506,-2.721 1.519,-3.711c1.012,-0.989 2.329,-1.484 3.95,-1.484c1.634,0 2.948,0.488 3.94,1.465c0.993,0.976 1.49,2.2 1.49,3.672c0,1.484 -0.503,2.723 -1.509,3.715c-1.006,0.993 -2.342,1.49 -4.009,1.49Zm0.059,-2.364c0.605,0 0.975,-0.314 1.108,-0.942c0.134,-0.628 0.2,-1.284 0.2,-1.968c0,-0.931 -0.094,-1.601 -0.283,-2.012c-0.189,-0.41 -0.527,-0.615 -1.016,-0.615c-0.449,0 -0.778,0.212 -0.986,0.635c-0.208,0.423 -0.312,1.12 -0.312,2.09c0,1.139 0.107,1.893 0.322,2.261c0.215,0.367 0.537,0.551 0.967,0.551Z" style="fill-rule:nonzero;"/><path d="M253.145,509.749l0,9.932l-3.604,0l0,-1.631c-0.527,1.224 -1.556,1.836 -3.086,1.836c-0.944,0 -1.675,-0.262 -2.192,-0.786c-0.518,-0.525 -0.777,-1.275 -0.777,-2.251l0,-7.1l3.897,0l0,6.25c0,0.391 0.054,0.666 0.161,0.825c0.107,0.16 0.317,0.239 0.63,0.239c0.332,0 0.602,-0.118 0.81,-0.356c0.209,-0.238 0.313,-0.571 0.313,-1.001l0,-5.957l3.848,0Z" style="fill-rule:nonzero;"/><rect x="255.195" y="506.35" width="3.838" height="13.33" style="fill-rule:nonzero;"/><path d="M270.781,519.681l-3.652,0l0,-1.319c-0.54,1.016 -1.432,1.524 -2.676,1.524c-1.146,0 -2.075,-0.448 -2.788,-1.343c-0.713,-0.895 -1.069,-2.196 -1.069,-3.901c0,-1.596 0.358,-2.862 1.074,-3.799c0.716,-0.938 1.663,-1.407 2.842,-1.407c0.983,0 1.793,0.375 2.431,1.123l0,-4.209l3.838,0l0,13.331Zm-3.838,-6.387c0,-0.892 -0.367,-1.338 -1.103,-1.338c-0.514,0 -0.851,0.283 -1.011,0.85c-0.159,0.566 -0.239,1.259 -0.239,2.08c0,1.608 0.41,2.412 1.23,2.412c0.313,0 0.578,-0.127 0.796,-0.381c0.218,-0.254 0.327,-0.641 0.327,-1.162l0,-2.461Z" style="fill-rule:nonzero;"/><path d="M279.968,519.681l-2.197,0l0,-13.331l3.838,0l0,4.581c0.534,-0.925 1.384,-1.387 2.549,-1.387c0.82,0 1.517,0.215 2.09,0.644c0.573,0.43 0.999,1.044 1.279,1.841c0.28,0.798 0.42,1.636 0.42,2.515c0,1.601 -0.358,2.892 -1.074,3.872c-0.716,0.98 -1.784,1.47 -3.203,1.47c-1.4,0 -2.465,-0.524 -3.194,-1.573c-0.208,0.391 -0.377,0.847 -0.508,1.368Zm1.641,-3.702c0,0.977 0.378,1.465 1.133,1.465c0.41,0 0.724,-0.177 0.942,-0.532c0.218,-0.355 0.327,-1.086 0.327,-2.192c0,-1.205 -0.123,-1.962 -0.371,-2.271c-0.247,-0.309 -0.553,-0.464 -0.918,-0.464c-0.286,0 -0.543,0.111 -0.771,0.332c-0.228,0.222 -0.342,0.544 -0.342,0.967l0,2.695Z" style="fill-rule:nonzero;"/><path d="M296.062,516.116l3.633,0.244c-0.215,0.977 -0.763,1.809 -1.645,2.495c-0.883,0.687 -2.076,1.031 -3.58,1.031c-1.673,0 -3.007,-0.484 -4.003,-1.451c-0.997,-0.966 -1.495,-2.166 -1.495,-3.598c0,-1.485 0.492,-2.738 1.475,-3.76c0.983,-1.022 2.295,-1.533 3.936,-1.533c1.588,0 2.872,0.482 3.852,1.445c0.98,0.964 1.47,2.276 1.47,3.936c0,0.136 -0.003,0.325 -0.01,0.566l-6.65,0c0.013,0.625 0.123,1.089 0.332,1.392c0.208,0.302 0.605,0.454 1.191,0.454c0.846,0 1.344,-0.407 1.494,-1.221Zm-0.263,-2.578c-0.007,-0.671 -0.142,-1.121 -0.404,-1.353c-0.263,-0.231 -0.589,-0.346 -0.978,-0.346c-0.922,0 -1.382,0.566 -1.382,1.699l2.764,0Z" style="fill-rule:nonzero;"/><path d="M309.878,519.681l-3.73,0l0,-9.932l3.242,0l0,2.051c0.371,-1.491 1.234,-2.237 2.588,-2.237c0.137,0 0.325,0.013 0.566,0.039l0,3.467c-0.273,-0.065 -0.517,-0.097 -0.732,-0.097c-1.289,0 -1.934,0.719 -1.934,2.158l0,4.551Z" style="fill-rule:nonzero;"/><path d="M320.337,516.116l3.633,0.244c-0.215,0.977 -0.763,1.809 -1.645,2.495c-0.883,0.687 -2.076,1.031 -3.58,1.031c-1.673,0 -3.007,-0.484 -4.003,-1.451c-0.997,-0.966 -1.495,-2.166 -1.495,-3.598c0,-1.485 0.492,-2.738 1.475,-3.76c0.983,-1.022 2.295,-1.533 3.936,-1.533c1.588,0 2.872,0.482 3.852,1.445c0.98,0.964 1.47,2.276 1.47,3.936c0,0.136 -0.003,0.325 -0.01,0.566l-6.65,0c0.013,0.625 0.123,1.089 0.332,1.392c0.208,0.302 0.605,0.454 1.191,0.454c0.847,0 1.345,-0.407 1.494,-1.221Zm-0.263,-2.578c-0.007,-0.671 -0.142,-1.121 -0.404,-1.353c-0.263,-0.231 -0.589,-0.346 -0.978,-0.346c-0.921,0 -1.382,0.566 -1.382,1.699l2.764,0Z" style="fill-rule:nonzero;"/><path d="M335.513,519.681l-3.711,0c-0.091,-0.424 -0.137,-0.886 -0.137,-1.387c-0.703,1.061 -1.767,1.592 -3.193,1.592c-1.172,0 -2.049,-0.3 -2.632,-0.899c-0.582,-0.599 -0.874,-1.286 -0.874,-2.06c0,-1.049 0.477,-1.896 1.431,-2.544c0.954,-0.648 2.645,-1.037 5.073,-1.167l0,-0.225c0,-0.436 -0.099,-0.726 -0.298,-0.869c-0.198,-0.143 -0.49,-0.215 -0.874,-0.215c-0.898,0 -1.4,0.361 -1.504,1.084l-3.554,-0.332c0.507,-2.077 2.236,-3.115 5.185,-3.115c0.801,0 1.537,0.08 2.207,0.239c0.671,0.16 1.201,0.409 1.592,0.747c0.391,0.339 0.653,0.697 0.786,1.074c0.134,0.378 0.2,1.104 0.2,2.178l0,3.965c0,0.755 0.101,1.4 0.303,1.934Zm-4.043,-4.649c-1.66,0.176 -2.49,0.707 -2.49,1.592c0,0.599 0.329,0.898 0.986,0.898c0.417,0 0.772,-0.123 1.065,-0.371c0.293,-0.247 0.439,-0.794 0.439,-1.64l0,-0.479Z" style="fill-rule:nonzero;"/><path d="M346.929,519.681l-3.652,0l0,-1.319c-0.541,1.016 -1.433,1.524 -2.676,1.524c-1.146,0 -2.075,-0.448 -2.788,-1.343c-0.713,-0.895 -1.069,-2.196 -1.069,-3.901c0,-1.596 0.358,-2.862 1.074,-3.799c0.716,-0.938 1.663,-1.407 2.842,-1.407c0.983,0 1.793,0.375 2.431,1.123l0,-4.209l3.838,0l0,13.331Zm-3.838,-6.387c0,-0.892 -0.368,-1.338 -1.103,-1.338c-0.515,0 -0.852,0.283 -1.011,0.85c-0.16,0.566 -0.239,1.259 -0.239,2.08c0,1.608 0.41,2.412 1.23,2.412c0.313,0 0.578,-0.127 0.796,-0.381c0.218,-0.254 0.327,-0.641 0.327,-1.162l0,-2.461Z" style="fill-rule:nonzero;"/><path d="M358.99,519.681l-3.711,0c-0.091,-0.424 -0.137,-0.886 -0.137,-1.387c-0.703,1.061 -1.768,1.592 -3.193,1.592c-1.172,0 -2.05,-0.3 -2.632,-0.899c-0.583,-0.599 -0.874,-1.286 -0.874,-2.06c0,-1.049 0.477,-1.896 1.43,-2.544c0.954,-0.648 2.645,-1.037 5.074,-1.167l0,-0.225c0,-0.436 -0.1,-0.726 -0.298,-0.869c-0.199,-0.143 -0.49,-0.215 -0.874,-0.215c-0.899,0 -1.4,0.361 -1.504,1.084l-3.555,-0.332c0.508,-2.077 2.237,-3.115 5.186,-3.115c0.801,0 1.536,0.08 2.207,0.239c0.67,0.16 1.201,0.409 1.592,0.747c0.39,0.339 0.652,0.697 0.786,1.074c0.133,0.378 0.2,1.104 0.2,2.178l0,3.965c0,0.755 0.101,1.4 0.303,1.934Zm-4.043,-4.649c-1.66,0.176 -2.491,0.707 -2.491,1.592c0,0.599 0.329,0.898 0.987,0.898c0.416,0 0.771,-0.123 1.064,-0.371c0.293,-0.247 0.44,-0.794 0.44,-1.64l0,-0.479Z" style="fill-rule:nonzero;"/><path d="M362.925,519.681l-2.197,0l0,-13.331l3.838,0l0,4.581c0.534,-0.925 1.383,-1.387 2.549,-1.387c0.82,0 1.517,0.215 2.089,0.644c0.573,0.43 1,1.044 1.28,1.841c0.28,0.798 0.42,1.636 0.42,2.515c0,1.601 -0.358,2.892 -1.075,3.872c-0.716,0.98 -1.783,1.47 -3.203,1.47c-1.399,0 -2.464,-0.524 -3.193,-1.573c-0.208,0.391 -0.378,0.847 -0.508,1.368Zm1.641,-3.702c0,0.977 0.377,1.465 1.133,1.465c0.41,0 0.724,-0.177 0.942,-0.532c0.218,-0.355 0.327,-1.086 0.327,-2.192c0,-1.205 -0.124,-1.962 -0.371,-2.271c-0.247,-0.309 -0.553,-0.464 -0.918,-0.464c-0.286,0 -0.544,0.111 -0.771,0.332c-0.228,0.222 -0.342,0.544 -0.342,0.967l0,2.695Z" style="fill-rule:nonzero;"/><rect x="372.456" y="506.35" width="3.838" height="13.33" style="fill-rule:nonzero;"/><path d="M384.908,516.116l3.632,0.244c-0.214,0.977 -0.763,1.809 -1.645,2.495c-0.882,0.687 -2.075,1.031 -3.579,1.031c-1.673,0 -3.008,-0.484 -4.004,-1.451c-0.996,-0.966 -1.494,-2.166 -1.494,-3.598c0,-1.485 0.491,-2.738 1.474,-3.76c0.983,-1.022 2.295,-1.533 3.936,-1.533c1.588,0 2.873,0.482 3.852,1.445c0.98,0.964 1.47,2.276 1.47,3.936c0,0.136 -0.003,0.325 -0.01,0.566l-6.65,0c0.013,0.625 0.124,1.089 0.332,1.392c0.208,0.302 0.606,0.454 1.191,0.454c0.847,0 1.345,-0.407 1.495,-1.221Zm-0.264,-2.578c-0.007,-0.671 -0.141,-1.121 -0.404,-1.353c-0.263,-0.231 -0.589,-0.346 -0.978,-0.346c-0.921,0 -1.382,0.566 -1.382,1.699l2.764,0Z" style="fill-rule:nonzero;"/><path d="M408.685,509.749l-3.144,9.932l-2.802,0l-1.3,-5.381l-1.358,5.381l-2.773,0l-3.203,-9.932l3.827,0l1.311,4.863l1.249,-4.863l2.882,0l1.232,4.859l1.374,-4.859l2.705,0Z" style="fill-rule:nonzero;"/><path d="M413.743,505.931l0,3.086l-3.896,0l0,-3.086l3.896,0Zm0,3.818l0,9.932l-3.896,0l0,-9.932l3.896,0Z" style="fill-rule:nonzero;"/><path d="M421.927,509.749l0,2.529l-1.983,0l0,3.662c0,0.502 0.095,0.799 0.284,0.894c0.188,0.094 0.384,0.141 0.586,0.141c0.312,0 0.683,-0.055 1.113,-0.166l0,2.774c-0.768,0.15 -1.524,0.225 -2.266,0.225c-1.198,0 -2.078,-0.258 -2.641,-0.772c-0.564,-0.514 -0.845,-1.335 -0.845,-2.461l0.01,-1.162l0,-3.135l-1.485,0l0,-2.529l1.485,0l0.058,-3.232l3.701,-0.059l0,3.291l1.983,0Z" style="fill-rule:nonzero;"/><path d="M432.982,519.681l-3.897,0l0,-5.977c0,-0.547 -0.06,-0.923 -0.18,-1.128c-0.12,-0.205 -0.351,-0.308 -0.694,-0.308c-0.266,0 -0.498,0.08 -0.695,0.24c-0.198,0.159 -0.313,0.324 -0.345,0.493c-0.033,0.169 -0.049,0.524 -0.049,1.064l0,5.616l-3.896,0l0,-13.331l3.896,0l0,4.571c0.703,-0.918 1.621,-1.377 2.754,-1.377c0.573,0 1.076,0.099 1.509,0.298c0.433,0.198 0.766,0.454 1.001,0.766c0.234,0.313 0.392,0.616 0.473,0.909c0.082,0.292 0.123,0.859 0.123,1.699l0,6.465Z" style="fill-rule:nonzero;"/><path d="M443.868,505.95l0,3.067l-3.897,0l0,-3.067l3.897,0Zm0,3.799l0,9.346c0,0.944 -0.083,1.676 -0.25,2.197c-0.166,0.521 -0.536,0.96 -1.11,1.318c-0.574,0.358 -1.386,0.537 -2.436,0.537c-0.684,0 -1.346,-0.061 -1.985,-0.185l0,-2.842c0.286,0.124 0.573,0.186 0.859,0.186c0.684,0 1.025,-0.404 1.025,-1.211l0,-9.346l3.897,0Z" style="fill-rule:nonzero;"/><path d="M455.567,509.749l0,9.932l-3.603,0l0,-1.631c-0.528,1.224 -1.556,1.836 -3.086,1.836c-0.944,0 -1.675,-0.262 -2.193,-0.786c-0.517,-0.525 -0.776,-1.275 -0.776,-2.251l0,-7.1l3.896,0l0,6.25c0,0.391 0.054,0.666 0.162,0.825c0.107,0.16 0.317,0.239 0.629,0.239c0.332,0 0.603,-0.118 0.811,-0.356c0.208,-0.238 0.312,-0.571 0.312,-1.001l0,-5.957l3.848,0Z" style="fill-rule:nonzero;"/><path d="M456.739,516.868l3.076,-0.42c0.176,0.716 0.873,1.074 2.09,1.074c1.009,0 1.514,-0.195 1.514,-0.586c0,-0.169 -0.098,-0.301 -0.293,-0.395c-0.196,-0.094 -0.658,-0.191 -1.387,-0.288c-2.018,-0.28 -3.278,-0.718 -3.779,-1.314c-0.502,-0.596 -0.752,-1.258 -0.752,-1.987c0,-1.016 0.423,-1.838 1.269,-2.466c0.847,-0.628 1.957,-0.942 3.33,-0.942c2.409,0 3.946,0.869 4.61,2.607l-2.949,0.557c-0.274,-0.586 -0.85,-0.879 -1.729,-0.879c-0.417,0 -0.728,0.057 -0.933,0.171c-0.205,0.114 -0.307,0.226 -0.307,0.337c0,0.325 0.312,0.523 0.937,0.594c1.628,0.18 2.732,0.365 3.311,0.554c0.58,0.189 1.074,0.534 1.484,1.036c0.41,0.501 0.615,1.107 0.615,1.817c0,1.088 -0.454,1.951 -1.362,2.59c-0.908,0.638 -2.16,0.958 -3.755,0.958c-2.689,0 -4.352,-1.006 -4.99,-3.018Z" style="fill-rule:nonzero;"/><path d="M474.444,509.749l0,2.529l-1.982,0l0,3.662c0,0.502 0.094,0.799 0.283,0.894c0.189,0.094 0.384,0.141 0.586,0.141c0.312,0 0.683,-0.055 1.113,-0.166l0,2.774c-0.768,0.15 -1.523,0.225 -2.266,0.225c-1.197,0 -2.078,-0.258 -2.641,-0.772c-0.563,-0.514 -0.845,-1.335 -0.845,-2.461l0.01,-1.162l0,-3.135l-1.484,0l0,-2.529l1.484,0l0.058,-3.232l3.702,-0.059l0,3.291l1.982,0Z" style="fill-rule:nonzero;"/><path d="M479.639,505.931l0,3.086l-3.896,0l0,-3.086l3.896,0Zm0,3.818l0,9.932l-3.896,0l0,-9.932l3.896,0Z" style="fill-rule:nonzero;"/><path d="M485.889,512.278l0,7.403l-3.671,0l0,-7.403l-1.485,0l0,-2.529l1.485,0c0,-0.82 0.035,-1.427 0.107,-1.821c0.072,-0.394 0.251,-0.772 0.537,-1.133c0.287,-0.362 0.671,-0.638 1.152,-0.83c0.482,-0.192 1.13,-0.288 1.944,-0.288c0.872,0 1.709,0.068 2.51,0.205l0,2.549c-0.619,-0.085 -1.081,-0.127 -1.387,-0.127c-0.306,0 -0.586,0.061 -0.84,0.185c-0.254,0.124 -0.381,0.427 -0.381,0.908l0,0.352l2.539,0l0,2.529l-2.51,0Z" style="fill-rule:nonzero;"/><path d="M498.809,509.749l-3.896,10.762c-0.3,0.813 -0.729,1.45 -1.289,1.909c-0.56,0.459 -1.423,0.688 -2.588,0.688c-0.28,0 -0.931,-0.029 -1.953,-0.088l0,-2.763c0.508,0.078 0.976,0.117 1.406,0.117c1.12,0 1.68,-0.247 1.68,-0.742c0,-0.163 -0.056,-0.388 -0.166,-0.674l-3.565,-9.209l4.168,0l1.643,5.3l1.714,-5.3l2.846,0Z" style="fill-rule:nonzero;"/><path d="M508.592,522.815l-3.896,0l0,-13.066l3.584,0l0,1.406c0.501,-1.074 1.435,-1.611 2.802,-1.611c1.185,0 2.113,0.46 2.784,1.382c0.67,0.921 1.005,2.176 1.005,3.764c0,1.589 -0.343,2.852 -1.03,3.789c-0.687,0.938 -1.593,1.407 -2.72,1.407c-1.106,0 -1.949,-0.424 -2.529,-1.27l0,4.199Zm0,-6.767c0,0.442 0.101,0.786 0.303,1.03c0.202,0.244 0.452,0.366 0.752,0.366c0.469,0 0.791,-0.216 0.967,-0.649c0.175,-0.433 0.263,-1.099 0.263,-1.997c0,-1.035 -0.101,-1.763 -0.302,-2.183c-0.202,-0.42 -0.505,-0.63 -0.909,-0.63c-0.24,0 -0.48,0.095 -0.717,0.283c-0.238,0.189 -0.357,0.499 -0.357,0.928l0,2.852Z" style="fill-rule:nonzero;"/><path d="M520.155,519.681l-3.731,0l0,-9.932l3.242,0l0,2.051c0.371,-1.491 1.234,-2.237 2.588,-2.237c0.137,0 0.326,0.013 0.567,0.039l0,3.467c-0.274,-0.065 -0.518,-0.097 -0.733,-0.097c-1.289,0 -1.933,0.719 -1.933,2.158l0,4.551Z" style="fill-rule:nonzero;"/><path d="M528.905,519.886c-1.647,0 -2.956,-0.513 -3.926,-1.538c-0.97,-1.026 -1.455,-2.229 -1.455,-3.609c0,-1.484 0.506,-2.721 1.518,-3.711c1.013,-0.989 2.329,-1.484 3.951,-1.484c1.634,0 2.947,0.488 3.94,1.465c0.993,0.976 1.489,2.2 1.489,3.672c0,1.484 -0.503,2.723 -1.509,3.715c-1.005,0.993 -2.342,1.49 -4.008,1.49Zm0.058,-2.364c0.606,0 0.975,-0.314 1.109,-0.942c0.133,-0.628 0.2,-1.284 0.2,-1.968c0,-0.931 -0.095,-1.601 -0.283,-2.012c-0.189,-0.41 -0.528,-0.615 -1.016,-0.615c-0.449,0 -0.778,0.212 -0.986,0.635c-0.209,0.423 -0.313,1.12 -0.313,2.09c0,1.139 0.108,1.893 0.322,2.261c0.215,0.367 0.538,0.551 0.967,0.551Z" style="fill-rule:nonzero;"/><path d="M539.832,522.815l-3.896,0l0,-13.066l3.584,0l0,1.406c0.501,-1.074 1.435,-1.611 2.803,-1.611c1.185,0 2.112,0.46 2.783,1.382c0.67,0.921 1.006,2.176 1.006,3.764c0,1.589 -0.344,2.852 -1.031,3.789c-0.686,0.938 -1.593,1.407 -2.719,1.407c-1.107,0 -1.95,-0.424 -2.53,-1.27l0,4.199Zm0,-6.767c0,0.442 0.101,0.786 0.303,1.03c0.202,0.244 0.453,0.366 0.752,0.366c0.469,0 0.791,-0.216 0.967,-0.649c0.176,-0.433 0.264,-1.099 0.264,-1.997c0,-1.035 -0.101,-1.763 -0.303,-2.183c-0.202,-0.42 -0.505,-0.63 -0.908,-0.63c-0.241,0 -0.481,0.095 -0.718,0.283c-0.238,0.189 -0.357,0.499 -0.357,0.928l0,2.852Z" style="fill-rule:nonzero;"/><path d="M554.227,516.116l3.633,0.244c-0.215,0.977 -0.764,1.809 -1.646,2.495c-0.882,0.687 -2.075,1.031 -3.579,1.031c-1.673,0 -3.008,-0.484 -4.004,-1.451c-0.996,-0.966 -1.494,-2.166 -1.494,-3.598c0,-1.485 0.492,-2.738 1.475,-3.76c0.983,-1.022 2.295,-1.533 3.935,-1.533c1.589,0 2.873,0.482 3.853,1.445c0.98,0.964 1.47,2.276 1.47,3.936c0,0.136 -0.004,0.325 -0.01,0.566l-6.651,0c0.013,0.625 0.124,1.089 0.332,1.392c0.209,0.302 0.606,0.454 1.192,0.454c0.846,0 1.344,-0.407 1.494,-1.221Zm-0.264,-2.578c-0.006,-0.671 -0.141,-1.121 -0.404,-1.353c-0.262,-0.231 -0.588,-0.346 -0.978,-0.346c-0.921,0 -1.381,0.566 -1.381,1.699l2.763,0Z" style="fill-rule:nonzero;"/><path d="M563.123,519.681l-3.73,0l0,-9.932l3.242,0l0,2.051c0.371,-1.491 1.234,-2.237 2.588,-2.237c0.137,0 0.326,0.013 0.566,0.039l0,3.467c-0.273,-0.065 -0.517,-0.097 -0.732,-0.097c-1.289,0 -1.934,0.719 -1.934,2.158l0,4.551Z" style="fill-rule:nonzero;"/><path d="M573.553,509.749l0,2.529l-1.982,0l0,3.662c0,0.502 0.094,0.799 0.283,0.894c0.189,0.094 0.384,0.141 0.586,0.141c0.312,0 0.683,-0.055 1.113,-0.166l0,2.774c-0.768,0.15 -1.523,0.225 -2.266,0.225c-1.197,0 -2.078,-0.258 -2.641,-0.772c-0.563,-0.514 -0.845,-1.335 -0.845,-2.461l0.01,-1.162l0,-3.135l-1.484,0l0,-2.529l1.484,0l0.059,-3.232l3.701,-0.059l0,3.291l1.982,0Z" style="fill-rule:nonzero;"/><path d="M584.129,509.749l-3.896,10.762c-0.3,0.813 -0.729,1.45 -1.289,1.909c-0.56,0.459 -1.423,0.688 -2.588,0.688c-0.28,0 -0.931,-0.029 -1.953,-0.088l0,-2.763c0.508,0.078 0.976,0.117 1.406,0.117c1.12,0 1.68,-0.247 1.68,-0.742c0,-0.163 -0.056,-0.388 -0.166,-0.674l-3.565,-9.209l4.168,0l1.643,5.3l1.714,-5.3l2.846,0Z" style="fill-rule:nonzero;"/><rect x="584.403" y="516.116" width="3.711" height="3.564" style="fill-rule:nonzero;"/><path d="M226.514,538.409l0,3.272l-9.346,0l0,-13.331l4.092,0l0,10.059l5.254,0Z" style="fill-rule:nonzero;"/><path d="M232.656,541.886c-1.647,0 -2.955,-0.513 -3.925,-1.538c-0.971,-1.026 -1.456,-2.229 -1.456,-3.609c0,-1.484 0.507,-2.721 1.519,-3.711c1.012,-0.989 2.329,-1.484 3.95,-1.484c1.634,0 2.948,0.488 3.941,1.465c0.992,0.976 1.489,2.2 1.489,3.672c0,1.484 -0.503,2.723 -1.509,3.715c-1.006,0.993 -2.342,1.49 -4.009,1.49Zm0.059,-2.364c0.605,0 0.975,-0.314 1.108,-0.942c0.134,-0.628 0.2,-1.284 0.2,-1.968c0,-0.931 -0.094,-1.601 -0.283,-2.012c-0.189,-0.41 -0.527,-0.615 -1.015,-0.615c-0.45,0 -0.778,0.212 -0.987,0.635c-0.208,0.423 -0.312,1.12 -0.312,2.09c0,1.139 0.107,1.893 0.322,2.261c0.215,0.367 0.537,0.551 0.967,0.551Z" style="fill-rule:nonzero;"/><path d="M243.418,541.681l-3.73,0l0,-9.932l3.242,0l0,2.051c0.371,-1.491 1.233,-2.237 2.588,-2.237c0.136,0 0.325,0.013 0.566,0.039l0,3.467c-0.273,-0.065 -0.518,-0.097 -0.732,-0.097c-1.289,0 -1.934,0.719 -1.934,2.158l0,4.551Z" style="fill-rule:nonzero;"/><path d="M253.877,538.116l3.633,0.244c-0.215,0.977 -0.764,1.809 -1.646,2.495c-0.882,0.687 -2.075,1.031 -3.579,1.031c-1.673,0 -3.008,-0.484 -4.004,-1.451c-0.996,-0.966 -1.494,-2.166 -1.494,-3.598c0,-1.485 0.492,-2.738 1.475,-3.76c0.983,-1.022 2.295,-1.533 3.935,-1.533c1.589,0 2.873,0.482 3.853,1.445c0.98,0.964 1.47,2.276 1.47,3.936c0,0.136 -0.004,0.325 -0.01,0.566l-6.651,0c0.013,0.625 0.124,1.089 0.332,1.392c0.209,0.302 0.606,0.454 1.192,0.454c0.846,0 1.344,-0.407 1.494,-1.221Zm-0.264,-2.578c-0.006,-0.671 -0.141,-1.121 -0.404,-1.353c-0.262,-0.231 -0.588,-0.346 -0.978,-0.346c-0.921,0 -1.381,0.566 -1.381,1.699l2.763,0Z" style="fill-rule:nonzero;"/><path d="M274.092,541.681l-3.779,0l0,-6.211c0,-0.417 -0.061,-0.708 -0.181,-0.874c-0.121,-0.166 -0.334,-0.249 -0.64,-0.249c-0.729,0 -1.094,0.53 -1.094,1.591l0,5.743l-3.74,0l0,-6.211c0,-0.795 -0.306,-1.192 -0.918,-1.192c-0.631,0 -0.947,0.397 -0.947,1.192l0,6.211l-3.75,0l0,-9.932l3.496,0l0,1.338c0.625,-1.029 1.533,-1.543 2.725,-1.543c1.282,0 2.213,0.514 2.793,1.543c0.644,-1.029 1.634,-1.543 2.968,-1.543c0.638,0 1.2,0.133 1.685,0.4c0.485,0.267 0.837,0.611 1.055,1.031c0.218,0.419 0.327,1.069 0.327,1.948l0,6.758Z" style="fill-rule:nonzero;"/><path d="M285.049,527.931l0,3.086l-3.897,0l0,-3.086l3.897,0Zm0,3.818l0,9.932l-3.897,0l0,-9.932l3.897,0Z" style="fill-rule:nonzero;"/><path d="M290.996,544.815l-3.896,0l0,-13.066l3.584,0l0,1.406c0.501,-1.074 1.435,-1.611 2.802,-1.611c1.185,0 2.113,0.46 2.784,1.382c0.67,0.921 1.005,2.176 1.005,3.764c0,1.589 -0.343,2.852 -1.03,3.789c-0.687,0.938 -1.593,1.407 -2.72,1.407c-1.106,0 -1.949,-0.424 -2.529,-1.27l0,4.199Zm0,-6.767c0,0.442 0.101,0.786 0.303,1.03c0.202,0.244 0.452,0.366 0.752,0.366c0.469,0 0.791,-0.216 0.967,-0.649c0.175,-0.433 0.263,-1.099 0.263,-1.997c0,-1.035 -0.101,-1.763 -0.302,-2.183c-0.202,-0.42 -0.505,-0.63 -0.909,-0.63c-0.241,0 -0.48,0.095 -0.717,0.283c-0.238,0.189 -0.357,0.499 -0.357,0.928l0,2.852Z" style="fill-rule:nonzero;"/><path d="M297.949,538.868l3.076,-0.42c0.176,0.716 0.873,1.074 2.09,1.074c1.009,0 1.514,-0.195 1.514,-0.586c0,-0.169 -0.098,-0.301 -0.293,-0.395c-0.195,-0.094 -0.658,-0.191 -1.387,-0.288c-2.018,-0.28 -3.278,-0.718 -3.779,-1.314c-0.501,-0.596 -0.752,-1.258 -0.752,-1.987c0,-1.016 0.423,-1.838 1.27,-2.466c0.846,-0.628 1.956,-0.942 3.33,-0.942c2.408,0 3.945,0.869 4.609,2.607l-2.949,0.557c-0.274,-0.586 -0.85,-0.879 -1.729,-0.879c-0.416,0 -0.727,0.057 -0.932,0.171c-0.205,0.114 -0.308,0.226 -0.308,0.337c0,0.325 0.313,0.523 0.938,0.594c1.628,0.18 2.731,0.365 3.311,0.554c0.579,0.189 1.074,0.534 1.484,1.036c0.41,0.501 0.615,1.107 0.615,1.817c0,1.088 -0.454,1.951 -1.363,2.59c-0.908,0.638 -2.159,0.958 -3.754,0.958c-2.689,0 -4.353,-1.006 -4.991,-3.018Z" style="fill-rule:nonzero;"/><path d="M319.082,531.749l0,9.932l-3.603,0l0,-1.631c-0.528,1.224 -1.556,1.836 -3.086,1.836c-0.944,0 -1.675,-0.262 -2.193,-0.786c-0.517,-0.525 -0.776,-1.275 -0.776,-2.251l0,-7.1l3.896,0l0,6.25c0,0.391 0.054,0.666 0.161,0.825c0.108,0.16 0.318,0.239 0.63,0.239c0.332,0 0.603,-0.118 0.811,-0.356c0.208,-0.238 0.312,-0.571 0.312,-1.001l0,-5.957l3.848,0Z" style="fill-rule:nonzero;"/><path d="M336.182,541.681l-3.78,0l0,-6.211c0,-0.417 -0.06,-0.708 -0.18,-0.874c-0.121,-0.166 -0.334,-0.249 -0.64,-0.249c-0.729,0 -1.094,0.53 -1.094,1.591l0,5.743l-3.74,0l0,-6.211c0,-0.795 -0.306,-1.192 -0.918,-1.192c-0.631,0 -0.947,0.397 -0.947,1.192l0,6.211l-3.75,0l0,-9.932l3.496,0l0,1.338c0.625,-1.029 1.533,-1.543 2.725,-1.543c1.282,0 2.213,0.514 2.793,1.543c0.644,-1.029 1.634,-1.543 2.968,-1.543c0.638,0 1.2,0.133 1.685,0.4c0.485,0.267 0.836,0.611 1.055,1.031c0.218,0.419 0.327,1.069 0.327,1.948l0,6.758Z" style="fill-rule:nonzero;"/><path d="M352.94,541.681l-3.653,0l0,-1.319c-0.54,1.016 -1.432,1.524 -2.676,1.524c-1.145,0 -2.075,-0.448 -2.788,-1.343c-0.713,-0.895 -1.069,-2.196 -1.069,-3.901c0,-1.596 0.358,-2.862 1.074,-3.799c0.716,-0.938 1.664,-1.407 2.842,-1.407c0.983,0 1.794,0.375 2.432,1.123l0,-4.209l3.838,0l0,13.331Zm-3.838,-6.387c0,-0.892 -0.368,-1.338 -1.104,-1.338c-0.514,0 -0.851,0.283 -1.011,0.85c-0.159,0.566 -0.239,1.259 -0.239,2.08c0,1.608 0.41,2.412 1.231,2.412c0.312,0 0.577,-0.127 0.795,-0.381c0.219,-0.254 0.328,-0.641 0.328,-1.162l0,-2.461Z" style="fill-rule:nonzero;"/><path d="M359.844,541.886c-1.647,0 -2.956,-0.513 -3.926,-1.538c-0.97,-1.026 -1.455,-2.229 -1.455,-3.609c0,-1.484 0.506,-2.721 1.518,-3.711c1.013,-0.989 2.33,-1.484 3.951,-1.484c1.634,0 2.947,0.488 3.94,1.465c0.993,0.976 1.489,2.2 1.489,3.672c0,1.484 -0.503,2.723 -1.508,3.715c-1.006,0.993 -2.343,1.49 -4.009,1.49Zm0.058,-2.364c0.606,0 0.975,-0.314 1.109,-0.942c0.133,-0.628 0.2,-1.284 0.2,-1.968c0,-0.931 -0.094,-1.601 -0.283,-2.012c-0.189,-0.41 -0.528,-0.615 -1.016,-0.615c-0.449,0 -0.778,0.212 -0.986,0.635c-0.208,0.423 -0.313,1.12 -0.313,2.09c0,1.139 0.108,1.893 0.323,2.261c0.214,0.367 0.537,0.551 0.966,0.551Z" style="fill-rule:nonzero;"/><rect x="366.875" y="528.35" width="3.838" height="13.33" style="fill-rule:nonzero;"/><path d="M377.617,541.886c-1.647,0 -2.955,-0.513 -3.926,-1.538c-0.97,-1.026 -1.455,-2.229 -1.455,-3.609c0,-1.484 0.507,-2.721 1.519,-3.711c1.012,-0.989 2.329,-1.484 3.95,-1.484c1.634,0 2.948,0.488 3.941,1.465c0.992,0.976 1.489,2.2 1.489,3.672c0,1.484 -0.503,2.723 -1.509,3.715c-1.006,0.993 -2.342,1.49 -4.009,1.49Zm0.059,-2.364c0.605,0 0.975,-0.314 1.108,-0.942c0.134,-0.628 0.2,-1.284 0.2,-1.968c0,-0.931 -0.094,-1.601 -0.283,-2.012c-0.189,-0.41 -0.527,-0.615 -1.015,-0.615c-0.45,0 -0.778,0.212 -0.987,0.635c-0.208,0.423 -0.312,1.12 -0.312,2.09c0,1.139 0.107,1.893 0.322,2.261c0.215,0.367 0.537,0.551 0.967,0.551Z" style="fill-rule:nonzero;"/><path d="M388.379,541.681l-3.731,0l0,-9.932l3.243,0l0,2.051c0.371,-1.491 1.233,-2.237 2.588,-2.237c0.136,0 0.325,0.013 0.566,0.039l0,3.467c-0.273,-0.065 -0.518,-0.097 -0.732,-0.097c-1.29,0 -1.934,0.719 -1.934,2.158l0,4.551Z" style="fill-rule:nonzero;"/><rect x="391.494" y="538.116" width="3.711" height="3.564" style="fill-rule:nonzero;"/><rect x="396.992" y="538.116" width="3.711" height="3.564" style="fill-rule:nonzero;"/></g></g><g transform="matrix(1,0,0,1,7821.5,7043.63)"><path id="title" d="M303.731,391.83l6.648,-1.196c0.559,1.88 1.994,2.82 4.307,2.82c1.8,0 2.7,-0.479 2.7,-1.436c0,-0.501 -0.208,-0.891 -0.624,-1.171c-0.415,-0.279 -1.159,-0.526 -2.23,-0.742c-4.091,-0.784 -6.717,-1.809 -7.879,-3.074c-1.162,-1.265 -1.742,-2.752 -1.742,-4.461c0,-2.2 0.834,-4.029 2.503,-5.488c1.669,-1.459 4.07,-2.188 7.204,-2.188c4.751,0 7.889,1.908 9.416,5.725l-5.93,1.795c-0.615,-1.561 -1.863,-2.342 -3.743,-2.342c-1.561,0 -2.341,0.484 -2.341,1.453c0,0.433 0.177,0.769 0.53,1.008c0.353,0.239 1.037,0.467 2.051,0.683c2.792,0.59 4.774,1.112 5.948,1.566c1.174,0.455 2.154,1.232 2.939,2.332c0.786,1.1 1.178,2.397 1.178,3.89c0,2.36 -0.957,4.273 -2.871,5.738c-1.914,1.465 -4.426,2.197 -7.536,2.197c-5.686,0 -9.195,-2.369 -10.528,-7.109Z" style="fill-rule:nonzero;"/><path d="M337.484,398.939c-3.281,0 -5.956,-1.088 -8.024,-3.264c-2.068,-2.176 -3.102,-5.087 -3.102,-8.733c0,-3.486 0.989,-6.366 2.965,-8.639c1.977,-2.272 4.72,-3.409 8.229,-3.409c3.247,0 5.893,1.071 7.938,3.213c2.045,2.142 3.068,5.002 3.068,8.579c0,3.703 -1.031,6.671 -3.093,8.904c-2.062,2.233 -4.723,3.349 -7.981,3.349Zm-0.034,-5.297c1.207,0 2.076,-0.527 2.606,-1.581c0.53,-1.054 0.794,-2.982 0.794,-5.785c0,-4.056 -1.088,-6.084 -3.264,-6.084c-2.347,0 -3.52,2.313 -3.52,6.938c0,4.341 1.128,6.512 3.384,6.512Z" style="fill-rule:nonzero;"/><path d="M376.944,375.253l0,23.328l-6.648,0l0,-16.68l-4.315,16.68l-4.546,0l-4.486,-16.68l0,16.68l-5.366,0l0,-23.328l9.357,0l3.383,12.39l3.23,-12.39l9.391,0Z" style="fill-rule:nonzero;"/><path d="M398.563,393.009l0,5.572l-17.551,0l0,-23.328l17.551,0l0,5.383l-10.527,0l0,3.384l8.51,0l0,5.178l-8.51,0l0,3.811l10.527,0Z" style="fill-rule:nonzero;"/><path d="M419.737,380.841l0,17.74l-6.784,0l0,-17.74l-4.837,0l0,-5.588l16.458,0l0,5.588l-4.837,0Z" style="fill-rule:nonzero;"/><rect x="426.607" y="375.253" width="7.161" height="23.328" style="fill-rule:nonzero;"/><path d="M447.423,380.841l0,17.74l-6.785,0l0,-17.74l-4.836,0l0,-5.588l16.457,0l0,5.588l-4.836,0Z" style="fill-rule:nonzero;"/><path d="M470.648,392.855l0,5.726l-16.355,0l0,-23.328l7.161,0l0,17.602l9.194,0Z" style="fill-rule:nonzero;"/><path d="M490.694,393.009l0,5.572l-17.551,0l0,-23.328l17.551,0l0,5.383l-10.527,0l0,3.384l8.511,0l0,5.178l-8.511,0l0,3.811l10.527,0Z" style="fill-rule:nonzero;"/><path d="M522.071,375.253l0,23.328l-7.16,0l0,-9.075l-5.469,0l0,9.075l-7.161,0l0,-23.328l7.161,0l0,8.579l5.469,0l0,-8.579l7.16,0Z" style="fill-rule:nonzero;"/><path d="M543.673,393.009l0,5.572l-17.552,0l0,-23.328l17.552,0l0,5.383l-10.528,0l0,3.384l8.511,0l0,5.178l-8.511,0l0,3.811l10.528,0Z" style="fill-rule:nonzero;"/><path d="M567.274,398.581l-7.938,0l-3.408,-8.921l-2.258,0l0,8.921l-7.16,0l0,-23.328l12.185,0c2.689,0 4.776,0.629 6.263,1.888c1.487,1.259 2.23,2.92 2.23,4.982c0,1.344 -0.273,2.532 -0.82,3.563c-0.547,1.031 -1.652,1.94 -3.315,2.726l4.221,10.169Zm-13.604,-13.912l3.059,0c0.9,0 1.624,-0.188 2.171,-0.564c0.547,-0.376 0.82,-0.928 0.82,-1.657c0,-1.493 -0.917,-2.239 -2.751,-2.239l-3.299,0l0,4.46Z" style="fill-rule:nonzero;"/><path d="M588.209,393.009l0,5.572l-17.551,0l0,-23.328l17.551,0l0,5.383l-10.527,0l0,3.384l8.51,0l0,5.178l-8.51,0l0,3.811l10.527,0Z" style="fill-rule:nonzero;"/></g><g transform="matrix(-0.912133,0,0,0.912133,15534.2,962.714)"><rect x="7809.94" y="7142" width="195.393" height="183.959" style="fill:#ec7979;"/></g></g></g></svg>