<?xml version="1.0" encoding="UTF-8" standalone="no"?><!DOCTYPE svg PUBLIC "-//W3C//DTD SVG 1.1//EN" "http://www.w3.org/Graphics/SVG/1.1/DTD/svg11.dtd"><svg width="430px" height="572px" version="1.1" xmlns="http://www.w3.org/2000/svg" xmlns:xlink="http://www.w3.org/1999/xlink" xml:space="preserve" xmlns:serif="http://www.serif.com/" style="fill-rule:evenodd;clip-rule:evenodd;stroke-linejoin:round;stroke-miterlimit:1.41421;"><g transform="matrix(1,0,0,1,-8469,-7000)"><rect id="p2Tile2" x="8469" y="7000" width="430" height="572" style="fill:none;"/><clipPath id="_clip1"><rect id="p2Tile21" serif:id="p2Tile2" x="8469" y="7000" width="430" height="572"/></clipPath><g clip-path="url(#_clip1)"><g transform="matrix(1.14165,0,0,1.51866,4925.11,140.68)"><rect x="3104.18" y="4516.68" width="376.647" height="376.647" style="fill:#fff;"/></g><g transform="matrix(1,0,0,1,7955.96,6975.46)"><g><path d="M598.705,393.968c-2.625,0 -4.764,-0.871 -6.418,-2.612c-1.655,-1.741 -2.482,-4.069 -2.482,-6.986c0,-2.789 0.791,-5.093 2.372,-6.911c1.582,-1.818 3.776,-2.728 6.583,-2.728c2.598,0 4.715,0.857 6.351,2.571c1.636,1.713 2.454,4.001 2.454,6.863c0,2.962 -0.825,5.337 -2.475,7.123c-1.65,1.786 -3.778,2.68 -6.385,2.68Zm-0.027,-4.239c0.966,0 1.661,-0.421 2.085,-1.264c0.424,-0.843 0.636,-2.386 0.636,-4.628c0,-3.245 -0.871,-4.867 -2.612,-4.867c-1.877,0 -2.816,1.85 -2.816,5.55c0,3.473 0.902,5.209 2.707,5.209Z" style="fill-rule:nonzero;"/><path d="M618.379,379.776l0,3.541l-2.775,0l0,5.127c0,0.702 0.132,1.119 0.396,1.251c0.265,0.132 0.538,0.198 0.821,0.198c0.437,0 0.957,-0.077 1.558,-0.232l0,3.883c-1.075,0.209 -2.133,0.314 -3.172,0.314c-1.677,0 -2.909,-0.36 -3.698,-1.08c-0.788,-0.72 -1.182,-1.868 -1.182,-3.445l0.013,-1.627l0,-4.389l-2.078,0l0,-3.541l2.078,0l0.082,-4.525l5.182,-0.082l0,4.607l2.775,0Z" style="fill-rule:nonzero;"/><path d="M633.856,393.681l-5.455,0l0,-8.368c0,-0.765 -0.084,-1.292 -0.252,-1.579c-0.168,-0.287 -0.492,-0.43 -0.972,-0.43c-0.372,0 -0.697,0.111 -0.973,0.335c-0.277,0.223 -0.438,0.453 -0.483,0.69c-0.046,0.237 -0.068,0.734 -0.068,1.49l0,7.862l-5.455,0l0,-18.663l5.455,0l0,6.399c0.984,-1.285 2.269,-1.928 3.855,-1.928c0.802,0 1.506,0.139 2.113,0.417c0.606,0.278 1.073,0.636 1.401,1.073c0.328,0.438 0.549,0.862 0.663,1.272c0.114,0.41 0.171,1.203 0.171,2.379l0,9.051Z" style="fill-rule:nonzero;"/><path d="M645.928,388.69l5.086,0.342c-0.301,1.367 -1.069,2.532 -2.304,3.493c-1.235,0.962 -2.905,1.443 -5.01,1.443c-2.343,0 -4.211,-0.677 -5.606,-2.031c-1.394,-1.353 -2.092,-3.032 -2.092,-5.038c0,-2.078 0.688,-3.832 2.065,-5.263c1.376,-1.431 3.213,-2.147 5.51,-2.147c2.224,0 4.021,0.675 5.393,2.024c1.372,1.349 2.058,3.185 2.058,5.509c0,0.192 -0.005,0.456 -0.014,0.793l-9.31,0c0.018,0.875 0.173,1.525 0.464,1.949c0.292,0.423 0.848,0.635 1.668,0.635c1.185,0 1.882,-0.569 2.092,-1.709Zm-0.369,-3.609c-0.009,-0.939 -0.198,-1.57 -0.565,-1.894c-0.368,-0.323 -0.825,-0.485 -1.37,-0.485c-1.289,0 -1.934,0.793 -1.934,2.379l3.869,0Z" style="fill-rule:nonzero;"/><path d="M658.383,393.681l-5.222,0l0,-13.905l4.539,0l0,2.871c0.519,-2.087 1.727,-3.13 3.623,-3.13c0.191,0 0.455,0.018 0.793,0.054l0,4.854c-0.383,-0.091 -0.725,-0.137 -1.026,-0.137c-1.804,0 -2.707,1.007 -2.707,3.021l0,6.372Z" style="fill-rule:nonzero;"/><path d="M676.293,398.069l-5.455,0l0,-18.293l5.018,0l0,1.969c0.702,-1.504 2.01,-2.256 3.924,-2.256c1.659,0 2.957,0.645 3.896,1.935c0.939,1.289 1.408,3.046 1.408,5.27c0,2.224 -0.48,3.992 -1.442,5.305c-0.962,1.312 -2.231,1.969 -3.808,1.969c-1.549,0 -2.729,-0.593 -3.541,-1.778l0,5.879Zm0,-9.474c0,0.619 0.142,1.1 0.424,1.442c0.283,0.342 0.634,0.513 1.053,0.513c0.656,0 1.107,-0.303 1.353,-0.909c0.247,-0.607 0.37,-1.539 0.37,-2.796c0,-1.45 -0.142,-2.468 -0.424,-3.056c-0.283,-0.588 -0.707,-0.882 -1.272,-0.882c-0.337,0 -0.672,0.132 -1.005,0.397c-0.332,0.264 -0.499,0.697 -0.499,1.298l0,3.993Z" style="fill-rule:nonzero;"/><path d="M692.481,393.681l-5.223,0l0,-13.905l4.539,0l0,2.871c0.52,-2.087 1.727,-3.13 3.623,-3.13c0.192,0 0.456,0.018 0.793,0.054l0,4.854c-0.383,-0.091 -0.724,-0.137 -1.025,-0.137c-1.805,0 -2.707,1.007 -2.707,3.021l0,6.372Z" style="fill-rule:nonzero;"/><path d="M707.123,388.69l5.086,0.342c-0.3,1.367 -1.068,2.532 -2.303,3.493c-1.235,0.962 -2.906,1.443 -5.011,1.443c-2.343,0 -4.211,-0.677 -5.606,-2.031c-1.394,-1.353 -2.091,-3.032 -2.091,-5.038c0,-2.078 0.688,-3.832 2.064,-5.263c1.376,-1.431 3.213,-2.147 5.51,-2.147c2.224,0 4.022,0.675 5.393,2.024c1.372,1.349 2.058,3.185 2.058,5.509c0,0.192 -0.005,0.456 -0.014,0.793l-9.31,0c0.018,0.875 0.173,1.525 0.465,1.949c0.291,0.423 0.847,0.635 1.668,0.635c1.185,0 1.882,-0.569 2.091,-1.709Zm-0.369,-3.609c-0.009,-0.939 -0.197,-1.57 -0.565,-1.894c-0.368,-0.323 -0.824,-0.485 -1.369,-0.485c-1.29,0 -1.935,0.793 -1.935,2.379l3.869,0Z" style="fill-rule:nonzero;"/><path d="M720.235,383.317l0,10.364l-5.141,0l0,-10.364l-2.078,0l0,-3.541l2.078,0c0,-1.148 0.05,-1.998 0.151,-2.55c0.1,-0.551 0.35,-1.08 0.751,-1.585c0.402,-0.506 0.939,-0.894 1.614,-1.163c0.674,-0.268 1.581,-0.403 2.72,-0.403c1.222,0 2.393,0.096 3.514,0.287l0,3.569c-0.866,-0.119 -1.513,-0.178 -1.941,-0.178c-0.429,0 -0.821,0.086 -1.176,0.26c-0.356,0.173 -0.533,0.597 -0.533,1.271l0,0.492l3.554,0l0,3.541l-3.513,0Z" style="fill-rule:nonzero;"/><path d="M739.348,393.681l-5.195,0c-0.128,-0.593 -0.192,-1.24 -0.192,-1.942c-0.984,1.486 -2.474,2.229 -4.47,2.229c-1.641,0 -2.869,-0.42 -3.685,-1.258c-0.816,-0.839 -1.224,-1.8 -1.224,-2.885c0,-1.467 0.668,-2.655 2.003,-3.561c1.336,-0.907 3.703,-1.452 7.103,-1.634l0,-0.315c0,-0.61 -0.139,-1.016 -0.417,-1.216c-0.278,-0.201 -0.686,-0.301 -1.224,-0.301c-1.258,0 -1.959,0.506 -2.105,1.517l-4.977,-0.465c0.711,-2.907 3.131,-4.361 7.26,-4.361c1.121,0 2.151,0.112 3.09,0.335c0.939,0.223 1.681,0.572 2.228,1.046c0.547,0.474 0.914,0.975 1.101,1.504c0.187,0.529 0.28,1.545 0.28,3.049l0,5.551c0,1.057 0.141,1.959 0.424,2.707Zm-5.66,-6.508c-2.324,0.246 -3.486,0.989 -3.486,2.228c0,0.839 0.46,1.258 1.38,1.258c0.584,0 1.08,-0.173 1.491,-0.519c0.41,-0.347 0.615,-1.112 0.615,-2.297l0,-0.67Z" style="fill-rule:nonzero;"/><path d="M750.135,388.075l4.649,0.397c-0.219,1.622 -0.9,2.944 -2.044,3.964c-1.144,1.021 -2.664,1.532 -4.56,1.532c-2.124,0 -3.849,-0.668 -5.175,-2.003c-1.326,-1.336 -1.989,-3.047 -1.989,-5.134c0,-2.133 0.659,-3.89 1.976,-5.271c1.317,-1.38 3.028,-2.071 5.133,-2.071c1.869,0 3.391,0.522 4.567,1.566c1.176,1.043 1.85,2.363 2.023,3.958l-4.771,0.396c-0.201,-1.467 -0.757,-2.201 -1.668,-2.201c-0.584,0 -1.01,0.267 -1.279,0.8c-0.268,0.533 -0.403,1.46 -0.403,2.782c0,1.139 0.135,1.982 0.403,2.529c0.269,0.547 0.736,0.821 1.402,0.821c0.975,0 1.554,-0.689 1.736,-2.065Z" style="fill-rule:nonzero;"/><path d="M765.584,388.69l5.086,0.342c-0.3,1.367 -1.068,2.532 -2.303,3.493c-1.235,0.962 -2.906,1.443 -5.011,1.443c-2.343,0 -4.211,-0.677 -5.606,-2.031c-1.394,-1.353 -2.091,-3.032 -2.091,-5.038c0,-2.078 0.688,-3.832 2.064,-5.263c1.376,-1.431 3.213,-2.147 5.51,-2.147c2.224,0 4.022,0.675 5.393,2.024c1.372,1.349 2.058,3.185 2.058,5.509c0,0.192 -0.005,0.456 -0.014,0.793l-9.31,0c0.018,0.875 0.173,1.525 0.465,1.949c0.291,0.423 0.847,0.635 1.668,0.635c1.184,0 1.882,-0.569 2.091,-1.709Zm-0.369,-3.609c-0.009,-0.939 -0.197,-1.57 -0.565,-1.894c-0.368,-0.323 -0.824,-0.485 -1.369,-0.485c-1.29,0 -1.935,0.793 -1.935,2.379l3.869,0Z" style="fill-rule:nonzero;"/><path d="M788.403,379.776l0,3.541l-2.776,0l0,5.127c0,0.702 0.133,1.119 0.397,1.251c0.264,0.132 0.538,0.198 0.82,0.198c0.438,0 0.957,-0.077 1.559,-0.232l0,3.883c-1.076,0.209 -2.133,0.314 -3.172,0.314c-1.677,0 -2.91,-0.36 -3.698,-1.08c-0.789,-0.72 -1.183,-1.868 -1.183,-3.445l0.014,-1.627l0,-4.389l-2.078,0l0,-3.541l2.078,0l0.082,-4.525l5.181,-0.082l0,4.607l2.776,0Z" style="fill:#ec7979;fill-rule:nonzero;"/><path d="M803.879,393.681l-5.455,0l0,-8.368c0,-0.765 -0.084,-1.292 -0.251,-1.579c-0.168,-0.287 -0.492,-0.43 -0.973,-0.43c-0.372,0 -0.696,0.111 -0.973,0.335c-0.276,0.223 -0.437,0.453 -0.483,0.69c-0.045,0.237 -0.068,0.734 -0.068,1.49l0,7.862l-5.455,0l0,-18.663l5.455,0l0,6.399c0.985,-1.285 2.27,-1.928 3.856,-1.928c0.802,0 1.506,0.139 2.112,0.417c0.606,0.278 1.073,0.636 1.401,1.073c0.328,0.438 0.549,0.862 0.663,1.272c0.114,0.41 0.171,1.203 0.171,2.379l0,9.051Z" style="fill:#ec7979;fill-rule:nonzero;"/><path d="M815.952,388.69l5.085,0.342c-0.3,1.367 -1.068,2.532 -2.303,3.493c-1.235,0.962 -2.905,1.443 -5.011,1.443c-2.342,0 -4.211,-0.677 -5.605,-2.031c-1.395,-1.353 -2.092,-3.032 -2.092,-5.038c0,-2.078 0.688,-3.832 2.064,-5.263c1.377,-1.431 3.213,-2.147 5.51,-2.147c2.224,0 4.022,0.675 5.394,2.024c1.371,1.349 2.057,3.185 2.057,5.509c0,0.192 -0.004,0.456 -0.014,0.793l-9.31,0c0.018,0.875 0.173,1.525 0.465,1.949c0.291,0.423 0.847,0.635 1.668,0.635c1.185,0 1.882,-0.569 2.092,-1.709Zm-0.37,-3.609c-0.009,-0.939 -0.197,-1.57 -0.565,-1.894c-0.368,-0.323 -0.824,-0.485 -1.369,-0.485c-1.29,0 -1.935,0.793 -1.935,2.379l3.869,0Z" style="fill:#ec7979;fill-rule:nonzero;"/><path d="M828.407,393.681l-5.223,0l0,-13.905l4.539,0l0,2.871c0.52,-2.087 1.727,-3.13 3.623,-3.13c0.191,0 0.456,0.018 0.793,0.054l0,4.854c-0.383,-0.091 -0.725,-0.137 -1.025,-0.137c-1.805,0 -2.707,1.007 -2.707,3.021l0,6.372Z" style="fill:#ec7979;fill-rule:nonzero;"/><path d="M843.049,388.69l5.086,0.342c-0.301,1.367 -1.069,2.532 -2.304,3.493c-1.235,0.962 -2.905,1.443 -5.01,1.443c-2.343,0 -4.211,-0.677 -5.606,-2.031c-1.394,-1.353 -2.092,-3.032 -2.092,-5.038c0,-2.078 0.689,-3.832 2.065,-5.263c1.376,-1.431 3.213,-2.147 5.51,-2.147c2.224,0 4.021,0.675 5.393,2.024c1.372,1.349 2.058,3.185 2.058,5.509c0,0.192 -0.005,0.456 -0.014,0.793l-9.31,0c0.018,0.875 0.173,1.525 0.464,1.949c0.292,0.423 0.848,0.635 1.668,0.635c1.185,0 1.883,-0.569 2.092,-1.709Zm-0.369,-3.609c-0.009,-0.939 -0.198,-1.57 -0.565,-1.894c-0.368,-0.323 -0.825,-0.485 -1.369,-0.485c-1.29,0 -1.935,0.793 -1.935,2.379l3.869,0Z" style="fill:#ec7979;fill-rule:nonzero;"/><rect x="850.09" y="388.69" width="5.195" height="4.99" style="fill-rule:nonzero;"/><rect x="857.787" y="388.69" width="5.195" height="4.99" style="fill-rule:nonzero;"/><path d="M594.325,448.837l0,4.844l-4.151,0l0,-13.331l5.694,0c1.419,0 2.498,0.163 3.237,0.489c0.739,0.325 1.325,0.823 1.758,1.494c0.433,0.67 0.649,1.422 0.649,2.256c0,1.269 -0.443,2.295 -1.328,3.076c-0.885,0.781 -2.067,1.172 -3.545,1.172l-2.314,0Zm-0.059,-2.862l1.367,0c1.205,0 1.807,-0.442 1.807,-1.328c0,-0.833 -0.557,-1.25 -1.67,-1.25l-1.504,0l0,2.578Z" style="fill-rule:nonzero;"/><rect x="602.899" y="440.35" width="3.838" height="13.33" style="fill-rule:nonzero;"/><path d="M618.797,453.681l-3.711,0c-0.091,-0.424 -0.136,-0.886 -0.136,-1.387c-0.704,1.061 -1.768,1.592 -3.194,1.592c-1.172,0 -2.049,-0.3 -2.632,-0.899c-0.582,-0.599 -0.874,-1.286 -0.874,-2.06c0,-1.049 0.477,-1.896 1.431,-2.544c0.954,-0.648 2.645,-1.037 5.073,-1.167l0,-0.225c0,-0.436 -0.099,-0.726 -0.298,-0.869c-0.198,-0.143 -0.489,-0.215 -0.874,-0.215c-0.898,0 -1.399,0.361 -1.503,1.084l-3.555,-0.332c0.508,-2.077 2.236,-3.115 5.185,-3.115c0.801,0 1.537,0.08 2.207,0.239c0.671,0.16 1.202,0.409 1.592,0.747c0.391,0.339 0.653,0.697 0.786,1.074c0.134,0.378 0.201,1.104 0.201,2.178l0,3.965c0,0.755 0.1,1.4 0.302,1.934Zm-4.043,-4.649c-1.66,0.176 -2.49,0.707 -2.49,1.592c0,0.599 0.329,0.898 0.986,0.898c0.417,0 0.772,-0.123 1.065,-0.371c0.293,-0.247 0.439,-0.794 0.439,-1.64l0,-0.479Z" style="fill-rule:nonzero;"/><path d="M626.502,449.677l3.321,0.283c-0.157,1.159 -0.643,2.103 -1.46,2.832c-0.817,0.729 -1.903,1.094 -3.257,1.094c-1.517,0 -2.749,-0.477 -3.696,-1.431c-0.948,-0.954 -1.421,-2.176 -1.421,-3.667c0,-1.523 0.47,-2.778 1.411,-3.765c0.941,-0.986 2.163,-1.479 3.667,-1.479c1.334,0 2.422,0.373 3.262,1.118c0.839,0.745 1.321,1.688 1.445,2.827l-3.408,0.283c-0.144,-1.048 -0.541,-1.572 -1.192,-1.572c-0.416,0 -0.721,0.191 -0.913,0.571c-0.192,0.381 -0.288,1.044 -0.288,1.988c0,0.813 0.096,1.416 0.288,1.806c0.192,0.391 0.526,0.586 1.001,0.586c0.697,0 1.11,-0.491 1.24,-1.474Z" style="fill-rule:nonzero;"/><path d="M637.537,450.116l3.633,0.244c-0.215,0.977 -0.763,1.809 -1.645,2.495c-0.882,0.687 -2.075,1.031 -3.579,1.031c-1.673,0 -3.008,-0.484 -4.004,-1.451c-0.996,-0.966 -1.494,-2.166 -1.494,-3.598c0,-1.485 0.491,-2.738 1.474,-3.76c0.983,-1.022 2.295,-1.533 3.936,-1.533c1.588,0 2.873,0.482 3.852,1.445c0.98,0.964 1.47,2.276 1.47,3.936c0,0.136 -0.003,0.325 -0.01,0.566l-6.65,0c0.013,0.625 0.124,1.089 0.332,1.392c0.208,0.302 0.605,0.454 1.191,0.454c0.847,0 1.345,-0.407 1.494,-1.221Zm-0.263,-2.578c-0.007,-0.671 -0.141,-1.121 -0.404,-1.353c-0.263,-0.231 -0.589,-0.346 -0.978,-0.346c-0.921,0 -1.382,0.566 -1.382,1.699l2.764,0Z" style="fill-rule:nonzero;"/><path d="M652.459,453.681l-3.896,0l0,-5.977c0,-0.547 -0.06,-0.923 -0.18,-1.128c-0.12,-0.205 -0.351,-0.308 -0.695,-0.308c-0.265,0 -0.497,0.08 -0.694,0.24c-0.198,0.159 -0.313,0.324 -0.345,0.493c-0.033,0.169 -0.049,0.524 -0.049,1.064l0,5.616l-3.896,0l0,-13.331l3.896,0l0,4.571c0.703,-0.918 1.621,-1.377 2.754,-1.377c0.573,0 1.076,0.099 1.509,0.298c0.433,0.198 0.766,0.454 1.001,0.766c0.234,0.313 0.392,0.616 0.473,0.909c0.082,0.292 0.122,0.859 0.122,1.699l0,6.465Z" style="fill-rule:nonzero;"/><path d="M659.373,453.886c-1.647,0 -2.955,-0.513 -3.925,-1.538c-0.97,-1.026 -1.455,-2.229 -1.455,-3.609c0,-1.484 0.506,-2.721 1.518,-3.711c1.013,-0.989 2.329,-1.484 3.95,-1.484c1.634,0 2.948,0.488 3.941,1.465c0.993,0.976 1.489,2.2 1.489,3.672c0,1.484 -0.503,2.723 -1.509,3.715c-1.006,0.993 -2.342,1.49 -4.009,1.49Zm0.059,-2.364c0.605,0 0.975,-0.314 1.108,-0.942c0.134,-0.628 0.201,-1.284 0.201,-1.968c0,-0.931 -0.095,-1.601 -0.284,-2.012c-0.188,-0.41 -0.527,-0.615 -1.015,-0.615c-0.449,0 -0.778,0.212 -0.987,0.635c-0.208,0.423 -0.312,1.12 -0.312,2.09c0,1.139 0.107,1.893 0.322,2.261c0.215,0.367 0.537,0.551 0.967,0.551Z" style="fill-rule:nonzero;"/><rect x="666.405" y="440.35" width="3.838" height="13.33" style="fill-rule:nonzero;"/><path d="M681.991,453.681l-3.653,0l0,-1.319c-0.54,1.016 -1.432,1.524 -2.676,1.524c-1.145,0 -2.075,-0.448 -2.788,-1.343c-0.712,-0.895 -1.069,-2.196 -1.069,-3.901c0,-1.596 0.358,-2.862 1.074,-3.799c0.716,-0.938 1.664,-1.407 2.842,-1.407c0.983,0 1.794,0.375 2.432,1.123l0,-4.209l3.838,0l0,13.331Zm-3.838,-6.387c0,-0.892 -0.368,-1.338 -1.104,-1.338c-0.514,0 -0.851,0.283 -1.011,0.85c-0.159,0.566 -0.239,1.259 -0.239,2.08c0,1.608 0.41,2.412 1.231,2.412c0.312,0 0.577,-0.127 0.796,-0.381c0.218,-0.254 0.327,-0.641 0.327,-1.162l0,-2.461Z" style="fill-rule:nonzero;"/><path d="M690.604,450.116l3.633,0.244c-0.215,0.977 -0.764,1.809 -1.646,2.495c-0.882,0.687 -2.075,1.031 -3.579,1.031c-1.673,0 -3.008,-0.484 -4.004,-1.451c-0.996,-0.966 -1.494,-2.166 -1.494,-3.598c0,-1.485 0.492,-2.738 1.475,-3.76c0.983,-1.022 2.295,-1.533 3.935,-1.533c1.589,0 2.873,0.482 3.853,1.445c0.98,0.964 1.469,2.276 1.469,3.936c0,0.136 -0.003,0.325 -0.009,0.566l-6.651,0c0.013,0.625 0.124,1.089 0.332,1.392c0.209,0.302 0.606,0.454 1.192,0.454c0.846,0 1.344,-0.407 1.494,-1.221Zm-0.264,-2.578c-0.006,-0.671 -0.141,-1.121 -0.404,-1.353c-0.262,-0.231 -0.588,-0.346 -0.978,-0.346c-0.921,0 -1.381,0.566 -1.381,1.699l2.763,0Z" style="fill-rule:nonzero;"/><path d="M699.5,453.681l-3.73,0l0,-9.932l3.242,0l0,2.051c0.371,-1.491 1.234,-2.237 2.588,-2.237c0.137,0 0.326,0.013 0.566,0.039l0,3.467c-0.273,-0.065 -0.517,-0.097 -0.732,-0.097c-1.289,0 -1.934,0.719 -1.934,2.158l0,4.551Z" style="fill-rule:nonzero;"/><path d="M726.942,443.749l0,2.529l-1.983,0l0,3.662c0,0.502 0.095,0.799 0.284,0.894c0.188,0.094 0.384,0.141 0.586,0.141c0.312,0 0.683,-0.055 1.113,-0.166l0,2.774c-0.768,0.15 -1.524,0.225 -2.266,0.225c-1.198,0 -2.078,-0.258 -2.641,-0.772c-0.564,-0.514 -0.845,-1.335 -0.845,-2.461l0.01,-1.162l0,-3.135l-1.485,0l0,-2.529l1.485,0l0.058,-3.232l3.701,-0.059l0,3.291l1.983,0Z" style="fill-rule:nonzero;"/><path d="M734.803,450.116l3.633,0.244c-0.215,0.977 -0.763,1.809 -1.646,2.495c-0.882,0.687 -2.075,1.031 -3.579,1.031c-1.673,0 -3.007,-0.484 -4.004,-1.451c-0.996,-0.966 -1.494,-2.166 -1.494,-3.598c0,-1.485 0.492,-2.738 1.475,-3.76c0.983,-1.022 2.295,-1.533 3.935,-1.533c1.589,0 2.873,0.482 3.853,1.445c0.98,0.964 1.47,2.276 1.47,3.936c0,0.136 -0.004,0.325 -0.01,0.566l-6.65,0c0.013,0.625 0.123,1.089 0.332,1.392c0.208,0.302 0.605,0.454 1.191,0.454c0.846,0 1.344,-0.407 1.494,-1.221Zm-0.264,-2.578c-0.006,-0.671 -0.141,-1.121 -0.403,-1.353c-0.263,-0.231 -0.589,-0.346 -0.978,-0.346c-0.922,0 -1.382,0.566 -1.382,1.699l2.763,0Z" style="fill-rule:nonzero;"/><path d="M749.832,453.681l-4.389,0l-1.823,-3.173l-1.949,3.173l-3.167,0l3.488,-5.266l-3.058,-4.666l4.331,0l1.025,1.852c0.046,0.084 0.101,0.182 0.166,0.292c0.033,0.052 0.078,0.137 0.137,0.254c0.072,-0.111 0.16,-0.26 0.264,-0.449c0.013,-0.032 0.049,-0.101 0.108,-0.205l1.017,-1.744l3.216,0l-2.91,4.518l3.544,5.414Z" style="fill-rule:nonzero;"/><path d="M756.864,443.749l0,2.529l-1.983,0l0,3.662c0,0.502 0.095,0.799 0.283,0.894c0.189,0.094 0.385,0.141 0.586,0.141c0.313,0 0.684,-0.055 1.114,-0.166l0,2.774c-0.769,0.15 -1.524,0.225 -2.266,0.225c-1.198,0 -2.078,-0.258 -2.642,-0.772c-0.563,-0.514 -0.844,-1.335 -0.844,-2.461l0.009,-1.162l0,-3.135l-1.484,0l0,-2.529l1.484,0l0.059,-3.232l3.701,-0.059l0,3.291l1.983,0Z" style="fill-rule:nonzero;"/><path d="M779.774,446.278l0,7.403l-3.672,0l0,-7.403l-1.484,0l0,-2.529l1.484,0c0,-0.82 0.036,-1.427 0.107,-1.821c0.072,-0.394 0.251,-0.772 0.537,-1.133c0.287,-0.362 0.671,-0.638 1.153,-0.83c0.482,-0.192 1.129,-0.288 1.943,-0.288c0.873,0 1.709,0.068 2.51,0.205l0,2.549c-0.619,-0.085 -1.081,-0.127 -1.387,-0.127c-0.306,0 -0.586,0.061 -0.84,0.185c-0.254,0.124 -0.38,0.427 -0.38,0.908l0,0.352l2.539,0l0,2.529l-2.51,0Z" style="fill-rule:nonzero;"/><path d="M788.27,453.886c-1.647,0 -2.956,-0.513 -3.926,-1.538c-0.97,-1.026 -1.455,-2.229 -1.455,-3.609c0,-1.484 0.506,-2.721 1.519,-3.711c1.012,-0.989 2.329,-1.484 3.95,-1.484c1.634,0 2.947,0.488 3.94,1.465c0.993,0.976 1.489,2.2 1.489,3.672c0,1.484 -0.502,2.723 -1.508,3.715c-1.006,0.993 -2.342,1.49 -4.009,1.49Zm0.059,-2.364c0.605,0 0.974,-0.314 1.108,-0.942c0.133,-0.628 0.2,-1.284 0.2,-1.968c0,-0.931 -0.094,-1.601 -0.283,-2.012c-0.189,-0.41 -0.527,-0.615 -1.016,-0.615c-0.449,0 -0.778,0.212 -0.986,0.635c-0.208,0.423 -0.313,1.12 -0.313,2.09c0,1.139 0.108,1.893 0.323,2.261c0.215,0.367 0.537,0.551 0.967,0.551Z" style="fill-rule:nonzero;"/><path d="M799.032,453.681l-3.731,0l0,-9.932l3.242,0l0,2.051c0.371,-1.491 1.234,-2.237 2.588,-2.237c0.137,0 0.326,0.013 0.567,0.039l0,3.467c-0.274,-0.065 -0.518,-0.097 -0.733,-0.097c-1.289,0 -1.933,0.719 -1.933,2.158l0,4.551Z" style="fill-rule:nonzero;"/><path d="M826.473,443.749l0,2.529l-1.982,0l0,3.662c0,0.502 0.094,0.799 0.283,0.894c0.189,0.094 0.384,0.141 0.586,0.141c0.312,0 0.683,-0.055 1.113,-0.166l0,2.774c-0.768,0.15 -1.523,0.225 -2.266,0.225c-1.197,0 -2.078,-0.258 -2.641,-0.772c-0.563,-0.514 -0.845,-1.335 -0.845,-2.461l0.01,-1.162l0,-3.135l-1.485,0l0,-2.529l1.485,0l0.058,-3.232l3.702,-0.059l0,3.291l1.982,0Z" style="fill-rule:nonzero;"/><path d="M837.528,453.681l-3.897,0l0,-5.977c0,-0.547 -0.06,-0.923 -0.179,-1.128c-0.12,-0.205 -0.352,-0.308 -0.695,-0.308c-0.266,0 -0.497,0.08 -0.695,0.24c-0.198,0.159 -0.313,0.324 -0.345,0.493c-0.032,0.169 -0.049,0.524 -0.049,1.064l0,5.616l-3.896,0l0,-13.331l3.896,0l0,4.571c0.703,-0.918 1.621,-1.377 2.754,-1.377c0.573,0 1.076,0.099 1.509,0.298c0.433,0.198 0.767,0.454 1.001,0.766c0.234,0.313 0.392,0.616 0.474,0.909c0.081,0.292 0.122,0.859 0.122,1.699l0,6.465Z" style="fill-rule:nonzero;"/><path d="M843.485,439.931l0,3.086l-3.897,0l0,-3.086l3.897,0Zm0,3.818l0,9.932l-3.897,0l0,-9.932l3.897,0Z" style="fill-rule:nonzero;"/><path d="M844.657,450.868l3.076,-0.42c0.176,0.716 0.872,1.074 2.09,1.074c1.009,0 1.513,-0.195 1.513,-0.586c0,-0.169 -0.097,-0.301 -0.293,-0.395c-0.195,-0.094 -0.657,-0.191 -1.386,-0.288c-2.019,-0.28 -3.278,-0.718 -3.78,-1.314c-0.501,-0.596 -0.752,-1.258 -0.752,-1.987c0,-1.016 0.424,-1.838 1.27,-2.466c0.846,-0.628 1.956,-0.942 3.33,-0.942c2.409,0 3.945,0.869 4.609,2.607l-2.949,0.557c-0.273,-0.586 -0.849,-0.879 -1.728,-0.879c-0.417,0 -0.728,0.057 -0.933,0.171c-0.205,0.114 -0.308,0.226 -0.308,0.337c0,0.325 0.313,0.523 0.938,0.594c1.628,0.18 2.732,0.365 3.311,0.554c0.579,0.189 1.074,0.534 1.484,1.036c0.41,0.501 0.615,1.107 0.615,1.817c0,1.088 -0.454,1.951 -1.362,2.59c-0.908,0.638 -2.16,0.958 -3.755,0.958c-2.689,0 -4.352,-1.006 -4.99,-3.018Z" style="fill-rule:nonzero;"/><path d="M879.676,443.749l0,2.529l-1.982,0l0,3.662c0,0.502 0.094,0.799 0.283,0.894c0.189,0.094 0.384,0.141 0.586,0.141c0.312,0 0.683,-0.055 1.113,-0.166l0,2.774c-0.768,0.15 -1.523,0.225 -2.265,0.225c-1.198,0 -2.079,-0.258 -2.642,-0.772c-0.563,-0.514 -0.845,-1.335 -0.845,-2.461l0.01,-1.162l0,-3.135l-1.484,0l0,-2.529l1.484,0l0.059,-3.232l3.701,-0.059l0,3.291l1.982,0Z" style="fill-rule:nonzero;"/><path d="M884.871,439.931l0,3.086l-3.896,0l0,-3.086l3.896,0Zm0,3.818l0,9.932l-3.896,0l0,-9.932l3.896,0Z" style="fill-rule:nonzero;"/><rect x="886.922" y="440.35" width="3.838" height="13.33" style="fill-rule:nonzero;"/><path d="M899.373,450.116l3.633,0.244c-0.215,0.977 -0.763,1.809 -1.645,2.495c-0.882,0.687 -2.075,1.031 -3.579,1.031c-1.674,0 -3.008,-0.484 -4.004,-1.451c-0.996,-0.966 -1.494,-2.166 -1.494,-3.598c0,-1.485 0.491,-2.738 1.474,-3.76c0.983,-1.022 2.295,-1.533 3.936,-1.533c1.588,0 2.872,0.482 3.852,1.445c0.98,0.964 1.47,2.276 1.47,3.936c0,0.136 -0.003,0.325 -0.01,0.566l-6.65,0c0.013,0.625 0.124,1.089 0.332,1.392c0.208,0.302 0.605,0.454 1.191,0.454c0.847,0 1.345,-0.407 1.494,-1.221Zm-0.263,-2.578c-0.007,-0.671 -0.141,-1.121 -0.404,-1.353c-0.263,-0.231 -0.589,-0.346 -0.978,-0.346c-0.921,0 -1.382,0.566 -1.382,1.699l2.764,0Z" style="fill-rule:nonzero;"/><rect x="904.403" y="450.116" width="3.711" height="3.564" style="fill-rule:nonzero;"/><path d="M595.653,465.544l0,10.137l-3.877,0l0,-10.137l-2.764,0l0,-3.194l9.404,0l0,3.194l-2.763,0Z" style="fill-rule:nonzero;"/><path d="M609.198,475.681l-3.897,0l0,-5.977c0,-0.547 -0.06,-0.923 -0.18,-1.128c-0.119,-0.205 -0.351,-0.308 -0.694,-0.308c-0.266,0 -0.498,0.08 -0.695,0.24c-0.198,0.159 -0.313,0.324 -0.345,0.493c-0.033,0.169 -0.049,0.524 -0.049,1.064l0,5.616l-3.896,0l0,-13.331l3.896,0l0,4.571c0.703,-0.918 1.621,-1.377 2.754,-1.377c0.573,0 1.076,0.099 1.509,0.298c0.433,0.198 0.767,0.454 1.001,0.766c0.234,0.313 0.392,0.616 0.474,0.909c0.081,0.292 0.122,0.859 0.122,1.699l0,6.465Z" style="fill-rule:nonzero;"/><path d="M617.821,472.116l3.633,0.244c-0.215,0.977 -0.764,1.809 -1.646,2.495c-0.882,0.687 -2.075,1.031 -3.579,1.031c-1.673,0 -3.008,-0.484 -4.004,-1.451c-0.996,-0.966 -1.494,-2.166 -1.494,-3.598c0,-1.485 0.491,-2.738 1.474,-3.76c0.984,-1.022 2.295,-1.533 3.936,-1.533c1.589,0 2.873,0.482 3.853,1.445c0.979,0.964 1.469,2.276 1.469,3.936c0,0.136 -0.003,0.325 -0.009,0.566l-6.651,0c0.013,0.625 0.124,1.089 0.332,1.392c0.208,0.302 0.606,0.454 1.192,0.454c0.846,0 1.344,-0.407 1.494,-1.221Zm-0.264,-2.578c-0.006,-0.671 -0.141,-1.121 -0.404,-1.353c-0.263,-0.231 -0.589,-0.346 -0.978,-0.346c-0.921,0 -1.382,0.566 -1.382,1.699l2.764,0Z" style="fill-rule:nonzero;"/><path d="M626.717,475.681l-3.73,0l0,-9.932l3.242,0l0,2.051c0.371,-1.491 1.234,-2.237 2.588,-2.237c0.137,0 0.325,0.013 0.566,0.039l0,3.467c-0.273,-0.065 -0.517,-0.097 -0.732,-0.097c-1.289,0 -1.934,0.719 -1.934,2.158l0,4.551Z" style="fill-rule:nonzero;"/><path d="M637.176,472.116l3.633,0.244c-0.215,0.977 -0.763,1.809 -1.646,2.495c-0.882,0.687 -2.075,1.031 -3.579,1.031c-1.673,0 -3.007,-0.484 -4.004,-1.451c-0.996,-0.966 -1.494,-2.166 -1.494,-3.598c0,-1.485 0.492,-2.738 1.475,-3.76c0.983,-1.022 2.295,-1.533 3.935,-1.533c1.589,0 2.873,0.482 3.853,1.445c0.98,0.964 1.47,2.276 1.47,3.936c0,0.136 -0.004,0.325 -0.01,0.566l-6.65,0c0.013,0.625 0.123,1.089 0.332,1.392c0.208,0.302 0.605,0.454 1.191,0.454c0.846,0 1.344,-0.407 1.494,-1.221Zm-0.264,-2.578c-0.006,-0.671 -0.141,-1.121 -0.403,-1.353c-0.263,-0.231 -0.589,-0.346 -0.978,-0.346c-0.922,0 -1.382,0.566 -1.382,1.699l2.763,0Z" style="fill-rule:nonzero;"/><path d="M665.069,465.749l-3.143,9.932l-2.803,0l-1.3,-5.381l-1.358,5.381l-2.773,0l-3.203,-9.932l3.827,0l1.311,4.863l1.249,-4.863l2.882,0l1.232,4.859l1.375,-4.859l2.704,0Z" style="fill-rule:nonzero;"/><path d="M670.801,475.886c-1.647,0 -2.956,-0.513 -3.926,-1.538c-0.97,-1.026 -1.455,-2.229 -1.455,-3.609c0,-1.484 0.506,-2.721 1.519,-3.711c1.012,-0.989 2.329,-1.484 3.95,-1.484c1.634,0 2.948,0.488 3.94,1.465c0.993,0.976 1.49,2.2 1.49,3.672c0,1.484 -0.503,2.723 -1.509,3.715c-1.006,0.993 -2.342,1.49 -4.009,1.49Zm0.059,-2.364c0.605,0 0.975,-0.314 1.108,-0.942c0.134,-0.628 0.2,-1.284 0.2,-1.968c0,-0.931 -0.094,-1.601 -0.283,-2.012c-0.189,-0.41 -0.527,-0.615 -1.015,-0.615c-0.45,0 -0.778,0.212 -0.987,0.635c-0.208,0.423 -0.312,1.12 -0.312,2.09c0,1.139 0.107,1.893 0.322,2.261c0.215,0.367 0.537,0.551 0.967,0.551Z" style="fill-rule:nonzero;"/><path d="M687.491,465.749l0,9.932l-3.604,0l0,-1.631c-0.527,1.224 -1.556,1.836 -3.086,1.836c-0.944,0 -1.675,-0.262 -2.192,-0.786c-0.518,-0.525 -0.777,-1.275 -0.777,-2.251l0,-7.1l3.897,0l0,6.25c0,0.391 0.054,0.666 0.161,0.825c0.107,0.16 0.317,0.239 0.63,0.239c0.332,0 0.602,-0.118 0.81,-0.356c0.209,-0.238 0.313,-0.571 0.313,-1.001l0,-5.957l3.848,0Z" style="fill-rule:nonzero;"/><rect x="689.541" y="462.35" width="3.838" height="13.33" style="fill-rule:nonzero;"/><path d="M705.127,475.681l-3.652,0l0,-1.319c-0.54,1.016 -1.432,1.524 -2.676,1.524c-1.146,0 -2.075,-0.448 -2.788,-1.343c-0.713,-0.895 -1.069,-2.196 -1.069,-3.901c0,-1.596 0.358,-2.862 1.074,-3.799c0.716,-0.938 1.663,-1.407 2.842,-1.407c0.983,0 1.793,0.375 2.431,1.123l0,-4.209l3.838,0l0,13.331Zm-3.838,-6.387c0,-0.892 -0.367,-1.338 -1.103,-1.338c-0.514,0 -0.851,0.283 -1.011,0.85c-0.159,0.566 -0.239,1.259 -0.239,2.08c0,1.608 0.41,2.412 1.23,2.412c0.313,0 0.578,-0.127 0.796,-0.381c0.218,-0.254 0.327,-0.641 0.327,-1.162l0,-2.461Z" style="fill-rule:nonzero;"/><path d="M718.43,475.681l-2.197,0l0,-13.331l3.838,0l0,4.581c0.534,-0.925 1.383,-1.387 2.549,-1.387c0.82,0 1.516,0.215 2.089,0.644c0.573,0.43 1,1.044 1.28,1.841c0.28,0.798 0.42,1.636 0.42,2.515c0,1.601 -0.358,2.892 -1.075,3.872c-0.716,0.98 -1.783,1.47 -3.203,1.47c-1.399,0 -2.464,-0.524 -3.193,-1.573c-0.208,0.391 -0.378,0.847 -0.508,1.368Zm1.641,-3.702c0,0.977 0.377,1.465 1.133,1.465c0.41,0 0.724,-0.177 0.942,-0.532c0.218,-0.355 0.327,-1.086 0.327,-2.192c0,-1.205 -0.124,-1.962 -0.371,-2.271c-0.247,-0.309 -0.553,-0.464 -0.918,-0.464c-0.286,0 -0.544,0.111 -0.772,0.332c-0.227,0.222 -0.341,0.544 -0.341,0.967l0,2.695Z" style="fill-rule:nonzero;"/><path d="M734.524,472.116l3.633,0.244c-0.215,0.977 -0.764,1.809 -1.646,2.495c-0.882,0.687 -2.075,1.031 -3.579,1.031c-1.673,0 -3.008,-0.484 -4.004,-1.451c-0.996,-0.966 -1.494,-2.166 -1.494,-3.598c0,-1.485 0.492,-2.738 1.475,-3.76c0.983,-1.022 2.295,-1.533 3.935,-1.533c1.589,0 2.873,0.482 3.853,1.445c0.979,0.964 1.469,2.276 1.469,3.936c0,0.136 -0.003,0.325 -0.009,0.566l-6.651,0c0.013,0.625 0.124,1.089 0.332,1.392c0.209,0.302 0.606,0.454 1.192,0.454c0.846,0 1.344,-0.407 1.494,-1.221Zm-0.264,-2.578c-0.006,-0.671 -0.141,-1.121 -0.404,-1.353c-0.263,-0.231 -0.588,-0.346 -0.978,-0.346c-0.921,0 -1.382,0.566 -1.382,1.699l2.764,0Z" style="fill-rule:nonzero;"/><path d="M747.846,472.868l3.076,-0.42c0.176,0.716 0.873,1.074 2.09,1.074c1.009,0 1.514,-0.195 1.514,-0.586c0,-0.169 -0.098,-0.301 -0.293,-0.395c-0.196,-0.094 -0.658,-0.191 -1.387,-0.288c-2.018,-0.28 -3.278,-0.718 -3.779,-1.314c-0.502,-0.596 -0.752,-1.258 -0.752,-1.987c0,-1.016 0.423,-1.838 1.269,-2.466c0.847,-0.628 1.957,-0.942 3.33,-0.942c2.409,0 3.946,0.869 4.61,2.607l-2.949,0.557c-0.274,-0.586 -0.85,-0.879 -1.729,-0.879c-0.417,0 -0.727,0.057 -0.933,0.171c-0.205,0.114 -0.307,0.226 -0.307,0.337c0,0.325 0.312,0.523 0.938,0.594c1.627,0.18 2.731,0.365 3.31,0.554c0.58,0.189 1.074,0.534 1.484,1.036c0.41,0.501 0.616,1.107 0.616,1.817c0,1.088 -0.455,1.951 -1.363,2.59c-0.908,0.638 -2.16,0.958 -3.755,0.958c-2.688,0 -4.352,-1.006 -4.99,-3.018Z" style="fill-rule:nonzero;"/><path d="M764.174,475.886c-1.647,0 -2.956,-0.513 -3.926,-1.538c-0.97,-1.026 -1.455,-2.229 -1.455,-3.609c0,-1.484 0.507,-2.721 1.519,-3.711c1.012,-0.989 2.329,-1.484 3.95,-1.484c1.634,0 2.948,0.488 3.941,1.465c0.992,0.976 1.489,2.2 1.489,3.672c0,1.484 -0.503,2.723 -1.509,3.715c-1.006,0.993 -2.342,1.49 -4.009,1.49Zm0.059,-2.364c0.605,0 0.975,-0.314 1.108,-0.942c0.134,-0.628 0.2,-1.284 0.2,-1.968c0,-0.931 -0.094,-1.601 -0.283,-2.012c-0.189,-0.41 -0.527,-0.615 -1.015,-0.615c-0.45,0 -0.778,0.212 -0.987,0.635c-0.208,0.423 -0.312,1.12 -0.312,2.09c0,1.139 0.107,1.893 0.322,2.261c0.215,0.367 0.537,0.551 0.967,0.551Z" style="fill-rule:nonzero;"/><path d="M786.254,475.681l-3.779,0l0,-6.211c0,-0.417 -0.06,-0.708 -0.181,-0.874c-0.12,-0.166 -0.333,-0.249 -0.639,-0.249c-0.729,0 -1.094,0.53 -1.094,1.591l0,5.743l-3.74,0l0,-6.211c0,-0.795 -0.306,-1.192 -0.918,-1.192c-0.632,0 -0.948,0.397 -0.948,1.192l0,6.211l-3.75,0l0,-9.932l3.497,0l0,1.338c0.625,-1.029 1.533,-1.543 2.724,-1.543c1.283,0 2.214,0.514 2.793,1.543c0.645,-1.029 1.634,-1.543 2.969,-1.543c0.638,0 1.199,0.133 1.684,0.4c0.485,0.267 0.837,0.611 1.055,1.031c0.218,0.419 0.327,1.069 0.327,1.948l0,6.758Z" style="fill-rule:nonzero;"/><path d="M794.877,472.116l3.633,0.244c-0.215,0.977 -0.763,1.809 -1.645,2.495c-0.883,0.687 -2.076,1.031 -3.579,1.031c-1.674,0 -3.008,-0.484 -4.004,-1.451c-0.996,-0.966 -1.495,-2.166 -1.495,-3.598c0,-1.485 0.492,-2.738 1.475,-3.76c0.983,-1.022 2.295,-1.533 3.936,-1.533c1.588,0 2.872,0.482 3.852,1.445c0.98,0.964 1.47,2.276 1.47,3.936c0,0.136 -0.003,0.325 -0.01,0.566l-6.65,0c0.013,0.625 0.123,1.089 0.332,1.392c0.208,0.302 0.605,0.454 1.191,0.454c0.847,0 1.345,-0.407 1.494,-1.221Zm-0.263,-2.578c-0.007,-0.671 -0.141,-1.121 -0.404,-1.353c-0.263,-0.231 -0.589,-0.346 -0.978,-0.346c-0.921,0 -1.382,0.566 -1.382,1.699l2.764,0Z" style="fill-rule:nonzero;"/><path d="M812.975,461.931l0,3.086l-3.896,0l0,-3.086l3.896,0Zm0,3.818l0,9.932l-3.896,0l0,-9.932l3.896,0Z" style="fill-rule:nonzero;"/><path d="M824.723,475.681l-3.896,0l0,-6.25c0,-0.515 -0.08,-0.844 -0.24,-0.987c-0.159,-0.143 -0.359,-0.215 -0.6,-0.215c-0.71,0 -1.065,0.495 -1.065,1.485l0,5.967l-3.896,0l0,-9.932l3.613,0l0,1.406c0.534,-1.074 1.488,-1.611 2.861,-1.611c0.723,0 1.333,0.138 1.831,0.415c0.498,0.277 0.855,0.635 1.07,1.074c0.215,0.44 0.322,1.203 0.322,2.29l0,6.358Z" style="fill-rule:nonzero;"/><path d="M830.973,468.278l0,7.403l-3.672,0l0,-7.403l-1.484,0l0,-2.529l1.484,0c0,-0.82 0.036,-1.427 0.108,-1.821c0.071,-0.394 0.25,-0.772 0.537,-1.133c0.286,-0.362 0.67,-0.638 1.152,-0.83c0.482,-0.192 1.13,-0.288 1.943,-0.288c0.873,0 1.709,0.068 2.51,0.205l0,2.549c-0.618,-0.085 -1.081,-0.127 -1.387,-0.127c-0.306,0 -0.585,0.061 -0.839,0.185c-0.254,0.124 -0.381,0.427 -0.381,0.908l0,0.352l2.539,0l0,2.529l-2.51,0Z" style="fill-rule:nonzero;"/><path d="M839.469,475.886c-1.647,0 -2.956,-0.513 -3.926,-1.538c-0.97,-1.026 -1.455,-2.229 -1.455,-3.609c0,-1.484 0.506,-2.721 1.519,-3.711c1.012,-0.989 2.329,-1.484 3.95,-1.484c1.634,0 2.948,0.488 3.94,1.465c0.993,0.976 1.49,2.2 1.49,3.672c0,1.484 -0.503,2.723 -1.509,3.715c-1.006,0.993 -2.342,1.49 -4.009,1.49Zm0.059,-2.364c0.605,0 0.975,-0.314 1.108,-0.942c0.134,-0.628 0.2,-1.284 0.2,-1.968c0,-0.931 -0.094,-1.601 -0.283,-2.012c-0.189,-0.41 -0.527,-0.615 -1.016,-0.615c-0.449,0 -0.777,0.212 -0.986,0.635c-0.208,0.423 -0.312,1.12 -0.312,2.09c0,1.139 0.107,1.893 0.322,2.261c0.215,0.367 0.537,0.551 0.967,0.551Z" style="fill-rule:nonzero;"/><path d="M865.545,475.681l-3.711,0c-0.091,-0.424 -0.136,-0.886 -0.136,-1.387c-0.703,1.061 -1.768,1.592 -3.194,1.592c-1.172,0 -2.049,-0.3 -2.632,-0.899c-0.582,-0.599 -0.874,-1.286 -0.874,-2.06c0,-1.049 0.477,-1.896 1.431,-2.544c0.954,-0.648 2.645,-1.037 5.073,-1.167l0,-0.225c0,-0.436 -0.099,-0.726 -0.298,-0.869c-0.198,-0.143 -0.489,-0.215 -0.874,-0.215c-0.898,0 -1.399,0.361 -1.503,1.084l-3.555,-0.332c0.508,-2.077 2.236,-3.115 5.185,-3.115c0.801,0 1.537,0.08 2.207,0.239c0.671,0.16 1.202,0.409 1.592,0.747c0.391,0.339 0.653,0.697 0.786,1.074c0.134,0.378 0.201,1.104 0.201,2.178l0,3.965c0,0.755 0.1,1.4 0.302,1.934Zm-4.043,-4.649c-1.66,0.176 -2.49,0.707 -2.49,1.592c0,0.599 0.329,0.898 0.986,0.898c0.417,0 0.772,-0.123 1.065,-0.371c0.293,-0.247 0.439,-0.794 0.439,-1.64l0,-0.479Z" style="fill-rule:nonzero;"/><path d="M869.481,475.681l-2.197,0l0,-13.331l3.837,0l0,4.581c0.534,-0.925 1.384,-1.387 2.549,-1.387c0.821,0 1.517,0.215 2.09,0.644c0.573,0.43 1,1.044 1.279,1.841c0.28,0.798 0.42,1.636 0.42,2.515c0,1.601 -0.358,2.892 -1.074,3.872c-0.716,0.98 -1.784,1.47 -3.203,1.47c-1.4,0 -2.464,-0.524 -3.193,-1.573c-0.209,0.391 -0.378,0.847 -0.508,1.368Zm1.64,-3.702c0,0.977 0.378,1.465 1.133,1.465c0.41,0 0.725,-0.177 0.943,-0.532c0.218,-0.355 0.327,-1.086 0.327,-2.192c0,-1.205 -0.124,-1.962 -0.371,-2.271c-0.248,-0.309 -0.554,-0.464 -0.918,-0.464c-0.287,0 -0.544,0.111 -0.772,0.332c-0.228,0.222 -0.342,0.544 -0.342,0.967l0,2.695Z" style="fill-rule:nonzero;"/><path d="M883.866,475.886c-1.648,0 -2.956,-0.513 -3.926,-1.538c-0.97,-1.026 -1.455,-2.229 -1.455,-3.609c0,-1.484 0.506,-2.721 1.518,-3.711c1.013,-0.989 2.329,-1.484 3.951,-1.484c1.634,0 2.947,0.488 3.94,1.465c0.993,0.976 1.489,2.2 1.489,3.672c0,1.484 -0.503,2.723 -1.509,3.715c-1.005,0.993 -2.342,1.49 -4.008,1.49Zm0.058,-2.364c0.606,0 0.975,-0.314 1.109,-0.942c0.133,-0.628 0.2,-1.284 0.2,-1.968c0,-0.931 -0.095,-1.601 -0.283,-2.012c-0.189,-0.41 -0.528,-0.615 -1.016,-0.615c-0.449,0 -0.778,0.212 -0.986,0.635c-0.209,0.423 -0.313,1.12 -0.313,2.09c0,1.139 0.108,1.893 0.322,2.261c0.215,0.367 0.538,0.551 0.967,0.551Z" style="fill-rule:nonzero;"/><path d="M900.555,465.749l0,9.932l-3.603,0l0,-1.631c-0.528,1.224 -1.556,1.836 -3.086,1.836c-0.944,0 -1.675,-0.262 -2.193,-0.786c-0.517,-0.525 -0.776,-1.275 -0.776,-2.251l0,-7.1l3.896,0l0,6.25c0,0.391 0.054,0.666 0.161,0.825c0.108,0.16 0.318,0.239 0.63,0.239c0.332,0 0.603,-0.118 0.811,-0.356c0.208,-0.238 0.312,-0.571 0.312,-1.001l0,-5.957l3.848,0Z" style="fill-rule:nonzero;"/><path d="M908.739,465.749l0,2.529l-1.983,0l0,3.662c0,0.502 0.095,0.799 0.283,0.894c0.189,0.094 0.385,0.141 0.586,0.141c0.313,0 0.684,-0.055 1.114,-0.166l0,2.774c-0.769,0.15 -1.524,0.225 -2.266,0.225c-1.198,0 -2.078,-0.258 -2.642,-0.772c-0.563,-0.514 -0.844,-1.335 -0.844,-2.461l0.009,-1.162l0,-3.135l-1.484,0l0,-2.529l1.484,0l0.059,-3.232l3.701,-0.059l0,3.291l1.983,0Z" style="fill-rule:nonzero;"/><path d="M596.17,487.749l0,2.529l-1.982,0l0,3.662c0,0.502 0.094,0.799 0.283,0.894c0.189,0.094 0.384,0.141 0.586,0.141c0.313,0 0.684,-0.055 1.113,-0.166l0,2.774c-0.768,0.15 -1.523,0.225 -2.265,0.225c-1.198,0 -2.079,-0.258 -2.642,-0.772c-0.563,-0.514 -0.845,-1.335 -0.845,-2.461l0.01,-1.162l0,-3.135l-1.484,0l0,-2.529l1.484,0l0.059,-3.232l3.701,-0.059l0,3.291l1.982,0Z" style="fill-rule:nonzero;"/><path d="M607.225,497.681l-3.896,0l0,-5.977c0,-0.547 -0.06,-0.923 -0.18,-1.128c-0.12,-0.205 -0.352,-0.308 -0.695,-0.308c-0.266,0 -0.497,0.08 -0.695,0.24c-0.197,0.159 -0.312,0.324 -0.345,0.493c-0.032,0.169 -0.048,0.524 -0.048,1.064l0,5.616l-3.897,0l0,-13.331l3.897,0l0,4.571c0.703,-0.918 1.621,-1.377 2.754,-1.377c0.572,0 1.075,0.099 1.508,0.298c0.433,0.198 0.767,0.454 1.001,0.766c0.235,0.313 0.393,0.616 0.474,0.909c0.081,0.292 0.122,0.859 0.122,1.699l0,6.465Z" style="fill-rule:nonzero;"/><path d="M613.182,483.931l0,3.086l-3.896,0l0,-3.086l3.896,0Zm0,3.818l0,9.932l-3.896,0l0,-9.932l3.896,0Z" style="fill-rule:nonzero;"/><path d="M614.354,494.868l3.076,-0.42c0.176,0.716 0.872,1.074 2.09,1.074c1.009,0 1.514,-0.195 1.514,-0.586c0,-0.169 -0.098,-0.301 -0.293,-0.395c-0.196,-0.094 -0.658,-0.191 -1.387,-0.288c-2.018,-0.28 -3.278,-0.718 -3.779,-1.314c-0.502,-0.596 -0.752,-1.258 -0.752,-1.987c0,-1.016 0.423,-1.838 1.269,-2.466c0.847,-0.628 1.957,-0.942 3.33,-0.942c2.409,0 3.946,0.869 4.61,2.607l-2.95,0.557c-0.273,-0.586 -0.849,-0.879 -1.728,-0.879c-0.417,0 -0.728,0.057 -0.933,0.171c-0.205,0.114 -0.307,0.226 -0.307,0.337c0,0.325 0.312,0.523 0.937,0.594c1.628,0.18 2.732,0.365 3.311,0.554c0.58,0.189 1.074,0.534 1.484,1.036c0.41,0.501 0.615,1.107 0.615,1.817c0,1.088 -0.454,1.951 -1.362,2.59c-0.908,0.638 -2.16,0.958 -3.755,0.958c-2.689,0 -4.352,-1.006 -4.99,-3.018Z" style="fill-rule:nonzero;"/><path d="M644.611,487.749l-3.143,9.932l-2.803,0l-1.3,-5.381l-1.358,5.381l-2.773,0l-3.203,-9.932l3.828,0l1.311,4.863l1.248,-4.863l2.883,0l1.231,4.859l1.375,-4.859l2.704,0Z" style="fill-rule:nonzero;"/><path d="M650.343,497.886c-1.647,0 -2.955,-0.513 -3.925,-1.538c-0.97,-1.026 -1.455,-2.229 -1.455,-3.609c0,-1.484 0.506,-2.721 1.518,-3.711c1.013,-0.989 2.329,-1.484 3.95,-1.484c1.634,0 2.948,0.488 3.941,1.465c0.993,0.976 1.489,2.2 1.489,3.672c0,1.484 -0.503,2.723 -1.509,3.715c-1.006,0.993 -2.342,1.49 -4.009,1.49Zm0.059,-2.364c0.606,0 0.975,-0.314 1.108,-0.942c0.134,-0.628 0.201,-1.284 0.201,-1.968c0,-0.931 -0.095,-1.601 -0.284,-2.012c-0.188,-0.41 -0.527,-0.615 -1.015,-0.615c-0.449,0 -0.778,0.212 -0.986,0.635c-0.209,0.423 -0.313,1.12 -0.313,2.09c0,1.139 0.107,1.893 0.322,2.261c0.215,0.367 0.537,0.551 0.967,0.551Z" style="fill-rule:nonzero;"/><path d="M661.105,497.681l-3.73,0l0,-9.932l3.242,0l0,2.051c0.371,-1.491 1.234,-2.237 2.588,-2.237c0.137,0 0.325,0.013 0.566,0.039l0,3.467c-0.273,-0.065 -0.517,-0.097 -0.732,-0.097c-1.289,0 -1.934,0.719 -1.934,2.158l0,4.551Z" style="fill-rule:nonzero;"/><path d="M675.265,487.749l-3.001,3.412l3.343,6.52l-4.028,0l-1.863,-3.977l-1.062,1.242l0,2.735l-3.652,0l0,-13.331l3.652,0l0,5.381c0,0.15 -0.01,0.749 -0.029,1.797c0.234,-0.332 0.472,-0.635 0.713,-0.908l2.493,-2.871l3.434,0Z" style="fill-rule:nonzero;"/><rect x="676.681" y="494.116" width="3.711" height="3.564" style="fill-rule:nonzero;"/><path d="M693.023,487.544l0,10.137l-3.877,0l0,-10.137l-2.764,0l0,-3.194l9.404,0l0,3.194l-2.763,0Z" style="fill-rule:nonzero;"/><path d="M702.573,494.116l3.633,0.244c-0.215,0.977 -0.763,1.809 -1.645,2.495c-0.883,0.687 -2.076,1.031 -3.579,1.031c-1.674,0 -3.008,-0.484 -4.004,-1.451c-0.996,-0.966 -1.495,-2.166 -1.495,-3.598c0,-1.485 0.492,-2.738 1.475,-3.76c0.983,-1.022 2.295,-1.533 3.936,-1.533c1.588,0 2.872,0.482 3.852,1.445c0.98,0.964 1.47,2.276 1.47,3.936c0,0.136 -0.003,0.325 -0.01,0.566l-6.65,0c0.013,0.625 0.123,1.089 0.332,1.392c0.208,0.302 0.605,0.454 1.191,0.454c0.847,0 1.345,-0.407 1.494,-1.221Zm-0.263,-2.578c-0.007,-0.671 -0.142,-1.121 -0.404,-1.353c-0.263,-0.231 -0.589,-0.346 -0.978,-0.346c-0.921,0 -1.382,0.566 -1.382,1.699l2.764,0Z" style="fill-rule:nonzero;"/><path d="M717.603,497.681l-4.39,0l-1.822,-3.173l-1.95,3.173l-3.167,0l3.488,-5.266l-3.058,-4.666l4.331,0l1.025,1.852c0.046,0.084 0.101,0.182 0.166,0.292c0.033,0.052 0.078,0.137 0.137,0.254c0.072,-0.111 0.16,-0.26 0.264,-0.449c0.013,-0.032 0.049,-0.101 0.108,-0.205l1.017,-1.744l3.216,0l-2.91,4.518l3.545,5.414Z" style="fill-rule:nonzero;"/><path d="M724.634,487.749l0,2.529l-1.983,0l0,3.662c0,0.502 0.095,0.799 0.284,0.894c0.188,0.094 0.384,0.141 0.586,0.141c0.312,0 0.683,-0.055 1.113,-0.166l0,2.774c-0.768,0.15 -1.524,0.225 -2.266,0.225c-1.198,0 -2.078,-0.258 -2.641,-0.772c-0.564,-0.514 -0.845,-1.335 -0.845,-2.461l0.01,-1.162l0,-3.135l-1.485,0l0,-2.529l1.485,0l0.058,-3.232l3.701,-0.059l0,3.291l1.983,0Z" style="fill-rule:nonzero;"/><path d="M744.715,487.749l-3.143,9.932l-2.803,0l-1.3,-5.381l-1.357,5.381l-2.774,0l-3.203,-9.932l3.828,0l1.311,4.863l1.249,-4.863l2.882,0l1.231,4.859l1.375,-4.859l2.704,0Z" style="fill-rule:nonzero;"/><path d="M750.448,497.886c-1.647,0 -2.956,-0.513 -3.926,-1.538c-0.97,-1.026 -1.455,-2.229 -1.455,-3.609c0,-1.484 0.506,-2.721 1.518,-3.711c1.013,-0.989 2.329,-1.484 3.951,-1.484c1.634,0 2.947,0.488 3.94,1.465c0.993,0.976 1.489,2.2 1.489,3.672c0,1.484 -0.503,2.723 -1.509,3.715c-1.005,0.993 -2.342,1.49 -4.008,1.49Zm0.058,-2.364c0.606,0 0.975,-0.314 1.109,-0.942c0.133,-0.628 0.2,-1.284 0.2,-1.968c0,-0.931 -0.095,-1.601 -0.283,-2.012c-0.189,-0.41 -0.528,-0.615 -1.016,-0.615c-0.449,0 -0.778,0.212 -0.986,0.635c-0.209,0.423 -0.313,1.12 -0.313,2.09c0,1.139 0.108,1.893 0.322,2.261c0.215,0.367 0.538,0.551 0.967,0.551Z" style="fill-rule:nonzero;"/><path d="M767.137,487.749l0,9.932l-3.603,0l0,-1.631c-0.528,1.224 -1.556,1.836 -3.086,1.836c-0.944,0 -1.675,-0.262 -2.193,-0.786c-0.517,-0.525 -0.776,-1.275 -0.776,-2.251l0,-7.1l3.896,0l0,6.25c0,0.391 0.054,0.666 0.162,0.825c0.107,0.16 0.317,0.239 0.629,0.239c0.332,0 0.603,-0.118 0.811,-0.356c0.208,-0.238 0.312,-0.571 0.312,-1.001l0,-5.957l3.848,0Z" style="fill-rule:nonzero;"/><rect x="769.188" y="484.35" width="3.838" height="13.33" style="fill-rule:nonzero;"/><path d="M784.774,497.681l-3.653,0l0,-1.319c-0.54,1.016 -1.432,1.524 -2.675,1.524c-1.146,0 -2.075,-0.448 -2.788,-1.343c-0.713,-0.895 -1.07,-2.196 -1.07,-3.901c0,-1.596 0.358,-2.862 1.074,-3.799c0.717,-0.938 1.664,-1.407 2.842,-1.407c0.983,0 1.794,0.375 2.432,1.123l0,-4.209l3.838,0l0,13.331Zm-3.838,-6.387c0,-0.892 -0.368,-1.338 -1.104,-1.338c-0.514,0 -0.851,0.283 -1.01,0.85c-0.16,0.566 -0.24,1.259 -0.24,2.08c0,1.608 0.411,2.412 1.231,2.412c0.312,0 0.578,-0.127 0.796,-0.381c0.218,-0.254 0.327,-0.641 0.327,-1.162l0,-2.461Z" style="fill-rule:nonzero;"/><path d="M794.133,497.681l-2.198,0l0,-13.331l3.838,0l0,4.581c0.534,-0.925 1.384,-1.387 2.549,-1.387c0.82,0 1.517,0.215 2.09,0.644c0.573,0.43 0.999,1.044 1.279,1.841c0.28,0.798 0.42,1.636 0.42,2.515c0,1.601 -0.358,2.892 -1.074,3.872c-0.716,0.98 -1.784,1.47 -3.203,1.47c-1.4,0 -2.464,-0.524 -3.194,-1.573c-0.208,0.391 -0.377,0.847 -0.507,1.368Zm1.64,-3.702c0,0.977 0.378,1.465 1.133,1.465c0.41,0 0.724,-0.177 0.942,-0.532c0.218,-0.355 0.328,-1.086 0.328,-2.192c0,-1.205 -0.124,-1.962 -0.372,-2.271c-0.247,-0.309 -0.553,-0.464 -0.918,-0.464c-0.286,0 -0.543,0.111 -0.771,0.332c-0.228,0.222 -0.342,0.544 -0.342,0.967l0,2.695Z" style="fill-rule:nonzero;"/><path d="M810.226,494.116l3.633,0.244c-0.215,0.977 -0.763,1.809 -1.645,2.495c-0.883,0.687 -2.076,1.031 -3.579,1.031c-1.674,0 -3.008,-0.484 -4.004,-1.451c-0.996,-0.966 -1.495,-2.166 -1.495,-3.598c0,-1.485 0.492,-2.738 1.475,-3.76c0.983,-1.022 2.295,-1.533 3.936,-1.533c1.588,0 2.872,0.482 3.852,1.445c0.98,0.964 1.47,2.276 1.47,3.936c0,0.136 -0.003,0.325 -0.01,0.566l-6.65,0c0.013,0.625 0.123,1.089 0.332,1.392c0.208,0.302 0.605,0.454 1.191,0.454c0.847,0 1.345,-0.407 1.494,-1.221Zm-0.263,-2.578c-0.007,-0.671 -0.142,-1.121 -0.404,-1.353c-0.263,-0.231 -0.589,-0.346 -0.978,-0.346c-0.921,0 -1.382,0.566 -1.382,1.699l2.764,0Z" style="fill-rule:nonzero;"/><path d="M834.175,487.749l-3.143,9.932l-2.803,0l-1.3,-5.381l-1.358,5.381l-2.773,0l-3.203,-9.932l3.827,0l1.311,4.863l1.249,-4.863l2.883,0l1.231,4.859l1.375,-4.859l2.704,0Z" style="fill-rule:nonzero;"/><path d="M839.067,497.681l-3.73,0l0,-9.932l3.242,0l0,2.051c0.371,-1.491 1.234,-2.237 2.588,-2.237c0.137,0 0.326,0.013 0.566,0.039l0,3.467c-0.273,-0.065 -0.517,-0.097 -0.732,-0.097c-1.289,0 -1.934,0.719 -1.934,2.158l0,4.551Z" style="fill-rule:nonzero;"/><path d="M846.86,483.931l0,3.086l-3.896,0l0,-3.086l3.896,0Zm0,3.818l0,9.932l-3.896,0l0,-9.932l3.896,0Z" style="fill-rule:nonzero;"/><path d="M855.044,487.749l0,2.529l-1.982,0l0,3.662c0,0.502 0.094,0.799 0.283,0.894c0.189,0.094 0.384,0.141 0.586,0.141c0.312,0 0.683,-0.055 1.113,-0.166l0,2.774c-0.768,0.15 -1.523,0.225 -2.266,0.225c-1.198,0 -2.078,-0.258 -2.641,-0.772c-0.563,-0.514 -0.845,-1.335 -0.845,-2.461l0.01,-1.162l0,-3.135l-1.485,0l0,-2.529l1.485,0l0.058,-3.232l3.702,-0.059l0,3.291l1.982,0Z" style="fill-rule:nonzero;"/><path d="M862.476,487.749l0,2.529l-1.983,0l0,3.662c0,0.502 0.095,0.799 0.283,0.894c0.189,0.094 0.385,0.141 0.586,0.141c0.313,0 0.684,-0.055 1.114,-0.166l0,2.774c-0.769,0.15 -1.524,0.225 -2.266,0.225c-1.198,0 -2.078,-0.258 -2.642,-0.772c-0.563,-0.514 -0.844,-1.335 -0.844,-2.461l0.009,-1.162l0,-3.135l-1.484,0l0,-2.529l1.484,0l0.059,-3.232l3.701,-0.059l0,3.291l1.983,0Z" style="fill-rule:nonzero;"/><path d="M870.337,494.116l3.633,0.244c-0.215,0.977 -0.764,1.809 -1.646,2.495c-0.882,0.687 -2.075,1.031 -3.579,1.031c-1.673,0 -3.008,-0.484 -4.004,-1.451c-0.996,-0.966 -1.494,-2.166 -1.494,-3.598c0,-1.485 0.492,-2.738 1.475,-3.76c0.983,-1.022 2.295,-1.533 3.935,-1.533c1.589,0 2.873,0.482 3.853,1.445c0.98,0.964 1.47,2.276 1.47,3.936c0,0.136 -0.004,0.325 -0.01,0.566l-6.651,0c0.013,0.625 0.124,1.089 0.332,1.392c0.209,0.302 0.606,0.454 1.192,0.454c0.846,0 1.344,-0.407 1.494,-1.221Zm-0.264,-2.578c-0.006,-0.671 -0.141,-1.121 -0.404,-1.353c-0.262,-0.231 -0.588,-0.346 -0.978,-0.346c-0.921,0 -1.381,0.566 -1.381,1.699l2.763,0Z" style="fill-rule:nonzero;"/><path d="M885.2,497.681l-3.896,0l0,-6.25c0,-0.515 -0.08,-0.844 -0.239,-0.987c-0.16,-0.143 -0.36,-0.215 -0.601,-0.215c-0.71,0 -1.065,0.495 -1.065,1.485l0,5.967l-3.896,0l0,-9.932l3.613,0l0,1.406c0.534,-1.074 1.488,-1.611 2.862,-1.611c0.722,0 1.333,0.138 1.831,0.415c0.498,0.277 0.854,0.635 1.069,1.074c0.215,0.44 0.322,1.203 0.322,2.29l0,6.358Z" style="fill-rule:nonzero;"/><path d="M896.239,483.931l0,3.086l-3.897,0l0,-3.086l3.897,0Zm0,3.818l0,9.932l-3.897,0l0,-9.932l3.897,0Z" style="fill-rule:nonzero;"/><path d="M907.987,497.681l-3.897,0l0,-6.25c0,-0.515 -0.08,-0.844 -0.239,-0.987c-0.16,-0.143 -0.36,-0.215 -0.601,-0.215c-0.709,0 -1.064,0.495 -1.064,1.485l0,5.967l-3.897,0l0,-9.932l3.614,0l0,1.406c0.534,-1.074 1.487,-1.611 2.861,-1.611c0.723,0 1.333,0.138 1.831,0.415c0.498,0.277 0.855,0.635 1.069,1.074c0.215,0.44 0.323,1.203 0.323,2.29l0,6.358Z" style="fill-rule:nonzero;"/><path d="M600.047,519.681l-3.711,0c-0.091,-0.424 -0.136,-0.886 -0.136,-1.387c-0.704,1.061 -1.768,1.592 -3.194,1.592c-1.172,0 -2.049,-0.3 -2.632,-0.899c-0.582,-0.599 -0.874,-1.286 -0.874,-2.06c0,-1.049 0.477,-1.896 1.431,-2.544c0.954,-0.648 2.645,-1.037 5.073,-1.167l0,-0.225c0,-0.436 -0.099,-0.726 -0.298,-0.869c-0.198,-0.143 -0.489,-0.215 -0.874,-0.215c-0.898,0 -1.399,0.361 -1.503,1.084l-3.555,-0.332c0.508,-2.077 2.236,-3.115 5.185,-3.115c0.801,0 1.537,0.08 2.207,0.239c0.671,0.16 1.202,0.409 1.592,0.747c0.391,0.339 0.653,0.697 0.786,1.074c0.134,0.378 0.201,1.104 0.201,2.178l0,3.965c0,0.755 0.1,1.4 0.302,1.934Zm-4.043,-4.649c-1.66,0.176 -2.49,0.707 -2.49,1.592c0,0.599 0.329,0.898 0.986,0.898c0.417,0 0.772,-0.123 1.065,-0.371c0.293,-0.247 0.439,-0.794 0.439,-1.64l0,-0.479Z" style="fill-rule:nonzero;"/><path d="M626.795,509.749l-3.143,9.932l-2.803,0l-1.3,-5.381l-1.357,5.381l-2.774,0l-3.203,-9.932l3.828,0l1.311,4.863l1.249,-4.863l2.882,0l1.231,4.859l1.375,-4.859l2.704,0Z" style="fill-rule:nonzero;"/><path d="M637.664,519.681l-3.71,0c-0.092,-0.424 -0.137,-0.886 -0.137,-1.387c-0.703,1.061 -1.768,1.592 -3.194,1.592c-1.171,0 -2.049,-0.3 -2.631,-0.899c-0.583,-0.599 -0.874,-1.286 -0.874,-2.06c0,-1.049 0.476,-1.896 1.43,-2.544c0.954,-0.648 2.645,-1.037 5.073,-1.167l0,-0.225c0,-0.436 -0.099,-0.726 -0.297,-0.869c-0.199,-0.143 -0.49,-0.215 -0.874,-0.215c-0.899,0 -1.4,0.361 -1.504,1.084l-3.555,-0.332c0.508,-2.077 2.236,-3.115 5.186,-3.115c0.8,0 1.536,0.08 2.207,0.239c0.67,0.16 1.201,0.409 1.591,0.747c0.391,0.339 0.653,0.697 0.787,1.074c0.133,0.378 0.2,1.104 0.2,2.178l0,3.965c0,0.755 0.101,1.4 0.302,1.934Zm-4.043,-4.649c-1.66,0.176 -2.49,0.707 -2.49,1.592c0,0.599 0.329,0.898 0.987,0.898c0.416,0 0.771,-0.123 1.064,-0.371c0.293,-0.247 0.439,-0.794 0.439,-1.64l0,-0.479Z" style="fill-rule:nonzero;"/><path d="M648.397,509.749l-3.897,10.762c-0.299,0.813 -0.729,1.45 -1.289,1.909c-0.56,0.459 -1.422,0.688 -2.588,0.688c-0.28,0 -0.931,-0.029 -1.953,-0.088l0,-2.763c0.508,0.078 0.977,0.117 1.407,0.117c1.119,0 1.679,-0.247 1.679,-0.742c0,-0.163 -0.055,-0.388 -0.166,-0.674l-3.564,-9.209l4.168,0l1.642,5.3l1.715,-5.3l2.846,0Z" style="fill-rule:nonzero;"/><path d="M652.362,516.136l0,3.271l-2.139,3.701l-1.533,0l1.533,-3.427l-1.572,0l0,-3.545l3.711,0Z" style="fill-rule:nonzero;"/><path d="M664.745,516.868l3.076,-0.42c0.175,0.716 0.872,1.074 2.09,1.074c1.009,0 1.513,-0.195 1.513,-0.586c0,-0.169 -0.097,-0.301 -0.293,-0.395c-0.195,-0.094 -0.657,-0.191 -1.386,-0.288c-2.019,-0.28 -3.278,-0.718 -3.78,-1.314c-0.501,-0.596 -0.752,-1.258 -0.752,-1.987c0,-1.016 0.423,-1.838 1.27,-2.466c0.846,-0.628 1.956,-0.942 3.33,-0.942c2.409,0 3.945,0.869 4.609,2.607l-2.949,0.557c-0.273,-0.586 -0.85,-0.879 -1.728,-0.879c-0.417,0 -0.728,0.057 -0.933,0.171c-0.205,0.114 -0.308,0.226 -0.308,0.337c0,0.325 0.313,0.523 0.938,0.594c1.628,0.18 2.731,0.365 3.311,0.554c0.579,0.189 1.074,0.534 1.484,1.036c0.41,0.501 0.615,1.107 0.615,1.817c0,1.088 -0.454,1.951 -1.362,2.59c-0.909,0.638 -2.16,0.958 -3.755,0.958c-2.689,0 -4.352,-1.006 -4.99,-3.018Z" style="fill-rule:nonzero;"/><path d="M681.073,519.886c-1.647,0 -2.956,-0.513 -3.926,-1.538c-0.97,-1.026 -1.455,-2.229 -1.455,-3.609c0,-1.484 0.506,-2.721 1.518,-3.711c1.013,-0.989 2.329,-1.484 3.951,-1.484c1.634,0 2.947,0.488 3.94,1.465c0.993,0.976 1.489,2.2 1.489,3.672c0,1.484 -0.503,2.723 -1.509,3.715c-1.005,0.993 -2.342,1.49 -4.008,1.49Zm0.058,-2.364c0.606,0 0.975,-0.314 1.109,-0.942c0.133,-0.628 0.2,-1.284 0.2,-1.968c0,-0.931 -0.095,-1.601 -0.283,-2.012c-0.189,-0.41 -0.528,-0.615 -1.016,-0.615c-0.449,0 -0.778,0.212 -0.986,0.635c-0.209,0.423 -0.313,1.12 -0.313,2.09c0,1.139 0.108,1.893 0.322,2.261c0.215,0.367 0.538,0.551 0.967,0.551Z" style="fill-rule:nonzero;"/><path d="M703.338,505.931l0,3.086l-3.896,0l0,-3.086l3.896,0Zm0,3.818l0,9.932l-3.896,0l0,-9.932l3.896,0Z" style="fill-rule:nonzero;"/><path d="M711.522,509.749l0,2.529l-1.983,0l0,3.662c0,0.502 0.095,0.799 0.284,0.894c0.188,0.094 0.384,0.141 0.586,0.141c0.312,0 0.683,-0.055 1.113,-0.166l0,2.774c-0.768,0.15 -1.524,0.225 -2.266,0.225c-1.198,0 -2.078,-0.258 -2.641,-0.772c-0.564,-0.514 -0.845,-1.335 -0.845,-2.461l0.01,-1.162l0,-3.135l-1.485,0l0,-2.529l1.485,0l0.058,-3.232l3.701,-0.059l0,3.291l1.983,0Z" style="fill-rule:nonzero;"/><path d="M737.85,509.749l-3.143,9.932l-2.803,0l-1.3,-5.381l-1.358,5.381l-2.773,0l-3.203,-9.932l3.828,0l1.31,4.863l1.249,-4.863l2.883,0l1.231,4.859l1.375,-4.859l2.704,0Z" style="fill-rule:nonzero;"/><path d="M743.582,519.886c-1.647,0 -2.955,-0.513 -3.925,-1.538c-0.97,-1.026 -1.455,-2.229 -1.455,-3.609c0,-1.484 0.506,-2.721 1.518,-3.711c1.012,-0.989 2.329,-1.484 3.95,-1.484c1.634,0 2.948,0.488 3.941,1.465c0.993,0.976 1.489,2.2 1.489,3.672c0,1.484 -0.503,2.723 -1.509,3.715c-1.006,0.993 -2.342,1.49 -4.009,1.49Zm0.059,-2.364c0.605,0 0.975,-0.314 1.108,-0.942c0.134,-0.628 0.201,-1.284 0.201,-1.968c0,-0.931 -0.095,-1.601 -0.284,-2.012c-0.188,-0.41 -0.527,-0.615 -1.015,-0.615c-0.449,0 -0.778,0.212 -0.987,0.635c-0.208,0.423 -0.312,1.12 -0.312,2.09c0,1.139 0.107,1.893 0.322,2.261c0.215,0.367 0.537,0.551 0.967,0.551Z" style="fill-rule:nonzero;"/><path d="M760.272,509.749l0,9.932l-3.604,0l0,-1.631c-0.527,1.224 -1.556,1.836 -3.086,1.836c-0.944,0 -1.674,-0.262 -2.192,-0.786c-0.518,-0.525 -0.776,-1.275 -0.776,-2.251l0,-7.1l3.896,0l0,6.25c0,0.391 0.054,0.666 0.161,0.825c0.108,0.16 0.318,0.239 0.63,0.239c0.332,0 0.602,-0.118 0.811,-0.356c0.208,-0.238 0.312,-0.571 0.312,-1.001l0,-5.957l3.848,0Z" style="fill-rule:nonzero;"/><rect x="762.323" y="506.35" width="3.838" height="13.33" style="fill-rule:nonzero;"/><path d="M777.909,519.681l-3.653,0l0,-1.319c-0.54,1.016 -1.432,1.524 -2.676,1.524c-1.145,0 -2.075,-0.448 -2.788,-1.343c-0.713,-0.895 -1.069,-2.196 -1.069,-3.901c0,-1.596 0.358,-2.862 1.074,-3.799c0.716,-0.938 1.664,-1.407 2.842,-1.407c0.983,0 1.794,0.375 2.432,1.123l0,-4.209l3.838,0l0,13.331Zm-3.838,-6.387c0,-0.892 -0.368,-1.338 -1.104,-1.338c-0.514,0 -0.851,0.283 -1.011,0.85c-0.159,0.566 -0.239,1.259 -0.239,2.08c0,1.608 0.41,2.412 1.231,2.412c0.312,0 0.577,-0.127 0.796,-0.381c0.218,-0.254 0.327,-0.641 0.327,-1.162l0,-2.461Z" style="fill-rule:nonzero;"/><path d="M793.514,519.681l-2.197,0l0,-13.331l3.838,0l0,4.581c0.534,-0.925 1.383,-1.387 2.549,-1.387c0.82,0 1.516,0.215 2.089,0.644c0.573,0.43 1,1.044 1.28,1.841c0.28,0.798 0.42,1.636 0.42,2.515c0,1.601 -0.358,2.892 -1.075,3.872c-0.716,0.98 -1.783,1.47 -3.203,1.47c-1.4,0 -2.464,-0.524 -3.193,-1.573c-0.208,0.391 -0.378,0.847 -0.508,1.368Zm1.641,-3.702c0,0.977 0.377,1.465 1.132,1.465c0.411,0 0.725,-0.177 0.943,-0.532c0.218,-0.355 0.327,-1.086 0.327,-2.192c0,-1.205 -0.124,-1.962 -0.371,-2.271c-0.247,-0.309 -0.553,-0.464 -0.918,-0.464c-0.286,0 -0.544,0.111 -0.772,0.332c-0.227,0.222 -0.341,0.544 -0.341,0.967l0,2.695Z" style="fill-rule:nonzero;"/><path d="M809.608,516.116l3.633,0.244c-0.215,0.977 -0.764,1.809 -1.646,2.495c-0.882,0.687 -2.075,1.031 -3.579,1.031c-1.673,0 -3.008,-0.484 -4.004,-1.451c-0.996,-0.966 -1.494,-2.166 -1.494,-3.598c0,-1.485 0.492,-2.738 1.475,-3.76c0.983,-1.022 2.294,-1.533 3.935,-1.533c1.589,0 2.873,0.482 3.853,1.445c0.979,0.964 1.469,2.276 1.469,3.936c0,0.136 -0.003,0.325 -0.009,0.566l-6.651,0c0.013,0.625 0.124,1.089 0.332,1.392c0.209,0.302 0.606,0.454 1.192,0.454c0.846,0 1.344,-0.407 1.494,-1.221Zm-0.264,-2.578c-0.006,-0.671 -0.141,-1.121 -0.404,-1.353c-0.263,-0.231 -0.588,-0.346 -0.978,-0.346c-0.921,0 -1.382,0.566 -1.382,1.699l2.764,0Z" style="fill-rule:nonzero;"/><path d="M829.842,519.681l-3.73,0l0,-9.932l3.242,0l0,2.051c0.371,-1.491 1.234,-2.237 2.588,-2.237c0.137,0 0.325,0.013 0.566,0.039l0,3.467c-0.273,-0.065 -0.517,-0.097 -0.732,-0.097c-1.289,0 -1.934,0.719 -1.934,2.158l0,4.551Z" style="fill-rule:nonzero;"/><path d="M840.301,516.116l3.633,0.244c-0.215,0.977 -0.763,1.809 -1.646,2.495c-0.882,0.687 -2.075,1.031 -3.579,1.031c-1.673,0 -3.007,-0.484 -4.004,-1.451c-0.996,-0.966 -1.494,-2.166 -1.494,-3.598c0,-1.485 0.492,-2.738 1.475,-3.76c0.983,-1.022 2.295,-1.533 3.935,-1.533c1.589,0 2.873,0.482 3.853,1.445c0.98,0.964 1.47,2.276 1.47,3.936c0,0.136 -0.004,0.325 -0.01,0.566l-6.65,0c0.013,0.625 0.123,1.089 0.332,1.392c0.208,0.302 0.605,0.454 1.191,0.454c0.846,0 1.344,-0.407 1.494,-1.221Zm-0.264,-2.578c-0.006,-0.671 -0.141,-1.121 -0.403,-1.353c-0.263,-0.231 -0.589,-0.346 -0.978,-0.346c-0.922,0 -1.382,0.566 -1.382,1.699l2.763,0Z" style="fill-rule:nonzero;"/><path d="M855.477,519.681l-3.711,0c-0.091,-0.424 -0.137,-0.886 -0.137,-1.387c-0.703,1.061 -1.767,1.592 -3.193,1.592c-1.172,0 -2.049,-0.3 -2.632,-0.899c-0.583,-0.599 -0.874,-1.286 -0.874,-2.06c0,-1.049 0.477,-1.896 1.431,-2.544c0.954,-0.648 2.645,-1.037 5.073,-1.167l0,-0.225c0,-0.436 -0.099,-0.726 -0.298,-0.869c-0.198,-0.143 -0.49,-0.215 -0.874,-0.215c-0.898,0 -1.4,0.361 -1.504,1.084l-3.554,-0.332c0.507,-2.077 2.236,-3.115 5.185,-3.115c0.801,0 1.537,0.08 2.207,0.239c0.671,0.16 1.201,0.409 1.592,0.747c0.391,0.339 0.653,0.697 0.786,1.074c0.133,0.378 0.2,1.104 0.2,2.178l0,3.965c0,0.755 0.101,1.4 0.303,1.934Zm-4.043,-4.649c-1.66,0.176 -2.49,0.707 -2.49,1.592c0,0.599 0.329,0.898 0.986,0.898c0.417,0 0.772,-0.123 1.065,-0.371c0.292,-0.247 0.439,-0.794 0.439,-1.64l0,-0.479Z" style="fill-rule:nonzero;"/><path d="M866.893,519.681l-3.652,0l0,-1.319c-0.541,1.016 -1.433,1.524 -2.676,1.524c-1.146,0 -2.075,-0.448 -2.788,-1.343c-0.713,-0.895 -1.07,-2.196 -1.07,-3.901c0,-1.596 0.358,-2.862 1.075,-3.799c0.716,-0.938 1.663,-1.407 2.841,-1.407c0.984,0 1.794,0.375 2.432,1.123l0,-4.209l3.838,0l0,13.331Zm-3.838,-6.387c0,-0.892 -0.368,-1.338 -1.103,-1.338c-0.515,0 -0.852,0.283 -1.011,0.85c-0.16,0.566 -0.239,1.259 -0.239,2.08c0,1.608 0.41,2.412 1.23,2.412c0.313,0 0.578,-0.127 0.796,-0.381c0.218,-0.254 0.327,-0.641 0.327,-1.162l0,-2.461Z" style="fill-rule:nonzero;"/><path d="M878.954,519.681l-3.711,0c-0.092,-0.424 -0.137,-0.886 -0.137,-1.387c-0.703,1.061 -1.768,1.592 -3.194,1.592c-1.171,0 -2.049,-0.3 -2.631,-0.899c-0.583,-0.599 -0.874,-1.286 -0.874,-2.06c0,-1.049 0.477,-1.896 1.43,-2.544c0.954,-0.648 2.645,-1.037 5.074,-1.167l0,-0.225c0,-0.436 -0.1,-0.726 -0.298,-0.869c-0.199,-0.143 -0.49,-0.215 -0.874,-0.215c-0.899,0 -1.4,0.361 -1.504,1.084l-3.555,-0.332c0.508,-2.077 2.236,-3.115 5.186,-3.115c0.8,0 1.536,0.08 2.207,0.239c0.67,0.16 1.201,0.409 1.591,0.747c0.391,0.339 0.653,0.697 0.787,1.074c0.133,0.378 0.2,1.104 0.2,2.178l0,3.965c0,0.755 0.101,1.4 0.303,1.934Zm-4.043,-4.649c-1.661,0.176 -2.491,0.707 -2.491,1.592c0,0.599 0.329,0.898 0.987,0.898c0.416,0 0.771,-0.123 1.064,-0.371c0.293,-0.247 0.44,-0.794 0.44,-1.64l0,-0.479Z" style="fill-rule:nonzero;"/><path d="M882.889,519.681l-2.197,0l0,-13.331l3.838,0l0,4.581c0.534,-0.925 1.383,-1.387 2.549,-1.387c0.82,0 1.516,0.215 2.089,0.644c0.573,0.43 1,1.044 1.28,1.841c0.28,0.798 0.42,1.636 0.42,2.515c0,1.601 -0.358,2.892 -1.075,3.872c-0.716,0.98 -1.783,1.47 -3.203,1.47c-1.4,0 -2.464,-0.524 -3.193,-1.573c-0.208,0.391 -0.378,0.847 -0.508,1.368Zm1.641,-3.702c0,0.977 0.377,1.465 1.132,1.465c0.411,0 0.725,-0.177 0.943,-0.532c0.218,-0.355 0.327,-1.086 0.327,-2.192c0,-1.205 -0.124,-1.962 -0.371,-2.271c-0.247,-0.309 -0.553,-0.464 -0.918,-0.464c-0.286,0 -0.544,0.111 -0.772,0.332c-0.227,0.222 -0.341,0.544 -0.341,0.967l0,2.695Z" style="fill-rule:nonzero;"/><rect x="892.42" y="506.35" width="3.838" height="13.33" style="fill-rule:nonzero;"/><path d="M904.871,516.116l3.633,0.244c-0.215,0.977 -0.763,1.809 -1.645,2.495c-0.882,0.687 -2.075,1.031 -3.579,1.031c-1.673,0 -3.008,-0.484 -4.004,-1.451c-0.996,-0.966 -1.494,-2.166 -1.494,-3.598c0,-1.485 0.491,-2.738 1.474,-3.76c0.983,-1.022 2.295,-1.533 3.936,-1.533c1.588,0 2.873,0.482 3.852,1.445c0.98,0.964 1.47,2.276 1.47,3.936c0,0.136 -0.003,0.325 -0.01,0.566l-6.65,0c0.013,0.625 0.124,1.089 0.332,1.392c0.208,0.302 0.605,0.454 1.191,0.454c0.847,0 1.345,-0.407 1.494,-1.221Zm-0.263,-2.578c-0.007,-0.671 -0.141,-1.121 -0.404,-1.353c-0.263,-0.231 -0.589,-0.346 -0.978,-0.346c-0.921,0 -1.382,0.566 -1.382,1.699l2.764,0Z" style="fill-rule:nonzero;"/><path d="M603.729,531.749l-3.143,9.932l-2.803,0l-1.3,-5.381l-1.358,5.381l-2.773,0l-3.203,-9.932l3.827,0l1.311,4.863l1.249,-4.863l2.883,0l1.231,4.859l1.375,-4.859l2.704,0Z" style="fill-rule:nonzero;"/><path d="M608.787,527.931l0,3.086l-3.896,0l0,-3.086l3.896,0Zm0,3.818l0,9.932l-3.896,0l0,-9.932l3.896,0Z" style="fill-rule:nonzero;"/><path d="M616.971,531.749l0,2.529l-1.982,0l0,3.662c0,0.502 0.094,0.799 0.283,0.894c0.189,0.094 0.384,0.141 0.586,0.141c0.312,0 0.683,-0.055 1.113,-0.166l0,2.774c-0.768,0.15 -1.523,0.225 -2.266,0.225c-1.197,0 -2.078,-0.258 -2.641,-0.772c-0.563,-0.514 -0.845,-1.335 -0.845,-2.461l0.01,-1.162l0,-3.135l-1.484,0l0,-2.529l1.484,0l0.058,-3.232l3.702,-0.059l0,3.291l1.982,0Z" style="fill-rule:nonzero;"/><path d="M628.026,541.681l-3.897,0l0,-5.977c0,-0.547 -0.06,-0.923 -0.179,-1.128c-0.12,-0.205 -0.352,-0.308 -0.695,-0.308c-0.266,0 -0.497,0.08 -0.695,0.24c-0.198,0.159 -0.313,0.324 -0.345,0.493c-0.032,0.169 -0.049,0.524 -0.049,1.064l0,5.616l-3.896,0l0,-13.331l3.896,0l0,4.571c0.704,-0.918 1.621,-1.377 2.754,-1.377c0.573,0 1.076,0.099 1.509,0.298c0.433,0.198 0.767,0.454 1.001,0.766c0.234,0.313 0.392,0.616 0.474,0.909c0.081,0.292 0.122,0.859 0.122,1.699l0,6.465Z" style="fill-rule:nonzero;"/><path d="M638.639,527.95l0,3.067l-3.897,0l0,-3.067l3.897,0Zm0,3.799l0,9.346c0,0.944 -0.084,1.676 -0.25,2.197c-0.166,0.521 -0.536,0.96 -1.11,1.318c-0.574,0.358 -1.386,0.537 -2.436,0.537c-0.685,0 -1.347,-0.061 -1.986,-0.185l0,-2.842c0.287,0.124 0.573,0.186 0.86,0.186c0.683,0 1.025,-0.404 1.025,-1.211l0,-9.346l3.897,0Z" style="fill-rule:nonzero;"/><path d="M650.338,531.749l0,9.932l-3.604,0l0,-1.631c-0.527,1.224 -1.556,1.836 -3.086,1.836c-0.944,0 -1.674,-0.262 -2.192,-0.786c-0.518,-0.525 -0.776,-1.275 -0.776,-2.251l0,-7.1l3.896,0l0,6.25c0,0.391 0.054,0.666 0.161,0.825c0.108,0.16 0.318,0.239 0.63,0.239c0.332,0 0.602,-0.118 0.811,-0.356c0.208,-0.238 0.312,-0.571 0.312,-1.001l0,-5.957l3.848,0Z" style="fill-rule:nonzero;"/><path d="M651.51,538.868l3.076,-0.42c0.176,0.716 0.872,1.074 2.09,1.074c1.009,0 1.513,-0.195 1.513,-0.586c0,-0.169 -0.097,-0.301 -0.293,-0.395c-0.195,-0.094 -0.657,-0.191 -1.386,-0.288c-2.019,-0.28 -3.278,-0.718 -3.78,-1.314c-0.501,-0.596 -0.752,-1.258 -0.752,-1.987c0,-1.016 0.424,-1.838 1.27,-2.466c0.846,-0.628 1.956,-0.942 3.33,-0.942c2.409,0 3.945,0.869 4.609,2.607l-2.949,0.557c-0.273,-0.586 -0.849,-0.879 -1.728,-0.879c-0.417,0 -0.728,0.057 -0.933,0.171c-0.205,0.114 -0.308,0.226 -0.308,0.337c0,0.325 0.313,0.523 0.938,0.594c1.628,0.18 2.732,0.365 3.311,0.554c0.579,0.189 1.074,0.534 1.484,1.036c0.41,0.501 0.615,1.107 0.615,1.817c0,1.088 -0.454,1.951 -1.362,2.59c-0.908,0.638 -2.16,0.958 -3.755,0.958c-2.689,0 -4.352,-1.006 -4.99,-3.018Z" style="fill-rule:nonzero;"/><path d="M669.215,531.749l0,2.529l-1.983,0l0,3.662c0,0.502 0.095,0.799 0.284,0.894c0.188,0.094 0.384,0.141 0.585,0.141c0.313,0 0.684,-0.055 1.114,-0.166l0,2.774c-0.768,0.15 -1.524,0.225 -2.266,0.225c-1.198,0 -2.078,-0.258 -2.641,-0.772c-0.564,-0.514 -0.845,-1.335 -0.845,-2.461l0.01,-1.162l0,-3.135l-1.485,0l0,-2.529l1.485,0l0.058,-3.232l3.701,-0.059l0,3.291l1.983,0Z" style="fill-rule:nonzero;"/><path d="M674.41,527.931l0,3.086l-3.896,0l0,-3.086l3.896,0Zm0,3.818l0,9.932l-3.896,0l0,-9.932l3.896,0Z" style="fill-rule:nonzero;"/><path d="M680.66,534.278l0,7.403l-3.672,0l0,-7.403l-1.484,0l0,-2.529l1.484,0c0,-0.82 0.036,-1.427 0.108,-1.821c0.071,-0.394 0.25,-0.772 0.537,-1.133c0.286,-0.362 0.67,-0.638 1.152,-0.83c0.482,-0.192 1.13,-0.288 1.943,-0.288c0.873,0 1.709,0.068 2.51,0.205l0,2.549c-0.618,-0.085 -1.081,-0.127 -1.387,-0.127c-0.306,0 -0.585,0.061 -0.839,0.185c-0.254,0.124 -0.381,0.427 -0.381,0.908l0,0.352l2.539,0l0,2.529l-2.51,0Z" style="fill-rule:nonzero;"/><path d="M693.58,531.749l-3.897,10.762c-0.299,0.813 -0.729,1.45 -1.289,1.909c-0.559,0.459 -1.422,0.688 -2.587,0.688c-0.28,0 -0.931,-0.029 -1.954,-0.088l0,-2.763c0.508,0.078 0.977,0.117 1.407,0.117c1.119,0 1.679,-0.247 1.679,-0.742c0,-0.163 -0.055,-0.388 -0.166,-0.674l-3.564,-9.209l4.168,0l1.642,5.3l1.715,-5.3l2.846,0Z" style="fill-rule:nonzero;"/><path d="M703.089,544.815l-3.896,0l0,-13.066l3.584,0l0,1.406c0.501,-1.074 1.435,-1.611 2.802,-1.611c1.185,0 2.113,0.46 2.784,1.382c0.67,0.921 1.006,2.176 1.006,3.764c0,1.589 -0.344,2.852 -1.031,3.789c-0.687,0.938 -1.593,1.407 -2.719,1.407c-1.107,0 -1.95,-0.424 -2.53,-1.27l0,4.199Zm0,-6.767c0,0.442 0.101,0.786 0.303,1.03c0.202,0.244 0.452,0.366 0.752,0.366c0.469,0 0.791,-0.216 0.967,-0.649c0.176,-0.433 0.263,-1.099 0.263,-1.997c0,-1.035 -0.1,-1.763 -0.302,-2.183c-0.202,-0.42 -0.505,-0.63 -0.909,-0.63c-0.24,0 -0.48,0.095 -0.717,0.283c-0.238,0.189 -0.357,0.499 -0.357,0.928l0,2.852Z" style="fill-rule:nonzero;"/><path d="M714.652,541.681l-3.731,0l0,-9.932l3.242,0l0,2.051c0.372,-1.491 1.234,-2.237 2.588,-2.237c0.137,0 0.326,0.013 0.567,0.039l0,3.467c-0.274,-0.065 -0.518,-0.097 -0.733,-0.097c-1.289,0 -1.933,0.719 -1.933,2.158l0,4.551Z" style="fill-rule:nonzero;"/><path d="M723.402,541.886c-1.647,0 -2.956,-0.513 -3.926,-1.538c-0.97,-1.026 -1.455,-2.229 -1.455,-3.609c0,-1.484 0.506,-2.721 1.518,-3.711c1.013,-0.989 2.33,-1.484 3.951,-1.484c1.634,0 2.947,0.488 3.94,1.465c0.993,0.976 1.489,2.2 1.489,3.672c0,1.484 -0.503,2.723 -1.508,3.715c-1.006,0.993 -2.343,1.49 -4.009,1.49Zm0.058,-2.364c0.606,0 0.975,-0.314 1.109,-0.942c0.133,-0.628 0.2,-1.284 0.2,-1.968c0,-0.931 -0.094,-1.601 -0.283,-2.012c-0.189,-0.41 -0.528,-0.615 -1.016,-0.615c-0.449,0 -0.778,0.212 -0.986,0.635c-0.209,0.423 -0.313,1.12 -0.313,2.09c0,1.139 0.108,1.893 0.323,2.261c0.214,0.367 0.537,0.551 0.966,0.551Z" style="fill-rule:nonzero;"/><path d="M734.329,544.815l-3.896,0l0,-13.066l3.584,0l0,1.406c0.501,-1.074 1.436,-1.611 2.803,-1.611c1.185,0 2.112,0.46 2.783,1.382c0.671,0.921 1.006,2.176 1.006,3.764c0,1.589 -0.344,2.852 -1.03,3.789c-0.687,0.938 -1.594,1.407 -2.72,1.407c-1.107,0 -1.95,-0.424 -2.53,-1.27l0,4.199Zm0,-6.767c0,0.442 0.101,0.786 0.303,1.03c0.202,0.244 0.453,0.366 0.752,0.366c0.469,0 0.791,-0.216 0.967,-0.649c0.176,-0.433 0.264,-1.099 0.264,-1.997c0,-1.035 -0.101,-1.763 -0.303,-2.183c-0.202,-0.42 -0.505,-0.63 -0.908,-0.63c-0.241,0 -0.48,0.095 -0.718,0.283c-0.238,0.189 -0.357,0.499 -0.357,0.928l0,2.852Z" style="fill-rule:nonzero;"/><path d="M748.724,538.116l3.633,0.244c-0.215,0.977 -0.764,1.809 -1.646,2.495c-0.882,0.687 -2.075,1.031 -3.579,1.031c-1.673,0 -3.008,-0.484 -4.004,-1.451c-0.996,-0.966 -1.494,-2.166 -1.494,-3.598c0,-1.485 0.492,-2.738 1.475,-3.76c0.983,-1.022 2.295,-1.533 3.935,-1.533c1.589,0 2.873,0.482 3.853,1.445c0.98,0.964 1.47,2.276 1.47,3.936c0,0.136 -0.004,0.325 -0.01,0.566l-6.651,0c0.013,0.625 0.124,1.089 0.332,1.392c0.209,0.302 0.606,0.454 1.192,0.454c0.846,0 1.344,-0.407 1.494,-1.221Zm-0.264,-2.578c-0.006,-0.671 -0.141,-1.121 -0.404,-1.353c-0.262,-0.231 -0.588,-0.346 -0.977,-0.346c-0.922,0 -1.382,0.566 -1.382,1.699l2.763,0Z" style="fill-rule:nonzero;"/><path d="M757.621,541.681l-3.731,0l0,-9.932l3.242,0l0,2.051c0.371,-1.491 1.234,-2.237 2.588,-2.237c0.137,0 0.326,0.013 0.567,0.039l0,3.467c-0.274,-0.065 -0.518,-0.097 -0.733,-0.097c-1.289,0 -1.933,0.719 -1.933,2.158l0,4.551Z" style="fill-rule:nonzero;"/><path d="M768.05,531.749l0,2.529l-1.982,0l0,3.662c0,0.502 0.094,0.799 0.283,0.894c0.189,0.094 0.384,0.141 0.586,0.141c0.312,0 0.684,-0.055 1.113,-0.166l0,2.774c-0.768,0.15 -1.523,0.225 -2.265,0.225c-1.198,0 -2.079,-0.258 -2.642,-0.772c-0.563,-0.514 -0.845,-1.335 -0.845,-2.461l0.01,-1.162l0,-3.135l-1.484,0l0,-2.529l1.484,0l0.059,-3.232l3.701,-0.059l0,3.291l1.982,0Z" style="fill-rule:nonzero;"/><path d="M778.626,531.749l-3.896,10.762c-0.3,0.813 -0.729,1.45 -1.289,1.909c-0.56,0.459 -1.423,0.688 -2.588,0.688c-0.28,0 -0.931,-0.029 -1.953,-0.088l0,-2.763c0.508,0.078 0.976,0.117 1.406,0.117c1.12,0 1.68,-0.247 1.68,-0.742c0,-0.163 -0.056,-0.388 -0.166,-0.674l-3.565,-9.209l4.168,0l1.643,5.3l1.714,-5.3l2.846,0Z" style="fill-rule:nonzero;"/><rect x="778.9" y="538.116" width="3.711" height="3.564" style="fill-rule:nonzero;"/><path d="M798.663,538.409l0,3.272l-9.346,0l0,-13.331l4.092,0l0,10.059l5.254,0Z" style="fill-rule:nonzero;"/><path d="M804.806,541.886c-1.648,0 -2.956,-0.513 -3.926,-1.538c-0.97,-1.026 -1.455,-2.229 -1.455,-3.609c0,-1.484 0.506,-2.721 1.518,-3.711c1.013,-0.989 2.329,-1.484 3.95,-1.484c1.635,0 2.948,0.488 3.941,1.465c0.993,0.976 1.489,2.2 1.489,3.672c0,1.484 -0.503,2.723 -1.509,3.715c-1.006,0.993 -2.342,1.49 -4.008,1.49Zm0.058,-2.364c0.606,0 0.975,-0.314 1.109,-0.942c0.133,-0.628 0.2,-1.284 0.2,-1.968c0,-0.931 -0.095,-1.601 -0.283,-2.012c-0.189,-0.41 -0.528,-0.615 -1.016,-0.615c-0.449,0 -0.778,0.212 -0.986,0.635c-0.209,0.423 -0.313,1.12 -0.313,2.09c0,1.139 0.108,1.893 0.322,2.261c0.215,0.367 0.537,0.551 0.967,0.551Z" style="fill-rule:nonzero;"/><path d="M815.567,541.681l-3.73,0l0,-9.932l3.242,0l0,2.051c0.371,-1.491 1.234,-2.237 2.588,-2.237c0.137,0 0.325,0.013 0.566,0.039l0,3.467c-0.273,-0.065 -0.517,-0.097 -0.732,-0.097c-1.289,0 -1.934,0.719 -1.934,2.158l0,4.551Z" style="fill-rule:nonzero;"/><path d="M826.026,538.116l3.633,0.244c-0.215,0.977 -0.763,1.809 -1.645,2.495c-0.883,0.687 -2.076,1.031 -3.58,1.031c-1.673,0 -3.007,-0.484 -4.003,-1.451c-0.997,-0.966 -1.495,-2.166 -1.495,-3.598c0,-1.485 0.492,-2.738 1.475,-3.76c0.983,-1.022 2.295,-1.533 3.936,-1.533c1.588,0 2.872,0.482 3.852,1.445c0.98,0.964 1.47,2.276 1.47,3.936c0,0.136 -0.003,0.325 -0.01,0.566l-6.65,0c0.013,0.625 0.123,1.089 0.332,1.392c0.208,0.302 0.605,0.454 1.191,0.454c0.846,0 1.345,-0.407 1.494,-1.221Zm-0.263,-2.578c-0.007,-0.671 -0.142,-1.121 -0.404,-1.353c-0.263,-0.231 -0.589,-0.346 -0.978,-0.346c-0.921,0 -1.382,0.566 -1.382,1.699l2.764,0Z" style="fill-rule:nonzero;"/><path d="M846.241,541.681l-3.779,0l0,-6.211c0,-0.417 -0.06,-0.708 -0.181,-0.874c-0.12,-0.166 -0.334,-0.249 -0.639,-0.249c-0.73,0 -1.094,0.53 -1.094,1.591l0,5.743l-3.74,0l0,-6.211c0,-0.795 -0.306,-1.192 -0.918,-1.192c-0.632,0 -0.948,0.397 -0.948,1.192l0,6.211l-3.75,0l0,-9.932l3.496,0l0,1.338c0.625,-1.029 1.534,-1.543 2.725,-1.543c1.283,0 2.214,0.514 2.793,1.543c0.644,-1.029 1.634,-1.543 2.969,-1.543c0.638,0 1.199,0.133 1.684,0.4c0.485,0.267 0.837,0.611 1.055,1.031c0.218,0.419 0.327,1.069 0.327,1.948l0,6.758Z" style="fill-rule:nonzero;"/><path d="M856.844,527.931l0,3.086l-3.896,0l0,-3.086l3.896,0Zm0,3.818l0,9.932l-3.896,0l0,-9.932l3.896,0Z" style="fill-rule:nonzero;"/><path d="M862.791,544.815l-3.896,0l0,-13.066l3.584,0l0,1.406c0.501,-1.074 1.435,-1.611 2.803,-1.611c1.185,0 2.112,0.46 2.783,1.382c0.67,0.921 1.006,2.176 1.006,3.764c0,1.589 -0.344,2.852 -1.031,3.789c-0.686,0.938 -1.593,1.407 -2.719,1.407c-1.107,0 -1.95,-0.424 -2.53,-1.27l0,4.199Zm0,-6.767c0,0.442 0.101,0.786 0.303,1.03c0.202,0.244 0.453,0.366 0.752,0.366c0.469,0 0.791,-0.216 0.967,-0.649c0.176,-0.433 0.264,-1.099 0.264,-1.997c0,-1.035 -0.101,-1.763 -0.303,-2.183c-0.202,-0.42 -0.505,-0.63 -0.908,-0.63c-0.241,0 -0.481,0.095 -0.718,0.283c-0.238,0.189 -0.357,0.499 -0.357,0.928l0,2.852Z" style="fill-rule:nonzero;"/><path d="M869.745,538.868l3.076,-0.42c0.175,0.716 0.872,1.074 2.09,1.074c1.009,0 1.513,-0.195 1.513,-0.586c0,-0.169 -0.097,-0.301 -0.293,-0.395c-0.195,-0.094 -0.657,-0.191 -1.386,-0.288c-2.019,-0.28 -3.278,-0.718 -3.78,-1.314c-0.501,-0.596 -0.752,-1.258 -0.752,-1.987c0,-1.016 0.423,-1.838 1.27,-2.466c0.846,-0.628 1.956,-0.942 3.33,-0.942c2.409,0 3.945,0.869 4.609,2.607l-2.949,0.557c-0.273,-0.586 -0.85,-0.879 -1.728,-0.879c-0.417,0 -0.728,0.057 -0.933,0.171c-0.205,0.114 -0.308,0.226 -0.308,0.337c0,0.325 0.313,0.523 0.938,0.594c1.628,0.18 2.731,0.365 3.311,0.554c0.579,0.189 1.074,0.534 1.484,1.036c0.41,0.501 0.615,1.107 0.615,1.817c0,1.088 -0.454,1.951 -1.362,2.59c-0.909,0.638 -2.16,0.958 -3.755,0.958c-2.689,0 -4.352,-1.006 -4.99,-3.018Z" style="fill-rule:nonzero;"/><path d="M890.877,531.749l0,9.932l-3.603,0l0,-1.631c-0.528,1.224 -1.556,1.836 -3.086,1.836c-0.944,0 -1.675,-0.262 -2.192,-0.786c-0.518,-0.525 -0.777,-1.275 -0.777,-2.251l0,-7.1l3.897,0l0,6.25c0,0.391 0.053,0.666 0.161,0.825c0.107,0.16 0.317,0.239 0.63,0.239c0.332,0 0.602,-0.118 0.81,-0.356c0.209,-0.238 0.313,-0.571 0.313,-1.001l0,-5.957l3.847,0Z" style="fill-rule:nonzero;"/><path d="M907.977,541.681l-3.779,0l0,-6.211c0,-0.417 -0.061,-0.708 -0.181,-0.874c-0.12,-0.166 -0.334,-0.249 -0.64,-0.249c-0.729,0 -1.093,0.53 -1.093,1.591l0,5.743l-3.741,0l0,-6.211c0,-0.795 -0.306,-1.192 -0.918,-1.192c-0.631,0 -0.947,0.397 -0.947,1.192l0,6.211l-3.75,0l0,-9.932l3.496,0l0,1.338c0.625,-1.029 1.533,-1.543 2.725,-1.543c1.282,0 2.213,0.514 2.793,1.543c0.644,-1.029 1.634,-1.543 2.969,-1.543c0.638,0 1.199,0.133 1.684,0.4c0.485,0.267 0.837,0.611 1.055,1.031c0.218,0.419 0.327,1.069 0.327,1.948l0,6.758Z" style="fill-rule:nonzero;"/><path d="M599.735,563.681l-3.653,0l0,-1.319c-0.54,1.016 -1.432,1.524 -2.675,1.524c-1.146,0 -2.076,-0.448 -2.788,-1.343c-0.713,-0.895 -1.07,-2.196 -1.07,-3.901c0,-1.596 0.358,-2.862 1.074,-3.799c0.717,-0.938 1.664,-1.407 2.842,-1.407c0.983,0 1.794,0.375 2.432,1.123l0,-4.209l3.838,0l0,13.331Zm-3.838,-6.387c0,-0.892 -0.368,-1.338 -1.104,-1.338c-0.514,0 -0.851,0.283 -1.01,0.85c-0.16,0.566 -0.24,1.259 -0.24,2.08c0,1.608 0.411,2.412 1.231,2.412c0.312,0 0.578,-0.127 0.796,-0.381c0.218,-0.254 0.327,-0.641 0.327,-1.162l0,-2.461Z" style="fill-rule:nonzero;"/><path d="M606.639,563.886c-1.647,0 -2.956,-0.513 -3.926,-1.538c-0.97,-1.026 -1.455,-2.229 -1.455,-3.609c0,-1.484 0.506,-2.721 1.519,-3.711c1.012,-0.989 2.329,-1.484 3.95,-1.484c1.634,0 2.948,0.488 3.94,1.465c0.993,0.976 1.49,2.2 1.49,3.672c0,1.484 -0.503,2.723 -1.509,3.715c-1.006,0.993 -2.342,1.49 -4.009,1.49Zm0.059,-2.364c0.605,0 0.975,-0.314 1.108,-0.942c0.134,-0.628 0.2,-1.284 0.2,-1.968c0,-0.931 -0.094,-1.601 -0.283,-2.012c-0.189,-0.41 -0.527,-0.615 -1.016,-0.615c-0.449,0 -0.778,0.212 -0.986,0.635c-0.208,0.423 -0.312,1.12 -0.312,2.09c0,1.139 0.107,1.893 0.322,2.261c0.215,0.367 0.537,0.551 0.967,0.551Z" style="fill-rule:nonzero;"/><rect x="613.67" y="550.35" width="3.838" height="13.33" style="fill-rule:nonzero;"/><path d="M624.412,563.886c-1.647,0 -2.955,-0.513 -3.925,-1.538c-0.97,-1.026 -1.455,-2.229 -1.455,-3.609c0,-1.484 0.506,-2.721 1.518,-3.711c1.013,-0.989 2.329,-1.484 3.95,-1.484c1.635,0 2.948,0.488 3.941,1.465c0.993,0.976 1.489,2.2 1.489,3.672c0,1.484 -0.503,2.723 -1.509,3.715c-1.006,0.993 -2.342,1.49 -4.009,1.49Zm0.059,-2.364c0.606,0 0.975,-0.314 1.108,-0.942c0.134,-0.628 0.201,-1.284 0.201,-1.968c0,-0.931 -0.095,-1.601 -0.284,-2.012c-0.188,-0.41 -0.527,-0.615 -1.015,-0.615c-0.449,0 -0.778,0.212 -0.986,0.635c-0.209,0.423 -0.313,1.12 -0.313,2.09c0,1.139 0.107,1.893 0.322,2.261c0.215,0.367 0.537,0.551 0.967,0.551Z" style="fill-rule:nonzero;"/><path d="M635.174,563.681l-3.73,0l0,-9.932l3.242,0l0,2.051c0.371,-1.491 1.234,-2.237 2.588,-2.237c0.137,0 0.325,0.013 0.566,0.039l0,3.467c-0.273,-0.065 -0.517,-0.097 -0.732,-0.097c-1.289,0 -1.934,0.719 -1.934,2.158l0,4.551Z" style="fill-rule:nonzero;"/><rect x="638.289" y="560.116" width="3.711" height="3.564" style="fill-rule:nonzero;"/><rect x="643.787" y="560.116" width="3.711" height="3.564" style="fill-rule:nonzero;"/></g></g><g transform="matrix(1,0,0,1,7955.96,6688.63)"><path id="title" d="M601.129,398.939c-3.281,0 -5.956,-1.088 -8.024,-3.264c-2.068,-2.176 -3.102,-5.087 -3.102,-8.733c0,-3.486 0.989,-6.366 2.965,-8.639c1.977,-2.272 4.72,-3.409 8.229,-3.409c3.247,0 5.893,1.071 7.938,3.213c2.045,2.142 3.068,5.002 3.068,8.579c0,3.703 -1.031,6.671 -3.093,8.904c-2.062,2.233 -4.723,3.349 -7.981,3.349Zm-0.034,-5.297c1.207,0 2.076,-0.527 2.606,-1.581c0.53,-1.054 0.795,-2.982 0.795,-5.785c0,-4.056 -1.089,-6.084 -3.265,-6.084c-2.347,0 -3.52,2.313 -3.52,6.938c0,4.341 1.128,6.512 3.384,6.512Z" style="fill-rule:nonzero;"/><path d="M624.815,380.841l0,17.74l-6.784,0l0,-17.74l-4.837,0l0,-5.588l16.458,0l0,5.588l-4.837,0Z" style="fill-rule:nonzero;"/><path d="M651.475,375.253l0,23.328l-7.16,0l0,-9.075l-5.469,0l0,9.075l-7.161,0l0,-23.328l7.161,0l0,8.579l5.469,0l0,-8.579l7.16,0Z" style="fill-rule:nonzero;"/><path d="M673.077,393.009l0,5.572l-17.551,0l0,-23.328l17.551,0l0,5.383l-10.527,0l0,3.384l8.51,0l0,5.178l-8.51,0l0,3.811l10.527,0Z" style="fill-rule:nonzero;"/><path d="M696.678,398.581l-7.938,0l-3.407,-8.921l-2.258,0l0,8.921l-7.161,0l0,-23.328l12.185,0c2.689,0 4.777,0.629 6.263,1.888c1.487,1.259 2.231,2.92 2.231,4.982c0,1.344 -0.274,2.532 -0.821,3.563c-0.547,1.031 -1.652,1.94 -3.315,2.726l4.221,10.169Zm-13.603,-13.912l3.059,0c0.9,0 1.623,-0.188 2.17,-0.564c0.547,-0.376 0.82,-0.928 0.82,-1.657c0,-1.493 -0.917,-2.239 -2.751,-2.239l-3.298,0l0,4.46Z" style="fill-rule:nonzero;"/><path d="M718.399,380.841l0,17.74l-6.784,0l0,-17.74l-4.837,0l0,-5.588l16.458,0l0,5.588l-4.837,0Z" style="fill-rule:nonzero;"/><rect x="725.269" y="375.253" width="7.161" height="23.328" style="fill-rule:nonzero;"/><path d="M746.085,380.841l0,17.74l-6.785,0l0,-17.74l-4.836,0l0,-5.588l16.457,0l0,5.588l-4.836,0Z" style="fill-rule:nonzero;"/><path d="M769.31,392.855l0,5.726l-16.355,0l0,-23.328l7.161,0l0,17.602l9.194,0Z" style="fill-rule:nonzero;"/><path d="M789.356,393.009l0,5.572l-17.551,0l0,-23.328l17.551,0l0,5.383l-10.527,0l0,3.384l8.511,0l0,5.178l-8.511,0l0,3.811l10.527,0Z" style="fill-rule:nonzero;"/></g><g transform="matrix(1.63356,0,0,0.912133,-4213.05,607.714)"><rect x="7809.94" y="7142" width="195.393" height="183.959" style="fill:#ec7979;"/></g></g></g></svg>