<?xml version="1.0" encoding="UTF-8" standalone="no"?>
<svg
   xmlns:serif="http://www.serif.com/"
   xmlns:dc="http://purl.org/dc/elements/1.1/"
   xmlns:cc="http://creativecommons.org/ns#"
   xmlns:rdf="http://www.w3.org/1999/02/22-rdf-syntax-ns#"
   xmlns:svg="http://www.w3.org/2000/svg"
   xmlns="http://www.w3.org/2000/svg"
   xmlns:sodipodi="http://sodipodi.sourceforge.net/DTD/sodipodi-0.dtd"
   xmlns:inkscape="http://www.inkscape.org/namespaces/inkscape"
   width="100%"
   height="100%"
   viewBox="0 0 360 470"
   version="1.1"
   xml:space="preserve"
   style="fill-rule:evenodd;clip-rule:evenodd;stroke-linejoin:round;stroke-miterlimit:1.41421;"
   id="svg170"
   sodipodi:docname="p1Doggie.svg"
   inkscape:version="0.92.3 (2405546, 2018-03-11)"><metadata
     id="metadata176"><rdf:RDF><cc:Work
         rdf:about=""><dc:format>image/svg+xml</dc:format><dc:type
           rdf:resource="http://purl.org/dc/dcmitype/StillImage" /></cc:Work></rdf:RDF></metadata><defs
     id="defs174" /><sodipodi:namedview
     pagecolor="#ffffff"
     bordercolor="#666666"
     borderopacity="1"
     objecttolerance="10"
     gridtolerance="10"
     guidetolerance="10"
     inkscape:pageopacity="0"
     inkscape:pageshadow="2"
     inkscape:window-width="1920"
     inkscape:window-height="1001"
     id="namedview172"
     showgrid="false"
     inkscape:zoom="1.0042553"
     inkscape:cx="106.94216"
     inkscape:cy="261.86727"
     inkscape:window-x="-9"
     inkscape:window-y="-9"
     inkscape:window-maximized="1"
     inkscape:current-layer="svg170"
     inkscape:snap-bbox="false"
     inkscape:bbox-paths="false"
     inkscape:bbox-nodes="false"
     inkscape:snap-bbox-midpoints="false"
     inkscape:snap-bbox-edge-midpoints="false"
     inkscape:object-paths="false"
     inkscape:snap-grids="false"
     inkscape:snap-to-guides="false"
     inkscape:object-nodes="true"
     inkscape:snap-intersection-paths="false"
     inkscape:snap-nodes="true" /><rect
     id="p1Doggie"
     x="0.127"
     y="0.541"
     width="360"
     height="470"
     style="fill:none;" /><clipPath
     id="_clip1"><rect
       x="0.127"
       y="0.541"
       width="360"
       height="470"
       id="rect3" /></clipPath><g
     clip-path="url(#_clip1)"
     id="g168"><rect
       x="-6.494"
       y="-8.8719997"
       width="375.336"
       height="490.44601"
       style="fill:#ec7979"
       id="rect6" /><path
       id="p1cWDoggyBody"
       d="M 48.946,372.828 C 38.158,351.232 35.249,336.761 28.23,320.587 30.013,299.772 26.958,276.941 26.089,260.142 24.795,235.127 39.199,220.2 23.062,215.544 30.166,192.355 49.677,185.569 52.696,159.356 73.648,124.902 72.093,109.604 87.762,95.007 90.526,69.611 97.376,67.9 102.758,57.532 c 4.736,-9.123 13.357,-22.534 15.62,-24.606 4.486,-4.108 11.831,-9.755 17.94,-6.573 2.762,1.439 5.021,4.209 5.99,7.168 1.599,4.886 3.16,19.277 3.979,25.737 6.993,-0.678 13.056,1.921 17.541,3.436 5.669,-7.287 10.523,-0.449 27.966,-10.8 8.017,-4.758 10.882,-9.408 18.234,-16.467 1.274,-1.224 6.469,-3.036 6.008,5.834 -0.86,16.556 -8.66,34.046 -12.674,43.47 2.756,6.735 6.506,18.57 7.628,24.18 0.634,3.168 -1.228,5.686 -1.407,8.912 -0.34,6.115 1.789,16.635 0.473,26.565 7.741,7.795 12.742,18.543 15.667,22.832 2.944,4.316 8.693,7.129 8.635,10.961 -0.057,3.832 -4.999,13.913 -9.871,14.905 -1.999,2.266 -4.673,5.084 -8.118,5.188 -4.743,7.348 -17.233,8.614 -26.105,2.779 8.616,15.95 11.631,35.644 11.088,45.967 18.61,7.12 19.785,19.417 26.749,28.192 10.873,8.043 34.516,18.821 38.59,20.704 8.063,8.792 7.747,13.739 23.503,37.468 2.992,4.505 2.447,12.774 2.378,19.115 7.699,12.233 8.432,34.537 8.432,34.537"
       style="fill:#ffffff;stroke:#ec7979;stroke-width:0.80000001;stroke-opacity:1"
       inkscape:connector-curvature="0" /><rect
       x="-6.494"
       y="356.12399"
       width="384.892"
       height="144.312"
       style="fill:#ffffff"
       id="rect9" /><g
       id="Careful-wolf"
       serif:id="Careful wolf"><path
         id="Lips"
         d="m 216.369,198.274 c -6.687,0.203 -20.828,-0.451 -29.552,-4.872 -16.72,-8.471 -26.887,-15.703 -26.887,-15.703"
         style="fill:none;stroke:#ec7979;stroke-width:0.80000001;stroke-opacity:1"
         inkscape:connector-curvature="0" /><path
         id="Chin"
         d="m 190.264,201.053 c -12.523,-8.238 -11.686,0.916 -39.386,-15.753"
         style="fill:none;stroke:#ec7979;stroke-width:0.80000001;stroke-opacity:1"
         inkscape:connector-curvature="0" /><g
         id="Eyes"
         style="stroke:#ec7979;stroke-width:0.80000001;stroke-opacity:1"><path
           d="m 176.666,130.296 c 0,0 -4.188,-8.312 -11.622,-11.55 -2.427,-1.057 -5.256,0.055 -6.313,2.482 -1.058,2.427 0.055,5.256 2.482,6.313 7.434,3.238 15.453,2.755 15.453,2.755 z"
           style="fill:#ec7979"
           id="path13"
           inkscape:connector-curvature="0" /><path
           d="m 201.363,132.771 c 0,0 5.991,-2.399 7.613,-4.077 1.182,-1.224 1.149,-3.178 -0.075,-4.36 -1.224,-1.182 -3.178,-1.149 -4.36,0.075 -1.622,1.679 -3.178,8.362 -3.178,8.362 z"
           style="fill:#ec7979"
           id="path15"
           inkscape:connector-curvature="0" /></g><g
         id="Nose"
         style="stroke:#ec7979;stroke-width:0.80000001;stroke-opacity:1"><path
           d="m 227.387,191.516 c -2.007,1.029 -3.972,1.252 -5.313,1.104 -2.365,-0.26 -8.052,-1.448 -9.967,-3.15 -4.616,-4.102 -5.419,-13.337 -3.203,-17.823 1.577,-3.192 18.311,-3.108 21.658,0.666"
           style="fill:none;stroke:#ec7979;stroke-width:0.80000001;stroke-miterlimit:1.41420996;stroke-dasharray:none;stroke-opacity:0"
           id="path18"
           inkscape:connector-curvature="0" /><path
           d="m 221.65,192.568 c 3.698,-3.609 5.34,-7.915 5.899,-13.002"
           style="fill:none;stroke:#ec7979;stroke-width:0.80000001;stroke-miterlimit:1.41420996;stroke-dasharray:none;stroke-opacity:0"
           id="path20"
           inkscape:connector-curvature="0" /><path
           d="m 208.519,172.556 c 1.073,4.988 2.692,9.35 3.991,11.272 2.235,3.309 5.414,1.371 8.113,1.472 5.661,0.213 5.34,-7.296 -0.47,-5.433 -2.68,0.859 -4.466,4.501 -6.667,2.987 -1.445,-0.993 -3.982,-5.719 -4.967,-10.298 z"
           style="fill:#ec7979;stroke:#ec7979;stroke-width:0.80000001;stroke-miterlimit:1.41420996;stroke-dasharray:none;stroke-opacity:0"
           id="path22"
           inkscape:connector-curvature="0" /><path
           d="m 232.699,185.773 c -0.236,-1.037 0.693,-4.665 -1.386,-4.818 -1.676,-0.124 -2.964,3.925 -1.575,5.526 0.51,0.589 0.848,1.253 1.759,2.85"
           style="fill:#ec7979;stroke:#ec7979;stroke-width:0.80000001;stroke-miterlimit:1.41420996;stroke-dasharray:none;stroke-opacity:0"
           id="path24"
           inkscape:connector-curvature="0" /><path
           d="m 214.075,198.378 c 2.325,-1.866 4.394,-3.845 5.852,-6.094"
           style="fill:none;stroke:#ec7979;stroke-width:0.80000001;stroke-miterlimit:1.41420996;stroke-dasharray:none;stroke-opacity:0"
           id="path26"
           inkscape:connector-curvature="0" /></g><g
         id="Ears"><path
           d="m 207.673,45.469 c 4.947,-6.386 6.437,-7.268 6.402,-4.151 -0.111,9.708 -9.057,34.519 -12.574,41.286 -0.881,1.695 -4.534,0.929 -5.703,-0.582 -0.289,-0.374 -0.7,-0.975 -1.164,-1.727 1.802,0.52 4.259,1.074 5.408,1.561 -0.451,-0.191 -5.449,-2.307 -6.147,-2.812 v 0 c 0.979,-0.074 4.88,0.888 5.842,1.137 -0.126,-0.235 -5.743,-2.401 -6.598,-2.544 v 0 c 0.587,-0.072 5.779,0.994 6.719,1.228 -0.112,-0.232 -6.632,-2.5 -7.395,-2.623 v 0 c 0.86,-0.353 3.35,-0.16 9.053,1.849 -0.444,-0.704 -8.784,-3.154 -9.592,-3.105 v 0 c 1.639,-0.487 4.72,0.271 6.381,1.103 -0.672,-1.246 -4.968,-3.562 -7.33,-4.083 v 0 c 0.709,-0.304 5.968,1.126 7.021,1.628 -0.697,-0.921 -5.939,-4.146 -7.192,-4.482 v 0 c 1.227,-0.032 4.878,1.023 10.121,3.988 -0.927,-2.473 -6.412,-5.238 -8.868,-6.023 2.7,0.368 6.406,0.789 9.075,0.568 -3.059,-1.19 -5.151,-2.068 -6.726,-3.26 2.796,-0.535 9.652,0.793 11.553,-0.254 -8.099,-1.924 -8.001,-3.408 -8.641,-4.668 v 0 c 2.504,0.974 6.156,1.64 7.551,1.815 -3.021,-1.733 -5.71,-3.209 -6.188,-3.696 v 0 c 0.944,0.502 7.876,2.261 8.856,2.39 -2.017,-1.147 -7.087,-2.896 -7.747,-3.73 -0.029,-0.037 -0.06,-0.059 -0.078,-0.079 v 0 c 0.958,0.105 7.909,1.301 8.966,1.288 -1.873,-0.716 -6.386,-2.027 -8.029,-2.576 v 0 c 0.733,0.021 8.58,0.091 9.842,-0.494 -3.287,-0.302 -7.671,-0.557 -8.783,-0.957 v 0 c 1.354,-0.444 7.726,-1.339 8.951,-1.062 -0.615,-0.529 -6.118,-0.671 -7.536,-0.869 h 0.001 c 1.161,-0.889 7.75,-1.082 8.537,-1.032 -1.169,-0.64 -5.458,-0.795 -7.128,-0.877 v 0 c 2.06,-1.532 5.961,-1.399 7.06,-1.422 -1.018,-0.554 -4.086,-0.986 -5.299,-0.93 v 0 c 1.988,-1.256 6.257,-1.902 6.832,-1.949 -1.336,-0.024 -4.11,0.067 -5.453,0.146 z"
           style="fill:#ec7979"
           id="path29"
           inkscape:connector-curvature="0" /><path
           d="m 132.579,28.619 c -8.762,1.242 -16.454,9.623 -19.7,16.499 -2.646,5.603 -3.915,12.728 -5.576,16.454 -0.822,1.842 -3.232,2.916 -3.538,4.91 -0.563,3.666 -1.716,15.316 0.161,17.085 1.876,1.769 9.346,-5.444 11.095,-6.471 2.014,4.373 -3.296,13.266 -2.573,13.347 0.724,0.08 7.616,-6.691 6.915,-12.865 4.503,0.215 5.317,8.831 6.272,9.809 1.903,0.188 4.553,-5.371 5.146,-8.683 0.123,-0.686 -3.47,-1.607 -4.497,-8.714 3.006,3.573 5.182,4.897 6.156,4.46 0.431,-0.193 -4.475,-5.126 -5.377,-7.311 -0.733,-1.775 3.143,1.269 4.539,1.103 -0.495,-1.512 -4.504,-5.426 -5.324,-6.67 0.614,0.189 5.863,4.318 6.897,5.404 -0.399,-1.275 -4.227,-5.375 -6.257,-6.982 2.631,0.011 8.909,3.247 9.485,3.425 -0.59,-0.816 -7.49,-4.665 -8.342,-5.448 1.566,0.404 7.654,2.798 8.539,3.601 -0.626,-0.579 -4.6,-4.339 -7.568,-6.038 2.277,0.589 6.585,3.084 7.502,4.262 -0.291,-1.433 -3.632,-6.165 -4.676,-7.575 2.171,1.116 3.699,4.282 5.401,5.072 1.457,0.677 5.346,1.142 4.808,-0.329 -0.538,-1.471 -7.612,-7.751 -8.036,-8.497 1.757,0.678 6.258,3.184 7.048,4.018 -0.288,-0.656 -5.21,-6.002 -6.06,-6.916 3.209,1.546 5.662,3.131 7.18,4.149 -0.385,-2.759 -0.858,-22.342 -9.62,-21.099 z"
           style="fill:#ec7979"
           id="path31"
           inkscape:connector-curvature="0" /></g></g><g
       id="p1cWChat3"><path
         id="p1cWChatBox3"
         d="m 350.241,357.176 -269.33,-16.491 -1.885,30.79 269.33,16.49 z"
         style="opacity:0;fill:#ec7979"
         inkscape:connector-curvature="0" /><clipPath
         id="_clip2"><path
           d="m 320.241,407.176 -269.33,-16.491 -1.885,30.79 269.33,16.49 z"
           id="path36"
           inkscape:connector-curvature="0" /></clipPath><g
         clip-path="url(#_clip2)"
         id="g77"><g
           id="g75"><rect
             x="125.352"
             y="416.51199"
             width="4.7620001"
             height="4.5739999"
             style="fill:#ffffff;fill-rule:nonzero"
             id="rect39" /><rect
             x="130.867"
             y="416.51199"
             width="4.7620001"
             height="4.5739999"
             style="fill:#ffffff;fill-rule:nonzero"
             id="rect41" /><path
             d="m 141.571,403.467 v 3.934 h -5 v -3.934 z m 0,4.874 v 11.993 c 0,1.211 -0.107,2.151 -0.321,2.82 -0.213,0.668 -0.688,1.232 -1.424,1.691 -0.737,0.46 -1.779,0.69 -3.126,0.69 -0.879,0 -1.728,-0.08 -2.548,-0.238 v -3.647 c 0.368,0.159 0.735,0.238 1.103,0.238 0.877,0 1.316,-0.518 1.316,-1.554 v -11.993 z"
             style="fill:#ffffff;fill-rule:nonzero"
             id="path43"
             inkscape:connector-curvature="0" /><path
             d="m 155.044,408.341 v 12.745 h -4.625 v -2.093 c -0.676,1.571 -1.996,2.356 -3.96,2.356 -1.211,0 -2.149,-0.336 -2.813,-1.009 -0.664,-0.672 -0.996,-1.635 -0.996,-2.888 v -9.111 h 5 v 8.021 c 0,0.501 0.069,0.854 0.207,1.058 0.138,0.205 0.407,0.307 0.808,0.307 0.426,0 0.773,-0.152 1.04,-0.457 0.267,-0.305 0.401,-0.733 0.401,-1.284 v -7.645 z"
             style="fill:#ffffff;fill-rule:nonzero"
             id="path45"
             inkscape:connector-curvature="0" /><path
             d="m 155.007,417.477 3.948,-0.539 c 0.225,0.919 1.119,1.378 2.682,1.378 1.295,0 1.942,-0.25 1.942,-0.751 0,-0.218 -0.125,-0.387 -0.376,-0.508 -0.251,-0.121 -0.844,-0.244 -1.779,-0.37 -2.59,-0.359 -4.207,-0.921 -4.85,-1.685 -0.643,-0.765 -0.965,-1.615 -0.965,-2.551 0,-1.303 0.543,-2.358 1.629,-3.164 1.086,-0.806 2.511,-1.209 4.273,-1.209 3.091,0 5.063,1.115 5.915,3.346 l -3.784,0.714 c -0.351,-0.752 -1.091,-1.127 -2.218,-1.127 -0.535,0 -0.934,0.073 -1.197,0.219 -0.263,0.146 -0.395,0.29 -0.395,0.432 0,0.418 0.401,0.672 1.203,0.763 2.089,0.231 3.506,0.468 4.249,0.71 0.743,0.243 1.378,0.686 1.904,1.329 0.527,0.644 0.79,1.422 0.79,2.333 0,1.396 -0.583,2.504 -1.749,3.323 -1.165,0.819 -2.771,1.229 -4.818,1.229 -3.45,0 -5.585,-1.291 -6.404,-3.872 z"
             style="fill:#ffffff;fill-rule:nonzero"
             id="path47"
             inkscape:connector-curvature="0" /><path
             d="m 176.187,408.341 v 3.246 h -2.544 v 4.699 c 0,0.644 0.122,1.026 0.364,1.147 0.242,0.121 0.493,0.182 0.752,0.182 0.401,0 0.877,-0.071 1.428,-0.213 v 3.559 c -0.986,0.192 -1.955,0.288 -2.907,0.288 -1.537,0 -2.667,-0.33 -3.39,-0.99 -0.722,-0.66 -1.084,-1.713 -1.084,-3.158 l 0.013,-1.491 v -4.023 h -1.905 v -3.246 h 1.905 l 0.075,-4.148 4.749,-0.075 v 4.223 z"
             style="fill:#ffffff;fill-rule:nonzero"
             id="path49"
             inkscape:connector-curvature="0" /><path
             d="m 188.396,408.078 v 13.008 h -4.975 v -13.008 h -3.546 v -4.098 h 12.067 v 4.098 z"
             style="fill:#ffffff;fill-rule:nonzero"
             id="path51"
             inkscape:connector-curvature="0" /><path
             d="m 199.287,421.349 c -2.406,0 -4.367,-0.798 -5.883,-2.393 -1.516,-1.596 -2.275,-3.731 -2.275,-6.404 0,-2.557 0.725,-4.668 2.175,-6.335 1.449,-1.666 3.46,-2.5 6.034,-2.5 2.381,0 4.321,0.785 5.821,2.356 1.499,1.571 2.249,3.668 2.249,6.291 0,2.715 -0.756,4.891 -2.268,6.529 -1.512,1.637 -3.463,2.456 -5.853,2.456 z m -0.025,-3.885 c 0.886,0 1.523,-0.386 1.911,-1.159 0.389,-0.773 0.583,-2.187 0.583,-4.242 0,-2.974 -0.798,-4.461 -2.393,-4.461 -1.721,0 -2.582,1.696 -2.582,5.088 0,3.183 0.827,4.774 2.481,4.774 z"
             style="fill:#ffffff;fill-rule:nonzero"
             id="path53"
             inkscape:connector-curvature="0" /><path
             d="m 215.48,421.349 c -2.406,0 -4.367,-0.798 -5.884,-2.393 -1.516,-1.596 -2.274,-3.731 -2.274,-6.404 0,-2.557 0.724,-4.668 2.174,-6.335 1.449,-1.666 3.461,-2.5 6.034,-2.5 2.381,0 4.321,0.785 5.821,2.356 1.499,1.571 2.249,3.668 2.249,6.291 0,2.715 -0.756,4.891 -2.268,6.529 -1.512,1.637 -3.463,2.456 -5.852,2.456 z m -0.025,-3.885 c 0.885,0 1.522,-0.386 1.911,-1.159 0.388,-0.773 0.582,-2.187 0.582,-4.242 0,-2.974 -0.797,-4.461 -2.393,-4.461 -1.721,0 -2.582,1.696 -2.582,5.088 0,3.183 0.828,4.774 2.482,4.774 z"
             style="fill:#ffffff;fill-rule:nonzero"
             id="path55"
             inkscape:connector-curvature="0" /><path
             d="m 236.661,415.948 4.261,0.363 c -0.201,1.487 -0.825,2.699 -1.874,3.635 -1.048,0.935 -2.441,1.403 -4.179,1.403 -1.946,0 -3.528,-0.612 -4.743,-1.836 -1.216,-1.224 -1.823,-2.792 -1.823,-4.705 0,-1.955 0.603,-3.566 1.81,-4.831 1.208,-1.266 2.776,-1.899 4.706,-1.899 1.713,0 3.108,0.478 4.186,1.435 1.077,0.957 1.695,2.166 1.854,3.628 l -4.373,0.363 c -0.184,-1.345 -0.694,-2.017 -1.529,-2.017 -0.535,0 -0.925,0.244 -1.172,0.733 -0.246,0.489 -0.37,1.339 -0.37,2.55 0,1.044 0.124,1.817 0.37,2.318 0.247,0.502 0.675,0.752 1.285,0.752 0.894,0 1.424,-0.631 1.591,-1.892 z"
             style="fill:#ffffff;fill-rule:nonzero"
             id="path57"
             inkscape:connector-curvature="0" /><path
             d="m 247.089,421.349 c -2.114,0 -3.793,-0.658 -5.038,-1.974 -1.245,-1.315 -1.867,-2.859 -1.867,-4.63 0,-1.905 0.65,-3.492 1.949,-4.762 1.299,-1.27 2.988,-1.905 5.069,-1.905 2.097,0 3.782,0.627 5.056,1.88 1.274,1.253 1.911,2.824 1.911,4.712 0,1.905 -0.645,3.494 -1.936,4.768 -1.291,1.274 -3.005,1.911 -5.144,1.911 z m 0.075,-3.033 c 0.777,0 1.251,-0.403 1.422,-1.209 0.172,-0.806 0.257,-1.648 0.257,-2.525 0,-1.195 -0.121,-2.055 -0.363,-2.581 -0.242,-0.527 -0.677,-0.79 -1.303,-0.79 -0.577,0 -0.999,0.272 -1.266,0.815 -0.267,0.543 -0.401,1.437 -0.401,2.681 0,1.462 0.138,2.429 0.413,2.901 0.276,0.472 0.69,0.708 1.241,0.708 z"
             style="fill:#ffffff;fill-rule:nonzero"
             id="path59"
             inkscape:connector-curvature="0" /><rect
             x="254.57201"
             y="403.98001"
             width="4.9250002"
             height="17.106001"
             style="fill:#ffffff;fill-rule:nonzero"
             id="rect61" /><path
             d="m 266.817,421.349 c -2.114,0 -3.793,-0.658 -5.038,-1.974 -1.245,-1.315 -1.867,-2.859 -1.867,-4.63 0,-1.905 0.649,-3.492 1.948,-4.762 1.299,-1.27 2.989,-1.905 5.069,-1.905 2.097,0 3.783,0.627 5.057,1.88 1.274,1.253 1.911,2.824 1.911,4.712 0,1.905 -0.645,3.494 -1.936,4.768 -1.291,1.274 -3.006,1.911 -5.144,1.911 z m 0.075,-3.033 c 0.777,0 1.251,-0.403 1.422,-1.209 0.171,-0.806 0.257,-1.648 0.257,-2.525 0,-1.195 -0.121,-2.055 -0.363,-2.581 -0.243,-0.527 -0.677,-0.79 -1.304,-0.79 -0.576,0 -0.998,0.272 -1.265,0.815 -0.268,0.543 -0.401,1.437 -0.401,2.681 0,1.462 0.137,2.429 0.413,2.901 0.276,0.472 0.689,0.708 1.241,0.708 z"
             style="fill:#ffffff;fill-rule:nonzero"
             id="path63"
             inkscape:connector-curvature="0" /><path
             d="m 279.086,421.086 h -4.787 v -12.745 h 4.161 v 2.632 c 0.476,-1.913 1.583,-2.87 3.321,-2.87 0.175,0 0.417,0.017 0.727,0.05 v 4.449 c -0.351,-0.083 -0.665,-0.125 -0.94,-0.125 -1.654,0 -2.482,0.923 -2.482,2.769 z"
             style="fill:#ffffff;fill-rule:nonzero"
             id="path65"
             inkscape:connector-curvature="0" /><path
             d="m 288.399,411.587 v 9.499 h -4.712 v -9.499 h -1.905 v -3.246 h 1.905 c 0,-1.052 0.046,-1.831 0.138,-2.337 0.092,-0.505 0.322,-0.99 0.689,-1.453 0.368,-0.464 0.861,-0.819 1.479,-1.066 0.618,-0.246 1.449,-0.369 2.494,-0.369 1.119,0 2.193,0.087 3.22,0.263 v 3.271 c -0.793,-0.109 -1.387,-0.163 -1.779,-0.163 -0.393,0 -0.752,0.079 -1.078,0.238 -0.326,0.158 -0.489,0.547 -0.489,1.165 v 0.451 h 3.259 v 3.246 z"
             style="fill:#ffffff;fill-rule:nonzero"
             id="path67"
             inkscape:connector-curvature="0" /><path
             d="m 303.927,408.341 v 12.745 h -4.624 v -2.093 c -0.677,1.571 -1.997,2.356 -3.96,2.356 -1.211,0 -2.149,-0.336 -2.813,-1.009 -0.665,-0.672 -0.997,-1.635 -0.997,-2.888 v -9.111 h 5 v 8.021 c 0,0.501 0.069,0.854 0.207,1.058 0.138,0.205 0.407,0.307 0.808,0.307 0.427,0 0.773,-0.152 1.041,-0.457 0.267,-0.305 0.401,-0.733 0.401,-1.284 v -7.645 z"
             style="fill:#ffffff;fill-rule:nonzero"
             id="path69"
             inkscape:connector-curvature="0" /><rect
             x="305.01901"
             y="403.98001"
             width="4.9250002"
             height="17.106001"
             style="fill:#ffffff;fill-rule:nonzero"
             id="rect71" /><path
             d="m 316.775,403.98 -1.429,11.341 h -3.17 l -1.341,-11.341 z m -0.589,12.532 v 4.574 h -4.837 v -4.574 z"
             style="fill:#ffffff;fill-rule:nonzero"
             id="path73"
             inkscape:connector-curvature="0" /></g></g><path
         id="p1cWChatIco3"
         d="m 119.93184,362.79596 c 0,0 11.402,-7.112 16.68,-8.128 2.616,-0.504 5.15,1.211 5.654,3.828 0.504,2.617 -1.212,5.151 -3.829,5.654 -5.277,1.017 -18.505,-1.354 -18.505,-1.354 z m -8.121,-0.497 c 0,0 -10.449,-8.45 -15.562998,-10.103 -2.536,-0.819 -5.26,0.574 -6.08,3.11 -0.819,2.536 0.575,5.26 3.11,6.079 5.115,1.653 18.532998,0.914 18.532998,0.914 z"
         style="opacity:0;fill:#ffffff;stroke:#ffffff;stroke-width:0.80000001;stroke-opacity:1"
         inkscape:connector-curvature="0" /></g><g
       id="p1cWChat1"><path
         id="p1cWChatBox1"
         d="m 320.669,273.702 -271.147,-34.25 -3.866,30.605 271.147,34.249 z"
         style="opacity:0;fill:#ec7979"
         inkscape:connector-curvature="0" /><clipPath
         id="_clip3"><path
           d="m 290.669,323.702 -271.147,-34.25 -3.866,30.605 271.147,34.249 z"
           id="path82"
           inkscape:connector-curvature="0" /></clipPath><g
         clip-path="url(#_clip3)"
         id="g119"><g
           id="g117"><path
             d="m 98.372,325.6 4.8,0.288 c -0.226,2.097 -1.001,3.706 -2.325,4.825 -1.324,1.12 -2.951,1.679 -4.881,1.679 -2.322,0 -4.198,-0.768 -5.626,-2.306 -1.429,-1.537 -2.143,-3.659 -2.143,-6.366 0,-2.681 0.676,-4.845 2.03,-6.491 1.353,-1.646 3.241,-2.469 5.664,-2.469 2.264,0 4.004,0.627 5.219,1.88 1.216,1.253 1.903,2.916 2.062,4.988 l -4.9,0.263 c 0,-1.145 -0.219,-1.972 -0.658,-2.481 -0.438,-0.51 -0.954,-0.765 -1.548,-0.765 -1.654,0 -2.481,1.663 -2.481,4.988 0,1.863 0.215,3.128 0.646,3.797 0.43,0.668 1.033,1.002 1.81,1.002 1.387,0 2.164,-0.944 2.331,-2.832 z"
             style="fill:#ffffff;fill-rule:nonzero"
             id="path85"
             inkscape:connector-curvature="0" /><path
             d="m 116.219,332.129 h -4.762 c -0.117,-0.543 -0.176,-1.136 -0.176,-1.779 -0.902,1.361 -2.268,2.042 -4.098,2.042 -1.503,0 -2.629,-0.384 -3.377,-1.153 -0.747,-0.768 -1.121,-1.65 -1.121,-2.644 0,-1.345 0.612,-2.433 1.836,-3.264 1.223,-0.832 3.394,-1.331 6.51,-1.498 v -0.288 c 0,-0.56 -0.128,-0.932 -0.383,-1.115 -0.254,-0.184 -0.628,-0.276 -1.121,-0.276 -1.153,0 -1.796,0.464 -1.93,1.391 l -4.561,-0.426 c 0.651,-2.665 2.869,-3.998 6.654,-3.998 1.027,0 1.971,0.103 2.832,0.307 0.86,0.205 1.541,0.525 2.043,0.959 0.501,0.434 0.837,0.894 1.008,1.379 0.172,0.484 0.257,1.416 0.257,2.794 v 5.088 c 0,0.969 0.13,1.796 0.389,2.481 z m -5.188,-5.965 c -2.131,0.226 -3.196,0.907 -3.196,2.043 0,0.768 0.422,1.153 1.266,1.153 0.535,0 0.99,-0.159 1.366,-0.477 0.376,-0.317 0.564,-1.019 0.564,-2.105 z"
             style="fill:#ffffff;fill-rule:nonzero"
             id="path87"
             inkscape:connector-curvature="0" /><path
             d="m 121.671,332.129 h -4.787 v -12.744 h 4.161 v 2.631 c 0.476,-1.913 1.583,-2.87 3.321,-2.87 0.175,0 0.417,0.017 0.727,0.051 v 4.448 c -0.351,-0.083 -0.665,-0.125 -0.94,-0.125 -1.654,0 -2.482,0.923 -2.482,2.769 z"
             style="fill:#ffffff;fill-rule:nonzero"
             id="path89"
             inkscape:connector-curvature="0" /><path
             d="m 133.553,327.555 4.662,0.313 c -0.276,1.254 -0.98,2.321 -2.112,3.202 -1.132,0.882 -2.663,1.322 -4.593,1.322 -2.147,0 -3.859,-0.62 -5.138,-1.861 -1.278,-1.24 -1.917,-2.78 -1.917,-4.618 0,-1.904 0.631,-3.513 1.892,-4.824 1.262,-1.312 2.945,-1.968 5.05,-1.968 2.039,0 3.687,0.619 4.944,1.855 1.258,1.236 1.886,2.92 1.886,5.05 0,0.176 -0.004,0.418 -0.012,0.727 h -8.534 c 0.016,0.802 0.158,1.397 0.426,1.786 0.267,0.388 0.777,0.583 1.529,0.583 1.086,0 1.725,-0.523 1.917,-1.567 z m -0.338,-3.308 c -0.009,-0.861 -0.182,-1.439 -0.519,-1.736 -0.337,-0.296 -0.755,-0.445 -1.255,-0.445 -1.182,0 -1.773,0.727 -1.773,2.181 z"
             style="fill:#ffffff;fill-rule:nonzero"
             id="path91"
             inkscape:connector-curvature="0" /><path
             d="m 144.031,322.63 v 9.499 h -4.712 v -9.499 h -1.905 v -3.245 h 1.905 c 0,-1.053 0.046,-1.832 0.138,-2.338 0.092,-0.505 0.321,-0.99 0.689,-1.453 0.368,-0.464 0.861,-0.819 1.479,-1.065 0.618,-0.247 1.449,-0.37 2.494,-0.37 1.119,0 2.193,0.088 3.22,0.263 v 3.271 c -0.794,-0.109 -1.387,-0.163 -1.779,-0.163 -0.393,0 -0.752,0.079 -1.078,0.238 -0.326,0.159 -0.489,0.547 -0.489,1.165 v 0.452 h 3.258 v 3.245 z"
             style="fill:#ffffff;fill-rule:nonzero"
             id="path93"
             inkscape:connector-curvature="0" /><path
             d="m 159.559,319.385 v 12.744 h -4.624 v -2.093 c -0.677,1.571 -1.997,2.356 -3.96,2.356 -1.212,0 -2.149,-0.336 -2.814,-1.009 -0.664,-0.672 -0.996,-1.635 -0.996,-2.888 v -9.11 h 5 v 8.02 c 0,0.501 0.069,0.854 0.207,1.059 0.138,0.204 0.407,0.307 0.808,0.307 0.426,0 0.773,-0.153 1.04,-0.458 0.268,-0.305 0.401,-0.733 0.401,-1.284 v -7.644 z"
             style="fill:#ffffff;fill-rule:nonzero"
             id="path95"
             inkscape:connector-curvature="0" /><rect
             x="160.651"
             y="315.02399"
             width="4.9250002"
             height="17.106001"
             style="fill:#ffffff;fill-rule:nonzero"
             id="rect97" /><path
             d="m 171.254,327.58 v 4.198 l -2.745,4.75 h -1.967 l 1.967,-4.399 h -2.017 v -4.549 z"
             style="fill:#ffffff;fill-rule:nonzero"
             id="path99"
             inkscape:connector-curvature="0" /><path
             d="m 191.746,315.024 v 17.105 h -5.251 v -6.654 h -4.01 v 6.654 h -5.251 v -17.105 h 5.251 v 6.29 h 4.01 v -6.29 z"
             style="fill:#ffffff;fill-rule:nonzero"
             id="path101"
             inkscape:connector-curvature="0" /><path
             d="m 199.229,332.392 c -2.114,0 -3.793,-0.658 -5.038,-1.973 -1.245,-1.316 -1.867,-2.86 -1.867,-4.631 0,-1.905 0.649,-3.492 1.949,-4.762 1.299,-1.27 2.988,-1.905 5.069,-1.905 2.097,0 3.782,0.627 5.056,1.88 1.274,1.253 1.911,2.824 1.911,4.712 0,1.905 -0.645,3.494 -1.936,4.768 -1.291,1.274 -3.005,1.911 -5.144,1.911 z m 0.075,-3.032 c 0.777,0 1.251,-0.403 1.422,-1.21 0.172,-0.806 0.257,-1.648 0.257,-2.525 0,-1.194 -0.121,-2.055 -0.363,-2.581 -0.242,-0.527 -0.677,-0.79 -1.303,-0.79 -0.577,0 -0.999,0.272 -1.266,0.815 -0.267,0.543 -0.401,1.437 -0.401,2.682 0,1.462 0.138,2.429 0.413,2.901 0.276,0.472 0.69,0.708 1.241,0.708 z"
             style="fill:#ffffff;fill-rule:nonzero"
             id="path103"
             inkscape:connector-curvature="0" /><path
             d="m 212.94,332.392 c -2.114,0 -3.793,-0.658 -5.038,-1.973 -1.245,-1.316 -1.867,-2.86 -1.867,-4.631 0,-1.905 0.65,-3.492 1.949,-4.762 1.299,-1.27 2.988,-1.905 5.069,-1.905 2.097,0 3.782,0.627 5.056,1.88 1.274,1.253 1.911,2.824 1.911,4.712 0,1.905 -0.645,3.494 -1.936,4.768 -1.291,1.274 -3.005,1.911 -5.144,1.911 z m 0.075,-3.032 c 0.777,0 1.251,-0.403 1.422,-1.21 0.172,-0.806 0.257,-1.648 0.257,-2.525 0,-1.194 -0.121,-2.055 -0.363,-2.581 -0.242,-0.527 -0.677,-0.79 -1.303,-0.79 -0.577,0 -0.999,0.272 -1.266,0.815 -0.267,0.543 -0.401,1.437 -0.401,2.682 0,1.462 0.138,2.429 0.413,2.901 0.276,0.472 0.69,0.708 1.241,0.708 z"
             style="fill:#ffffff;fill-rule:nonzero"
             id="path105"
             inkscape:connector-curvature="0" /><path
             d="m 239.734,332.129 h -4.85 v -7.97 c 0,-0.535 -0.077,-0.909 -0.232,-1.122 -0.154,-0.213 -0.428,-0.319 -0.821,-0.319 -0.935,0 -1.403,0.681 -1.403,2.043 v 7.368 h -4.8 v -7.97 c 0,-1.019 -0.392,-1.529 -1.178,-1.529 -0.81,0 -1.215,0.51 -1.215,1.529 v 7.97 h -4.812 v -12.744 h 4.486 v 1.716 c 0.802,-1.32 1.967,-1.98 3.496,-1.98 1.646,0 2.841,0.66 3.584,1.98 0.827,-1.32 2.097,-1.98 3.81,-1.98 0.819,0 1.539,0.172 2.162,0.514 0.622,0.343 1.073,0.783 1.353,1.322 0.28,0.539 0.42,1.372 0.42,2.5 z"
             style="fill:#ffffff;fill-rule:nonzero"
             id="path107"
             inkscape:connector-curvature="0" /><path
             d="m 253.683,332.129 h -4.762 c -0.117,-0.543 -0.175,-1.136 -0.175,-1.779 -0.903,1.361 -2.269,2.042 -4.098,2.042 -1.504,0 -2.63,-0.384 -3.378,-1.153 -0.747,-0.768 -1.121,-1.65 -1.121,-2.644 0,-1.345 0.612,-2.433 1.836,-3.264 1.224,-0.832 3.394,-1.331 6.51,-1.498 v -0.288 c 0,-0.56 -0.127,-0.932 -0.382,-1.115 -0.255,-0.184 -0.629,-0.276 -1.122,-0.276 -1.153,0 -1.796,0.464 -1.93,1.391 l -4.561,-0.426 c 0.651,-2.665 2.87,-3.998 6.654,-3.998 1.028,0 1.972,0.103 2.832,0.307 0.861,0.205 1.542,0.525 2.043,0.959 0.501,0.434 0.837,0.894 1.009,1.379 0.171,0.484 0.257,1.416 0.257,2.794 v 5.088 c 0,0.969 0.129,1.796 0.388,2.481 z m -5.188,-5.965 c -2.13,0.226 -3.196,0.907 -3.196,2.043 0,0.768 0.422,1.153 1.266,1.153 0.535,0 0.99,-0.159 1.366,-0.477 0.376,-0.317 0.564,-1.019 0.564,-2.105 z"
             style="fill:#ffffff;fill-rule:nonzero"
             id="path109"
             inkscape:connector-curvature="0" /><path
             d="m 266.793,332.129 h -5.001 v -8.02 c 0,-0.66 -0.102,-1.082 -0.307,-1.266 -0.204,-0.184 -0.461,-0.275 -0.77,-0.275 -0.911,0 -1.366,0.634 -1.366,1.904 v 7.657 h -5 v -12.744 h 4.636 v 1.804 c 0.685,-1.378 1.909,-2.068 3.672,-2.068 0.927,0 1.711,0.178 2.35,0.533 0.639,0.355 1.096,0.814 1.372,1.378 0.276,0.564 0.414,1.544 0.414,2.939 z"
             style="fill:#ffffff;fill-rule:nonzero"
             id="path111"
             inkscape:connector-curvature="0" /><path
             d="m 273.624,315.024 -1.429,11.341 h -3.17 l -1.341,-11.341 z m -0.589,12.531 v 4.574 h -4.837 v -4.574 z"
             style="fill:#ffffff;fill-rule:nonzero"
             id="path113"
             inkscape:connector-curvature="0" /><path
             d="m 280.179,315.024 -1.428,11.341 h -3.171 l -1.341,-11.341 z m -0.589,12.531 v 4.574 h -4.837 v -4.574 z"
             style="fill:#ffffff;fill-rule:nonzero"
             id="path115"
             inkscape:connector-curvature="0" /></g></g><path
         id="p1cWChatIco1"
         d="m 87.036799,264.03209 c 0,0 11.836,-6.362 17.168001,-7.036 2.644,-0.334 5.062,1.541 5.396,4.185 0.334,2.644 -1.541,5.061 -4.185,5.396 -5.332,0.673 -18.379001,-2.545 -18.379001,-2.545 z m -8.073,-1.019 c 0,0 -9.882,-9.106 -14.879,-11.085 -2.478,-0.981 -5.286,0.234 -6.267,2.712 -0.981,2.478 0.234,5.286 2.712,6.267 4.997,1.978 18.434,2.106 18.434,2.106 z"
         style="opacity:0;fill:#ffffff;stroke:#ffffff;stroke-width:0.80000001;stroke-opacity:1"
         inkscape:connector-curvature="0" /></g><g
       id="p1cWChat2"><path
         id="p1cWChatBox2"
         d="m 308.278,283.331 -325.503,37.829 3.561,30.642 325.503,-37.83 z"
         style="opacity:0;fill:#ec7979"
         inkscape:connector-curvature="0" /><clipPath
         id="p1cWChatBox2mClip"><path
           d="m 308.278,283.331 -325.503,37.829 3.561,30.642 325.503,-37.83 z"
           id="p1cWChatBox2m"
           inkscape:connector-curvature="0" /></clipPath><g
         id="g164"
         clip-path="url(#p1cWChatBox2mClip)"><path
           d="m 98.158,367.602 1.12,12.96 -4.957,0.428 -1.12,-12.959 -3.533,0.305 -0.353,-4.083 12.023,-1.039 0.353,4.083 z"
           style="fill:#ffffff;fill-rule:nonzero"
           id="path124"
           inkscape:connector-curvature="0" /><path
           d="m 115.061,379.197 -4.982,0.431 -0.66,-7.641 c -0.061,-0.699 -0.179,-1.173 -0.355,-1.422 -0.176,-0.249 -0.483,-0.354 -0.922,-0.317 -0.34,0.03 -0.627,0.157 -0.862,0.383 -0.235,0.226 -0.364,0.449 -0.386,0.669 -0.023,0.22 -0.005,0.675 0.055,1.366 l 0.621,7.179 -4.982,0.43 -1.473,-17.042 4.982,-0.43 0.505,5.843 c 0.797,-1.251 1.92,-1.94 3.368,-2.065 0.733,-0.063 1.387,0.008 1.962,0.214 0.575,0.206 1.03,0.496 1.364,0.87 0.335,0.373 0.57,0.743 0.706,1.108 0.137,0.366 0.251,1.086 0.344,2.159 z"
           style="fill:#ffffff;fill-rule:nonzero"
           id="path126"
           inkscape:connector-curvature="0" /><path
           d="m 124.157,373.82 4.671,-0.089 c -0.167,1.272 -0.776,2.396 -1.828,3.372 -1.052,0.975 -2.539,1.546 -4.462,1.712 -2.139,0.185 -3.899,-0.285 -5.279,-1.411 -1.38,-1.126 -2.149,-2.605 -2.308,-4.436 -0.164,-1.898 0.326,-3.554 1.47,-4.97 1.144,-1.415 2.765,-2.213 4.862,-2.395 2.031,-0.175 3.726,0.299 5.085,1.422 1.359,1.124 2.131,2.747 2.314,4.869 0.015,0.175 0.032,0.417 0.05,0.726 l -8.502,0.735 c 0.086,0.797 0.278,1.378 0.578,1.742 0.3,0.364 0.824,0.514 1.573,0.449 1.082,-0.094 1.674,-0.669 1.776,-1.726 z m -0.622,-3.267 c -0.083,-0.856 -0.305,-1.418 -0.666,-1.684 -0.362,-0.267 -0.791,-0.379 -1.289,-0.336 -1.177,0.102 -1.704,0.877 -1.578,2.326 z"
           style="fill:#ffffff;fill-rule:nonzero"
           id="path128"
           inkscape:connector-curvature="0" /><path
           d="m 139.922,364.256 -3.792,14.189 c -0.293,1.074 -0.772,1.935 -1.437,2.584 -0.665,0.648 -1.743,1.037 -3.232,1.166 -0.358,0.031 -1.194,0.065 -2.507,0.103 l -0.306,-3.533 c 0.658,0.044 1.262,0.042 1.811,-0.006 1.432,-0.123 2.12,-0.501 2.066,-1.134 -0.018,-0.208 -0.114,-0.489 -0.287,-0.843 l -5.575,-11.38 5.329,-0.46 2.685,6.594 1.606,-6.965 z"
           style="fill:#ffffff;fill-rule:nonzero"
           id="path130"
           inkscape:connector-curvature="0" /><path
           d="m 144.145,373.061 3.887,-0.877 c 0.304,0.896 1.234,1.277 2.79,1.143 1.29,-0.112 1.914,-0.417 1.871,-0.917 -0.019,-0.216 -0.158,-0.374 -0.418,-0.473 -0.261,-0.099 -0.862,-0.171 -1.805,-0.215 -2.611,-0.135 -4.27,-0.556 -4.977,-1.262 -0.707,-0.706 -1.1,-1.525 -1.181,-2.458 -0.112,-1.298 0.338,-2.396 1.351,-3.292 1.012,-0.897 2.397,-1.421 4.153,-1.573 3.079,-0.266 5.14,0.675 6.181,2.824 l -3.709,1.038 c -0.414,-0.719 -1.183,-1.03 -2.307,-0.933 -0.533,0.046 -0.924,0.153 -1.173,0.322 -0.25,0.168 -0.369,0.323 -0.357,0.464 0.036,0.417 0.458,0.635 1.265,0.657 2.101,0.05 3.532,0.164 4.294,0.341 0.761,0.178 1.432,0.565 2.012,1.161 0.579,0.596 0.908,1.348 0.987,2.256 0.12,1.391 -0.365,2.544 -1.456,3.461 -1.09,0.917 -2.655,1.463 -4.694,1.639 -3.438,0.297 -5.676,-0.805 -6.714,-3.306 z"
           style="fill:#ffffff;fill-rule:nonzero"
           id="path132"
           inkscape:connector-curvature="0" /><path
           d="m 170.389,374.415 -4.744,0.41 c -0.163,-0.531 -0.273,-1.117 -0.328,-1.758 -0.782,1.435 -2.084,2.231 -3.907,2.388 -1.498,0.13 -2.653,-0.156 -3.464,-0.857 -0.811,-0.702 -1.259,-1.548 -1.345,-2.538 -0.116,-1.34 0.4,-2.477 1.548,-3.411 1.148,-0.933 3.267,-1.617 6.357,-2.052 l -0.025,-0.287 c -0.048,-0.558 -0.207,-0.917 -0.477,-1.079 -0.269,-0.161 -0.65,-0.22 -1.141,-0.178 -1.148,0.1 -1.749,0.617 -1.803,1.552 l -4.581,-0.031 c 0.42,-2.712 2.515,-4.23 6.285,-4.556 1.024,-0.089 1.973,-0.068 2.848,0.062 0.875,0.13 1.581,0.389 2.118,0.779 0.537,0.39 0.911,0.819 1.124,1.287 0.212,0.468 0.378,1.388 0.496,2.762 l 0.438,5.069 c 0.084,0.965 0.284,1.778 0.601,2.438 z m -5.682,-5.496 c -2.103,0.408 -3.106,1.178 -3.008,2.31 0.066,0.766 0.519,1.113 1.36,1.04 0.533,-0.046 0.973,-0.244 1.32,-0.592 0.347,-0.349 0.474,-1.064 0.381,-2.146 z"
           style="fill:#ffffff;fill-rule:nonzero"
           id="path134"
           inkscape:connector-curvature="0" /><path
           d="m 181.479,360.664 -3.793,14.19 c -0.293,1.073 -0.772,1.934 -1.437,2.583 -0.665,0.648 -1.742,1.037 -3.232,1.166 -0.358,0.031 -1.194,0.065 -2.507,0.103 l -0.305,-3.533 c 0.657,0.044 1.261,0.042 1.81,-0.005 1.432,-0.124 2.12,-0.502 2.066,-1.135 -0.018,-0.208 -0.114,-0.489 -0.287,-0.843 l -5.575,-11.379 5.329,-0.461 2.685,6.594 1.607,-6.965 z"
           style="fill:#ffffff;fill-rule:nonzero"
           id="path136"
           inkscape:connector-curvature="0" /><path
           d="m 185.719,368.524 0.362,4.183 -2.326,4.968 -1.96,0.169 1.582,-4.551 -2.011,0.173 -0.391,-4.532 z"
           style="fill:#ffffff;fill-rule:nonzero"
           id="path138"
           inkscape:connector-curvature="0" /><path
           d="m 204.292,371.485 -4.982,0.43 -0.69,-7.99 c -0.057,-0.658 -0.195,-1.069 -0.415,-1.235 -0.22,-0.165 -0.484,-0.235 -0.792,-0.208 -0.907,0.078 -1.306,0.75 -1.197,2.015 l 0.66,7.629 -4.982,0.43 -1.097,-12.697 4.619,-0.399 0.156,1.798 c 0.563,-1.433 1.724,-2.225 3.48,-2.377 0.924,-0.079 1.719,0.03 2.387,0.329 0.667,0.298 1.162,0.717 1.485,1.255 0.324,0.538 0.545,1.502 0.665,2.892 z"
           style="fill:#ffffff;fill-rule:nonzero"
           id="path140"
           inkscape:connector-curvature="0" /><path
           d="m 213.376,366.108 4.671,-0.089 c -0.167,1.272 -0.776,2.396 -1.828,3.372 -1.052,0.976 -2.539,1.546 -4.462,1.713 -2.139,0.185 -3.899,-0.286 -5.279,-1.412 -1.38,-1.126 -2.15,-2.604 -2.308,-4.436 -0.164,-1.897 0.326,-3.554 1.47,-4.969 1.144,-1.416 2.765,-2.214 4.862,-2.395 2.031,-0.176 3.726,0.298 5.085,1.422 1.359,1.123 2.13,2.746 2.314,4.869 0.015,0.175 0.032,0.416 0.05,0.725 l -8.502,0.735 c 0.085,0.798 0.278,1.378 0.578,1.742 0.3,0.364 0.824,0.514 1.573,0.449 1.082,-0.093 1.674,-0.669 1.776,-1.726 z m -0.622,-3.266 c -0.083,-0.857 -0.305,-1.419 -0.666,-1.685 -0.362,-0.266 -0.791,-0.378 -1.289,-0.335 -1.177,0.102 -1.704,0.877 -1.579,2.325 z"
           style="fill:#ffffff;fill-rule:nonzero"
           id="path142"
           inkscape:connector-curvature="0" /><path
           d="m 231.45,369.137 -5.612,0.485 -2.681,-3.855 -2.142,4.272 -4.048,0.35 3.877,-7.117 -4.425,-5.628 5.537,-0.478 1.515,2.254 c 0.068,0.103 0.149,0.221 0.245,0.355 0.047,0.063 0.115,0.166 0.203,0.309 0.079,-0.149 0.175,-0.35 0.288,-0.602 0.013,-0.043 0.051,-0.134 0.115,-0.274 l 1.108,-2.342 4.111,-0.356 -3.221,6.098 z"
           style="fill:#ffffff;fill-rule:nonzero"
           id="path144"
           inkscape:connector-curvature="0" /><path
           d="m 237.807,355.796 0.28,3.233 -2.535,0.219 0.405,4.682 c 0.056,0.641 0.209,1.012 0.461,1.111 0.252,0.1 0.507,0.139 0.765,0.117 0.399,-0.035 0.868,-0.147 1.405,-0.336 l 0.306,3.546 c -0.966,0.276 -1.923,0.456 -2.872,0.538 -1.531,0.132 -2.685,-0.099 -3.462,-0.695 -0.777,-0.595 -1.227,-1.613 -1.352,-3.053 l -0.116,-1.486 -0.346,-4.008 -1.898,0.164 -0.28,-3.234 1.898,-0.164 -0.282,-4.139 4.725,-0.484 0.364,4.208 z"
           style="fill:#ffffff;fill-rule:nonzero"
           id="path146"
           inkscape:connector-curvature="0" /><path
           d="m 249.217,371.639 -4.981,0.431 -1.444,-16.705 4.582,-0.396 0.155,1.798 c 0.523,-1.429 1.658,-2.219 3.405,-2.37 1.515,-0.131 2.752,0.355 3.711,1.459 0.959,1.104 1.527,2.671 1.702,4.702 0.176,2.031 -0.124,3.683 -0.898,4.958 -0.775,1.274 -1.882,1.974 -3.322,2.098 -1.415,0.123 -2.539,-0.325 -3.374,-1.343 z m -0.748,-8.652 c 0.049,0.566 0.216,0.994 0.501,1.284 0.285,0.29 0.619,0.418 1.002,0.385 0.599,-0.052 0.988,-0.364 1.164,-0.937 0.177,-0.573 0.216,-1.434 0.117,-2.582 -0.115,-1.324 -0.324,-2.243 -0.628,-2.757 -0.305,-0.515 -0.715,-0.75 -1.231,-0.705 -0.308,0.026 -0.604,0.173 -0.886,0.441 -0.283,0.268 -0.401,0.676 -0.354,1.226 z"
           style="fill:#ffffff;fill-rule:nonzero"
           id="path148"
           inkscape:connector-curvature="0" /><path
           d="m 270.147,365.793 -4.744,0.41 c -0.164,-0.531 -0.273,-1.117 -0.328,-1.758 -0.782,1.434 -2.084,2.23 -3.907,2.388 -1.498,0.129 -2.653,-0.157 -3.464,-0.858 -0.811,-0.701 -1.26,-1.547 -1.345,-2.538 -0.116,-1.34 0.4,-2.477 1.548,-3.41 1.147,-0.934 3.266,-1.618 6.357,-2.053 l -0.025,-0.287 c -0.048,-0.558 -0.207,-0.917 -0.477,-1.078 -0.27,-0.161 -0.65,-0.221 -1.141,-0.178 -1.149,0.099 -1.75,0.616 -1.803,1.552 l -4.581,-0.032 c 0.419,-2.711 2.515,-4.23 6.285,-4.556 1.024,-0.088 1.973,-0.067 2.848,0.062 0.875,0.13 1.581,0.39 2.118,0.78 0.537,0.389 0.911,0.818 1.123,1.286 0.213,0.468 0.378,1.389 0.497,2.762 l 0.438,5.069 c 0.084,0.966 0.284,1.778 0.601,2.439 z m -5.683,-5.497 c -2.103,0.409 -3.105,1.179 -3.007,2.311 0.066,0.765 0.519,1.112 1.36,1.039 0.533,-0.046 0.973,-0.243 1.32,-0.592 0.347,-0.348 0.474,-1.064 0.38,-2.146 z"
           style="fill:#ffffff;fill-rule:nonzero"
           id="path150"
           inkscape:connector-curvature="0" /><path
           d="m 282.697,349.01 0.17,3.419 -0.238,0.008 c -0.452,0.014 -0.773,0.029 -0.965,0.046 -0.774,0.067 -1.227,0.261 -1.358,0.583 1.016,0.7 1.572,1.604 1.668,2.711 0.112,1.298 -0.317,2.319 -1.289,3.061 -0.971,0.742 -2.339,1.189 -4.104,1.342 -0.041,0.004 -0.258,0.014 -0.651,0.031 -0.368,0.015 -0.56,0.023 -0.577,0.025 -0.807,0.07 -1.193,0.313 -1.157,0.729 0.032,0.366 0.407,0.531 1.125,0.494 l 4.098,-0.178 c 1.495,-0.063 2.624,0.259 3.385,0.965 0.761,0.705 1.186,1.57 1.274,2.594 0.105,1.215 -0.327,2.253 -1.297,3.112 -0.969,0.859 -2.953,1.419 -5.949,1.678 -4.619,0.399 -7.021,-0.463 -7.204,-2.585 -0.1,-1.157 0.442,-2.017 1.626,-2.581 -0.839,-0.489 -1.292,-1.117 -1.358,-1.882 -0.108,-1.249 0.622,-2.26 2.191,-3.032 -1.408,-0.474 -2.171,-1.398 -2.29,-2.771 -0.109,-1.257 0.356,-2.282 1.394,-3.076 1.039,-0.795 2.515,-1.274 4.429,-1.44 0.874,-0.075 1.677,-0.057 2.408,0.056 0.119,-2.014 1.086,-3.1 2.9,-3.257 0.417,-0.036 1.006,-0.053 1.769,-0.052 z m -6.582,8.833 c 0.966,-0.084 1.404,-0.637 1.316,-1.661 -0.091,-1.049 -0.631,-1.53 -1.622,-1.445 -0.982,0.085 -1.427,0.66 -1.335,1.726 0.087,1.007 0.634,1.467 1.641,1.38 z m -0.65,7.324 c -0.183,0.007 -0.367,0.019 -0.55,0.034 -0.857,0.075 -1.263,0.378 -1.217,0.912 0.043,0.492 0.397,0.78 1.062,0.865 0.666,0.086 1.544,0.081 2.634,-0.013 1.032,-0.089 1.689,-0.234 1.969,-0.434 0.28,-0.2 0.407,-0.454 0.381,-0.762 -0.019,-0.216 -0.101,-0.392 -0.247,-0.526 -0.146,-0.134 -0.469,-0.191 -0.971,-0.173 z"
           style="fill:#ffffff;fill-rule:nonzero"
           id="path152"
           inkscape:connector-curvature="0" /><path
           d="m 291.829,359.327 4.672,-0.089 c -0.167,1.272 -0.776,2.396 -1.828,3.372 -1.052,0.975 -2.539,1.546 -4.462,1.712 -2.139,0.185 -3.899,-0.285 -5.279,-1.411 -1.38,-1.126 -2.15,-2.605 -2.308,-4.436 -0.164,-1.897 0.326,-3.554 1.47,-4.969 1.144,-1.416 2.764,-2.214 4.862,-2.395 2.031,-0.176 3.726,0.298 5.085,1.422 1.359,1.123 2.13,2.746 2.314,4.869 0.015,0.174 0.032,0.416 0.05,0.725 l -8.502,0.735 c 0.085,0.797 0.278,1.378 0.578,1.742 0.3,0.364 0.824,0.514 1.573,0.449 1.082,-0.093 1.674,-0.669 1.775,-1.726 z m -0.621,-3.267 c -0.083,-0.856 -0.305,-1.418 -0.666,-1.684 -0.362,-0.267 -0.791,-0.378 -1.289,-0.335 -1.178,0.102 -1.704,0.877 -1.579,2.325 z"
           style="fill:#ffffff;fill-rule:nonzero"
           id="path154"
           inkscape:connector-curvature="0" /><path
           d="m 305.614,345.017 0.341,3.945 -4.981,0.431 -0.341,-3.946 z m 0.422,4.881 1.097,12.698 -4.981,0.43 -1.098,-12.697 z"
           style="fill:#ffffff;fill-rule:nonzero"
           id="path156"
           inkscape:connector-curvature="0" /><path
           d="m 306.787,359.003 3.886,-0.877 c 0.304,0.896 1.234,1.277 2.791,1.143 1.29,-0.112 1.913,-0.417 1.87,-0.917 -0.019,-0.216 -0.158,-0.374 -0.418,-0.473 -0.26,-0.099 -0.862,-0.171 -1.805,-0.215 -2.611,-0.135 -4.27,-0.556 -4.977,-1.262 -0.707,-0.706 -1.1,-1.525 -1.181,-2.457 -0.112,-1.299 0.338,-2.396 1.351,-3.293 1.012,-0.897 2.397,-1.421 4.153,-1.573 3.08,-0.266 5.14,0.675 6.181,2.824 l -3.709,1.038 c -0.414,-0.719 -1.183,-1.03 -2.307,-0.933 -0.532,0.046 -0.924,0.154 -1.173,0.322 -0.25,0.168 -0.368,0.323 -0.356,0.465 0.036,0.416 0.457,0.634 1.264,0.656 2.101,0.05 3.533,0.164 4.294,0.342 0.762,0.177 1.432,0.564 2.012,1.16 0.58,0.596 0.909,1.348 0.987,2.256 0.12,1.391 -0.365,2.545 -1.455,3.461 -1.091,0.917 -2.656,1.463 -4.695,1.64 -3.438,0.297 -5.675,-0.806 -6.713,-3.307 z"
           style="fill:#ffffff;fill-rule:nonzero"
           id="path158"
           inkscape:connector-curvature="0" /><path
           d="m 324.409,356.511 0.394,4.557 -4.745,0.41 -0.393,-4.557 z"
           style="fill:#ffffff;fill-rule:nonzero"
           id="path160"
           inkscape:connector-curvature="0" /><path
           d="m 329.904,356.036 0.394,4.557 -4.745,0.411 -0.394,-4.557 z"
           style="fill:#ffffff;fill-rule:nonzero"
           id="path162"
           inkscape:connector-curvature="0" /></g><path
         id="p1cWChatIco2"
         d="m 16.514602,337.00147 c 0,0 -11.7719999,-6.48 -17.09799987,-7.207 -2.64000003,-0.361 -5.07600003,1.491 -5.43700003,4.131 -0.36,2.64 1.491,5.077 4.131,5.437 5.325,0.727 18.4039999,-2.361 18.4039999,-2.361 z m 8.082,-0.939 c 0,0 9.973,-9.008 14.99,-10.937 2.487,-0.956 5.283,0.287 6.239,2.774 0.957,2.488 -0.286,5.284 -2.774,6.24 -5.016,1.929 -18.455,1.923 -18.455,1.923 z"
         style="opacity:0;fill:#ffffff;stroke:#ffffff;stroke-width:0.80000001;stroke-opacity:1"
         inkscape:connector-curvature="0" /></g></g></svg>
