<?xml version="1.0" encoding="UTF-8" standalone="no"?>
<svg
   xmlns:serif="http://www.serif.com/"
   xmlns:dc="http://purl.org/dc/elements/1.1/"
   xmlns:cc="http://creativecommons.org/ns#"
   xmlns:rdf="http://www.w3.org/1999/02/22-rdf-syntax-ns#"
   xmlns:svg="http://www.w3.org/2000/svg"
   xmlns="http://www.w3.org/2000/svg"
   xmlns:sodipodi="http://sodipodi.sourceforge.net/DTD/sodipodi-0.dtd"
   xmlns:inkscape="http://www.inkscape.org/namespaces/inkscape"
   id="svg202"
   width="347px"
   height="430px"
   clip-rule="evenodd"
   fill-rule="evenodd"
   stroke-linejoin="round"
   stroke-miterlimit="1.4142"
   version="1.1"
   xml:space="preserve"
   sodipodi:docname="p1Doggie.svg"
   inkscape:version="0.92.1 r15371"><metadata
     id="metadata106"><rdf:RDF><cc:Work
         rdf:about=""><dc:format>image/svg+xml</dc:format><dc:type
           rdf:resource="http://purl.org/dc/dcmitype/StillImage" /><dc:title></dc:title></cc:Work></rdf:RDF></metadata><defs
     id="defs104" /><sodipodi:namedview
     pagecolor="#ffffff"
     bordercolor="#666666"
     borderopacity="1"
     objecttolerance="10"
     gridtolerance="10"
     guidetolerance="10"
     inkscape:pageopacity="0"
     inkscape:pageshadow="2"
     inkscape:window-width="1920"
     inkscape:window-height="1057"
     id="namedview102"
     showgrid="false"
     inkscape:zoom="1.552346"
     inkscape:cx="307.56582"
     inkscape:cy="186.16872"
     inkscape:window-x="-8"
     inkscape:window-y="-8"
     inkscape:window-maximized="1"
     inkscape:current-layer="svg202" /><rect
     id="p1Doggie"
     width="347"
     height="430"
     fill="none" /><clipPath
     id="_clip1"><rect
       id="rect3"
       width="347"
       height="430" /></clipPath><g
     id="g200"
     clip-path="url(#_clip1)"><rect
       id="rect6"
       x="-6.621"
       y="-9.412"
       width="364.59"
       height="449.24"
       fill="#ec7979" /><path
       id="p1cWDoggyBody"
       d="m47.964 347.9c-10.432-20.881-13.245-34.874-20.032-50.514 1.724-20.127-1.229-42.204-2.07-58.448-1.252-24.187 12.676-38.622-2.927-43.124 6.87-22.422 25.735-28.984 28.655-54.33 20.259-33.316 18.756-48.108 33.907-62.223 2.673-24.556 9.296-26.211 14.5-36.237 4.58-8.821 12.915-21.788 15.104-23.792 4.338-3.973 11.44-9.433 17.347-6.356 2.671 1.391 4.855 4.07 5.792 6.931 1.546 4.724 3.056 18.64 3.847 24.887 6.762-0.656 12.626 1.857 16.962 3.322 5.481-7.047 10.175-0.434 27.041-10.443 7.753-4.601 10.523-9.097 17.632-15.923 1.232-1.183 6.255-2.936 5.81 5.642-0.832 16.008-8.374 32.92-12.256 42.032 2.665 6.514 6.292 17.957 7.377 23.381 0.612 3.064-1.188 5.499-1.361 8.618-0.328 5.913 1.729 16.085 0.458 25.687 7.485 7.538 12.321 17.931 15.149 22.078 2.846 4.173 8.405 6.893 8.35 10.599-0.056 3.705-4.834 13.452-9.546 14.412-1.933 2.191-4.518 4.916-7.85 5.016-4.586 7.106-16.663 8.33-25.241 2.687 8.33 15.423 11.246 34.466 10.721 44.448 17.994 6.885 19.131 18.776 25.865 27.261 10.513 7.777 33.376 18.199 37.315 20.019 7.796 8.502 7.49 13.285 22.726 36.23 2.893 4.357 2.366 12.353 2.299 18.484 7.444 11.829 8.154 33.395 8.154 33.395"
       fill="#fff"
       stroke="#ec7979"
       stroke-linecap="round"
       stroke-linejoin="round"
       stroke-miterlimit="1.4142"
       stroke-width=".8" /><rect
       id="rect9"
       x="-6.621"
       y="336.72"
       width="364.59"
       height="101.29"
       fill="#fff" /><g
       id="Careful-wolf"
       stroke="#ec7979"
       stroke-linecap="round"
       stroke-linejoin="round"
       serif:id="Careful wolf"><path
         id="path11"
         d="m209.85 179.11c-6.466 0.196-20.139-0.436-28.575-4.71-16.168-8.192-25.998-15.184-25.998-15.184"
         fill="none"
         stroke-miterlimit="1.4142"
         stroke-width=".8" /><path
         id="path13"
         d="m184.61 181.8c-12.11-7.965-11.301 0.886-38.085-15.231"
         fill="none"
         stroke-miterlimit="1.4142"
         stroke-width=".8" /><g
         id="Eyes"
         fill="#ec7979"><path
           id="path15"
           d="m171.46 113.38s-4.05-8.037-11.239-11.168c-2.346-1.023-5.082 0.053-6.104 2.399-1.022 2.347 0.053 5.082 2.4 6.105 7.189 3.131 14.943 2.664 14.943 2.664z" /><path
           id="path17"
           d="m195.34 115.77s5.793-2.319 7.362-3.942c1.143-1.184 1.111-3.073-0.073-4.216-1.183-1.143-3.072-1.111-4.215 0.072-1.569 1.624-3.074 8.086-3.074 8.086z"
           stroke-miterlimit="1.4142"
           stroke-width=".8" /></g><g
         id="Nose"
         stroke-miterlimit="1.4142"
         stroke-width=".8"><path
           id="path20"
           d="m220.51 172.58c-1.94 0.994-3.84 1.21-5.137 1.068-2.287-0.252-7.786-1.401-9.638-3.047-4.463-3.966-5.239-12.896-3.096-17.233 1.525-3.087 17.705-3.006 20.942 0.643"
           fill="none" /><path
           id="path22"
           d="m214.96 173.59c3.575-3.489 5.164-7.654 5.704-12.572"
           fill="none" /><path
           id="path24"
           d="m202.26 154.24c1.038 4.823 2.603 9.042 3.859 10.9 2.161 3.2 5.235 1.325 7.845 1.424 5.474 0.205 5.164-7.056-0.455-5.254-2.591 0.83-4.318 4.352-6.447 2.888-1.397-0.96-3.849-5.53-4.802-9.958z"
           fill="#ec7979" /><path
           id="path26"
           d="m225.64 167.02c-0.229-1.003 0.67-4.512-1.34-4.66-1.621-0.119-2.867 3.796-1.523 5.344 0.493 0.57 0.819 1.211 1.701 2.756"
           fill="#ec7979" /><path
           id="path28"
           d="m207.64 179.21c2.248-1.804 4.249-3.718 5.659-5.892"
           fill="none" /></g><g
         id="Ears"
         fill="#ec7979"
         stroke-miterlimit="1.4142"
         stroke-width=".8"><path
           id="path31"
           d="m201.44 31.355c4.784-6.175 6.225-7.027 6.19-4.013-0.107 9.386-8.758 33.378-12.158 39.921-0.852 1.639-4.384 0.898-5.514-0.563-0.28-0.362-0.678-0.942-1.127-1.67 1.744 0.503 4.119 1.039 5.23 1.51-0.436-0.185-5.269-2.231-5.943-2.719 0.946-0.071 4.718 0.858 5.648 1.099-0.122-0.227-5.553-2.322-6.38-2.46 0.568-0.07 5.588 0.962 6.498 1.188-0.109-0.225-6.414-2.418-7.151-2.537 0.831-0.341 3.239-0.155 8.753 1.788-0.428-0.681-8.494-3.05-9.274-3.002 1.585-0.471 4.563 0.262 6.17 1.066-0.65-1.204-4.804-3.444-7.088-3.948 0.686-0.294 5.771 1.089 6.788 1.574-0.673-0.89-5.742-4.008-6.954-4.333 1.187-0.032 4.717 0.989 9.787 3.856-0.897-2.391-6.2-5.065-8.575-5.824 2.611 0.356 6.195 0.762 8.775 0.549-2.957-1.15-4.98-2-6.503-3.152 2.703-0.518 9.332 0.766 11.171-0.245-7.832-1.861-7.737-3.296-8.356-4.515 2.422 0.942 5.953 1.586 7.302 1.755-2.922-1.676-5.521-3.103-5.983-3.574 0.912 0.486 7.615 2.187 8.562 2.312-1.95-1.109-6.852-2.801-7.49-3.607-0.028-0.036-0.059-0.057-0.076-0.076 0.927 0.101 7.648 1.257 8.669 1.245-1.81-0.692-6.174-1.96-7.763-2.491 0.709 0.02 8.297 0.088 9.517-0.478-3.179-0.292-7.418-0.538-8.493-0.925 1.309-0.429 7.47-1.295 8.656-1.027-0.596-0.512-5.917-0.649-7.287-0.84 1.123-0.859 7.494-1.046 8.255-0.998-1.13-0.619-5.277-0.769-6.892-0.848 1.992-1.481 5.764-1.353 6.827-1.375-0.985-0.535-3.952-0.954-5.124-0.899 1.922-1.215 6.049-1.839 6.606-1.885-1.292-0.024-3.975 0.065-5.273 0.141z" /><path
           id="path33"
           d="m128.83 15.062c-8.472 1.201-15.909 9.306-19.049 15.954-2.558 5.418-3.785 12.307-5.391 15.91-0.795 1.781-3.125 2.82-3.421 4.748-0.545 3.545-1.659 14.809 0.155 16.52 1.814 1.71 9.037-5.264 10.729-6.257 1.947 4.229-3.187 12.828-2.488 12.906 0.7 0.078 7.364-6.47 6.687-12.44 4.354 0.208 5.141 8.54 6.064 9.485 1.84 0.182 4.402-5.194 4.976-8.396 0.119-0.663-3.355-1.554-4.349-8.426 2.907 3.455 5.012 4.735 5.953 4.313 0.417-0.187-4.327-4.957-5.199-7.07-0.709-1.717 3.039 1.227 4.389 1.067-0.479-1.462-4.355-5.248-5.148-6.45 0.593 0.183 5.669 4.175 6.669 5.225-0.386-1.233-4.087-5.197-6.051-6.751 2.545 0.011 8.615 3.14 9.172 3.312-0.571-0.789-7.242-4.511-8.066-5.268 1.514 0.391 7.401 2.706 8.257 3.482-0.605-0.56-4.448-4.196-7.318-5.838 2.202 0.569 6.368 2.982 7.254 4.121-0.282-1.386-3.512-5.961-4.522-7.325 2.1 1.079 3.578 4.14 5.223 4.905 1.409 0.654 5.169 1.103 4.649-0.319s-7.36-7.494-7.77-8.216c1.698 0.656 6.05 3.079 6.815 3.885-0.279-0.634-5.038-5.803-5.86-6.687 3.103 1.495 5.475 3.028 6.943 4.012-0.372-2.668-0.83-21.603-9.303-20.402z" /></g></g><g
       id="p1cWChat3"><path
         id="p1cWChatBox3"
         d="m 346.11,337.77 -269.33,-16.491 -1.885,30.79 269.33,16.49 z"
         inkscape:connector-curvature="0"
         style="fill:#ec7979;opacity:0" /><clipPath
         id="_clip2"><path
           id="path39"
           d="m316.11 387.77-269.33-16.491-1.885 30.79 269.33 16.49z" /></clipPath><g
         id="g80"
         clip-path="url(#_clip2)"><g
           id="g78"
           fill="#fff"
           fill-rule="nonzero"><rect
             id="rect42"
             x="121.22"
             y="397.11"
             width="4.762"
             height="4.574" /><rect
             id="rect44"
             x="126.74"
             y="397.11"
             width="4.762"
             height="4.574" /><path
             id="path46"
             d="m137.44 384.06v3.935h-5.001v-3.935zm0 4.875v11.992c0 1.212-0.107 2.152-0.321 2.82-0.213 0.668-0.688 1.232-1.424 1.692-0.737 0.459-1.779 0.689-3.126 0.689-0.879 0-1.728-0.079-2.548-0.238v-3.647c0.367 0.159 0.735 0.238 1.103 0.238 0.877 0 1.315-0.518 1.315-1.554v-11.992z" /><path
             id="path48"
             d="m150.92 388.94v12.744h-4.625v-2.093c-0.676 1.571-1.996 2.356-3.96 2.356-1.211 0-2.149-0.336-2.813-1.008-0.664-0.673-0.996-1.636-0.996-2.889v-9.11h5v8.02c0 0.501 0.069 0.854 0.207 1.059 0.138 0.204 0.407 0.307 0.808 0.307 0.426 0 0.773-0.153 1.04-0.458s0.401-0.733 0.401-1.284v-7.644z" /><path
             id="path50"
             d="m150.88 398.08 3.948-0.539c0.225 0.919 1.119 1.379 2.682 1.379 1.295 0 1.942-0.251 1.942-0.752 0-0.217-0.125-0.387-0.376-0.508s-0.844-0.244-1.779-0.37c-2.59-0.359-4.207-0.921-4.85-1.685-0.643-0.765-0.965-1.615-0.965-2.55 0-1.304 0.543-2.358 1.629-3.164 1.086-0.807 2.511-1.21 4.273-1.21 3.091 0 5.063 1.116 5.915 3.346l-3.784 0.715c-0.351-0.752-1.091-1.128-2.218-1.128-0.535 0-0.934 0.073-1.197 0.219s-0.395 0.29-0.395 0.432c0 0.418 0.401 0.672 1.203 0.763 2.089 0.231 3.505 0.468 4.249 0.71 0.743 0.243 1.378 0.686 1.904 1.33 0.526 0.643 0.79 1.421 0.79 2.332 0 1.396-0.583 2.504-1.749 3.323-1.165 0.82-2.771 1.229-4.818 1.229-3.45 0-5.585-1.29-6.404-3.872z" /><path
             id="path52"
             d="m172.06 388.94v3.245h-2.544v4.7c0 0.643 0.121 1.025 0.364 1.146 0.242 0.121 0.493 0.182 0.752 0.182 0.401 0 0.877-0.071 1.428-0.213v3.559c-0.986 0.192-1.955 0.288-2.907 0.288-1.537 0-2.667-0.33-3.39-0.99-0.722-0.66-1.084-1.713-1.084-3.158l0.013-1.491v-4.023h-1.905v-3.245h1.905l0.075-4.148 4.749-0.076v4.224z" /><path
             id="path54"
             d="m184.27 388.68v13.008h-4.975v-13.008h-3.546v-4.097h12.067v4.097z" /><path
             id="path56"
             d="m195.16 401.95c-2.406 0-4.367-0.798-5.883-2.393-1.516-1.596-2.275-3.73-2.275-6.404 0-2.556 0.725-4.668 2.175-6.335 1.449-1.666 3.46-2.5 6.034-2.5 2.381 0 4.321 0.786 5.82 2.356 1.5 1.571 2.25 3.668 2.25 6.291 0 2.715-0.756 4.892-2.268 6.529-1.512 1.638-3.463 2.456-5.853 2.456zm-0.025-3.884c0.886 0 1.523-0.387 1.911-1.16 0.389-0.772 0.583-2.186 0.583-4.242 0-2.974-0.798-4.461-2.393-4.461-1.721 0-2.582 1.696-2.582 5.088 0 3.183 0.827 4.775 2.481 4.775z" /><path
             id="path58"
             d="m211.35 401.95c-2.406 0-4.368-0.798-5.884-2.393-1.516-1.596-2.274-3.73-2.274-6.404 0-2.556 0.724-4.668 2.174-6.335 1.449-1.666 3.461-2.5 6.034-2.5 2.381 0 4.321 0.786 5.821 2.356 1.499 1.571 2.249 3.668 2.249 6.291 0 2.715-0.756 4.892-2.268 6.529-1.512 1.638-3.463 2.456-5.852 2.456zm-0.025-3.884c0.885 0 1.522-0.387 1.911-1.16 0.388-0.772 0.582-2.186 0.582-4.242 0-2.974-0.797-4.461-2.393-4.461-1.721 0-2.582 1.696-2.582 5.088 0 3.183 0.828 4.775 2.482 4.775z" /><path
             id="path60"
             d="m232.53 396.55 4.261 0.364c-0.201 1.487-0.825 2.698-1.874 3.634-1.048 0.935-2.441 1.403-4.179 1.403-1.946 0-3.528-0.612-4.743-1.836-1.216-1.223-1.823-2.792-1.823-4.705 0-1.955 0.603-3.565 1.81-4.831 1.208-1.266 2.776-1.899 4.706-1.899 1.713 0 3.108 0.479 4.185 1.435 1.078 0.957 1.696 2.166 1.855 3.628l-4.373 0.364c-0.184-1.345-0.694-2.018-1.529-2.018-0.535 0-0.925 0.244-1.172 0.733-0.246 0.489-0.37 1.339-0.37 2.55 0 1.045 0.124 1.817 0.37 2.319 0.247 0.501 0.675 0.751 1.285 0.751 0.893 0 1.424-0.63 1.591-1.892z" /><path
             id="path62"
             d="m242.96 401.95c-2.114 0-3.793-0.658-5.038-1.973-1.245-1.316-1.867-2.86-1.867-4.631 0-1.905 0.65-3.492 1.949-4.762s2.988-1.905 5.069-1.905c2.097 0 3.782 0.627 5.056 1.88s1.911 2.824 1.911 4.712c0 1.905-0.645 3.494-1.936 4.768s-3.005 1.911-5.144 1.911zm0.075-3.032c0.777 0 1.251-0.403 1.422-1.21 0.172-0.806 0.257-1.648 0.257-2.525 0-1.194-0.121-2.055-0.363-2.581-0.242-0.527-0.677-0.79-1.303-0.79-0.577 0-0.999 0.272-1.266 0.815s-0.401 1.437-0.401 2.682c0 1.462 0.138 2.429 0.413 2.901 0.276 0.472 0.69 0.708 1.241 0.708z" /><rect
             id="rect64"
             x="250.45"
             y="384.58"
             width="4.925"
             height="17.106" /><path
             id="path66"
             d="m262.69 401.95c-2.114 0-3.793-0.658-5.038-1.973-1.245-1.316-1.867-2.86-1.867-4.631 0-1.905 0.649-3.492 1.948-4.762s2.989-1.905 5.069-1.905c2.097 0 3.783 0.627 5.057 1.88s1.911 2.824 1.911 4.712c0 1.905-0.645 3.494-1.936 4.768s-3.006 1.911-5.144 1.911zm0.075-3.032c0.777 0 1.251-0.403 1.422-1.21 0.171-0.806 0.257-1.648 0.257-2.525 0-1.194-0.121-2.055-0.363-2.581-0.243-0.527-0.677-0.79-1.304-0.79-0.576 0-0.998 0.272-1.265 0.815-0.268 0.543-0.401 1.437-0.401 2.682 0 1.462 0.137 2.429 0.413 2.901s0.689 0.708 1.241 0.708z" /><path
             id="path68"
             d="m274.96 401.68h-4.787v-12.744h4.161v2.631c0.476-1.913 1.583-2.87 3.321-2.87 0.175 0 0.417 0.017 0.727 0.051v4.448c-0.351-0.083-0.665-0.125-0.94-0.125-1.654 0-2.482 0.923-2.482 2.769z" /><path
             id="path70"
             d="m284.27 392.18v9.499h-4.712v-9.499h-1.905v-3.245h1.905c0-1.053 0.046-1.832 0.138-2.338 0.092-0.505 0.322-0.99 0.689-1.453 0.368-0.464 0.861-0.819 1.479-1.065 0.618-0.247 1.449-0.37 2.494-0.37 1.119 0 2.193 0.088 3.22 0.263v3.271c-0.793-0.109-1.387-0.163-1.779-0.163-0.393 0-0.752 0.079-1.078 0.238s-0.489 0.547-0.489 1.165v0.452h3.259v3.245z" /><path
             id="path72"
             d="m299.8 388.94v12.744h-4.624v-2.093c-0.677 1.571-1.997 2.356-3.96 2.356-1.211 0-2.149-0.336-2.813-1.008-0.665-0.673-0.997-1.636-0.997-2.889v-9.11h5v8.02c0 0.501 0.069 0.854 0.207 1.059 0.138 0.204 0.407 0.307 0.808 0.307 0.427 0 0.773-0.153 1.041-0.458 0.267-0.305 0.401-0.733 0.401-1.284v-7.644z" /><rect
             id="rect74"
             x="300.89"
             y="384.58"
             width="4.925"
             height="17.106" /><path
             id="path76"
             d="m312.65 384.58-1.429 11.341h-3.17l-1.341-11.341zm-0.589 12.531v4.574h-4.837v-4.574z" /></g></g><g
         id="g90"
         fill="#fff"
         stroke="#fff"
         stroke-linecap="round"
         stroke-linejoin="round"
         stroke-miterlimit="1.4142"
         stroke-width=".8"
         style="opacity:1"><path
           id="p1cWChatIco3"
           d="m 90.216701,332.58019 c -1.8744,0.16537 -3.5608,1.4249 -4.1758,3.3262 -0.819,2.536 0.57438,5.2601 3.1094,6.0801 5.115,1.652 18.532999,0.91406 18.532999,0.91406 0,0 -10.447999,-8.4505 -15.561999,-10.104 -0.634,-0.20475 -1.2795,-0.27193 -1.9043,-0.2168 z m 43.241999,2.5938 c -0.32063,-0.004 -0.64761,0.0249 -0.9746,0.0879 -5.278,1.016 -16.68,8.1289 -16.68,8.1289 0,0 13.229,2.3695 18.506,1.3535 2.617,-0.504 4.3321,-3.0373 3.8281,-5.6543 -0.441,-2.2899 -2.4353,-3.8896 -4.6797,-3.916 z"
           inkscape:connector-curvature="0"
           style="opacity:0" /></g></g><g
       id="p1cWChat1"><path
         id="p1cWChatBox1"
         d="m 316.54,254.3 -271.15,-34.249 -3.866,30.604 271.15,34.249 z"
         inkscape:connector-curvature="0"
         style="fill:#ec7979;opacity:0" /><clipPath
         id="_clip3"><path
           id="path95"
           d="m286.54 304.3l-271.15-34.249-3.866 30.604 271.15 34.249 3.866-30.604z" /></clipPath><g
         id="g132"
         clip-path="url(#_clip3)"><g
           id="g130"
           fill="#fff"
           fill-rule="nonzero"><path
             id="path98"
             d="m94.245 306.2l4.8 0.289c-0.226 2.097-1.001 3.705-2.325 4.824-1.324 1.12-2.951 1.68-4.881 1.68-2.322 0-4.198-0.769-5.626-2.306-1.429-1.538-2.143-3.66-2.143-6.366 0-2.682 0.676-4.846 2.03-6.492 1.353-1.645 3.241-2.468 5.664-2.468 2.264 0 4.004 0.626 5.219 1.879 1.216 1.253 1.903 2.916 2.062 4.988l-4.9 0.263c0-1.144-0.219-1.972-0.658-2.481-0.438-0.51-0.954-0.765-1.548-0.765-1.654 0-2.481 1.663-2.481 4.988 0 1.863 0.215 3.129 0.646 3.797 0.43 0.668 1.033 1.003 1.81 1.003 1.387 0 2.164-0.945 2.331-2.833z" /><path
             id="path100"
             d="m112.09 312.73h-4.762c-0.117-0.543-0.176-1.136-0.176-1.779-0.902 1.362-2.268 2.043-4.098 2.043-1.503 0-2.629-0.385-3.377-1.153-0.748-0.769-1.121-1.65-1.121-2.645 0-1.345 0.612-2.433 1.836-3.264 1.223-0.831 3.393-1.33 6.51-1.498v-0.288c0-0.56-0.128-0.931-0.383-1.115-0.254-0.184-0.628-0.276-1.121-0.276-1.153 0-1.796 0.464-1.93 1.391l-4.561-0.426c0.651-2.665 2.869-3.997 6.654-3.997 1.027 0 1.971 0.102 2.832 0.307 0.86 0.204 1.541 0.524 2.043 0.958 0.501 0.435 0.837 0.894 1.008 1.379 0.172 0.484 0.257 1.416 0.257 2.794v5.088c0 0.969 0.13 1.796 0.389 2.481zm-5.188-5.965c-2.131 0.226-3.196 0.907-3.196 2.043 0 0.769 0.422 1.153 1.266 1.153 0.534 0 0.99-0.159 1.366-0.476 0.376-0.318 0.564-1.02 0.564-2.106v-0.614z" /><path
             id="path102"
             d="m117.54 312.73h-4.787v-12.744h4.161v2.631c0.476-1.913 1.583-2.869 3.321-2.869 0.175 0 0.417 0.016 0.727 0.05v4.448c-0.351-0.083-0.665-0.125-0.94-0.125-1.654 0-2.482 0.923-2.482 2.77v5.839z" /><path
             id="path104"
             d="m129.43 308.15l4.662 0.314c-0.276 1.253-0.98 2.32-2.112 3.201-1.132 0.882-2.663 1.323-4.593 1.323-2.147 0-3.859-0.621-5.138-1.861-1.278-1.241-1.917-2.78-1.917-4.618 0-1.905 0.631-3.513 1.892-4.825 1.262-1.312 2.945-1.967 5.05-1.967 2.039 0 3.687 0.618 4.944 1.854 1.257 1.237 1.886 2.92 1.886 5.05 0 0.176-4e-3 0.418-0.012 0.727h-8.534c0.016 0.802 0.158 1.398 0.426 1.786 0.267 0.389 0.777 0.583 1.529 0.583 1.086 0 1.725-0.522 1.917-1.567zm-0.338-3.308c-9e-3 -0.861-0.182-1.439-0.519-1.736-0.337-0.296-0.755-0.444-1.255-0.444-1.182 0-1.773 0.726-1.773 2.18h3.547z" /><path
             id="path106"
             d="m139.9 303.23v9.499h-4.712v-9.499h-1.905v-3.245h1.905c0-1.053 0.046-1.832 0.138-2.337 0.092-0.506 0.321-0.99 0.689-1.454s0.86-0.819 1.479-1.065c0.618-0.247 1.449-0.37 2.494-0.37 1.119 0 2.193 0.088 3.22 0.263v3.271c-0.794-0.109-1.387-0.163-1.779-0.163-0.393 0-0.752 0.079-1.078 0.238s-0.489 0.547-0.489 1.166v0.451h3.258v3.245h-3.22z" /><path
             id="path108"
             d="m155.43 299.98v12.744h-4.624v-2.092c-0.677 1.57-1.997 2.356-3.96 2.356-1.212 0-2.149-0.337-2.814-1.009-0.664-0.673-0.996-1.636-0.996-2.889v-9.11h5v8.02c0 0.501 0.069 0.854 0.207 1.059s0.407 0.307 0.808 0.307c0.426 0 0.773-0.153 1.04-0.458 0.268-0.304 0.401-0.733 0.401-1.284v-7.644h4.938z" /><rect
             id="rect110"
             x="156.52"
             y="295.62"
             width="4.925"
             height="17.106" /><path
             id="path112"
             d="m167.13 308.18v4.198l-2.745 4.75h-1.967l1.967-4.399h-2.017v-4.549h4.762z" /><path
             id="path114"
             d="m187.62 295.62v17.105h-5.251v-6.654h-4.01v6.654h-5.251v-17.105h5.251v6.291h4.01v-6.291h5.251z" /><path
             id="path116"
             d="m195.1 312.99c-2.114 0-3.793-0.658-5.038-1.974s-1.867-2.859-1.867-4.631c0-1.904 0.649-3.492 1.949-4.762 1.299-1.269 2.988-1.904 5.069-1.904 2.097 0 3.782 0.626 5.056 1.879s1.911 2.824 1.911 4.712c0 1.905-0.645 3.494-1.936 4.768s-3.005 1.912-5.144 1.912zm0.075-3.033c0.777 0 1.251-0.403 1.422-1.209 0.172-0.807 0.257-1.648 0.257-2.526 0-1.194-0.121-2.055-0.363-2.581s-0.677-0.79-1.303-0.79c-0.577 0-0.999 0.272-1.266 0.815s-0.401 1.437-0.401 2.682c0 1.462 0.138 2.429 0.413 2.901 0.276 0.472 0.69 0.708 1.241 0.708z" /><path
             id="path118"
             d="m208.81 312.99c-2.114 0-3.793-0.658-5.038-1.974s-1.867-2.859-1.867-4.631c0-1.904 0.65-3.492 1.949-4.762 1.299-1.269 2.988-1.904 5.069-1.904 2.097 0 3.782 0.626 5.056 1.879s1.911 2.824 1.911 4.712c0 1.905-0.645 3.494-1.936 4.768s-3.005 1.912-5.144 1.912zm0.075-3.033c0.777 0 1.251-0.403 1.422-1.209 0.172-0.807 0.257-1.648 0.257-2.526 0-1.194-0.121-2.055-0.363-2.581s-0.677-0.79-1.303-0.79c-0.577 0-0.999 0.272-1.266 0.815s-0.401 1.437-0.401 2.682c0 1.462 0.138 2.429 0.413 2.901 0.276 0.472 0.69 0.708 1.241 0.708z" /><path
             id="path120"
             d="m235.61 312.73h-4.85v-7.97c0-0.534-0.077-0.908-0.232-1.121-0.154-0.213-0.428-0.32-0.821-0.32-0.935 0-1.403 0.681-1.403 2.043v7.368h-4.8v-7.97c0-1.019-0.392-1.529-1.178-1.529-0.81 0-1.215 0.51-1.215 1.529v7.97h-4.812v-12.744h4.486v1.717c0.802-1.32 1.967-1.98 3.496-1.98 1.646 0 2.841 0.66 3.584 1.98 0.827-1.32 2.097-1.98 3.81-1.98 0.819 0 1.539 0.171 2.162 0.513 0.622 0.343 1.073 0.784 1.353 1.322 0.28 0.539 0.42 1.373 0.42 2.501v8.671z" /><path
             id="path122"
             d="m249.56 312.73h-4.762c-0.117-0.543-0.175-1.136-0.175-1.779-0.903 1.362-2.269 2.043-4.098 2.043-1.504 0-2.63-0.385-3.378-1.153-0.747-0.769-1.121-1.65-1.121-2.645 0-1.345 0.612-2.433 1.836-3.264s3.394-1.33 6.51-1.498v-0.288c0-0.56-0.128-0.931-0.382-1.115-0.255-0.184-0.629-0.276-1.122-0.276-1.153 0-1.796 0.464-1.93 1.391l-4.561-0.426c0.651-2.665 2.869-3.997 6.654-3.997 1.028 0 1.972 0.102 2.832 0.307 0.861 0.204 1.542 0.524 2.043 0.958 0.501 0.435 0.837 0.894 1.009 1.379 0.171 0.484 0.256 1.416 0.256 2.794v5.088c0 0.969 0.13 1.796 0.389 2.481zm-5.188-5.965c-2.13 0.226-3.196 0.907-3.196 2.043 0 0.769 0.422 1.153 1.266 1.153 0.535 0 0.99-0.159 1.366-0.476 0.376-0.318 0.564-1.02 0.564-2.106v-0.614z" /><path
             id="path124"
             d="m262.66 312.73h-5v-8.02c0-0.66-0.102-1.082-0.307-1.266-0.204-0.183-0.461-0.275-0.77-0.275-0.911 0-1.366 0.635-1.366 1.905v7.656h-5v-12.744h4.636v1.804c0.685-1.378 1.909-2.067 3.672-2.067 0.927 0 1.711 0.177 2.35 0.532s1.096 0.815 1.372 1.379 0.413 1.543 0.413 2.938v8.158z" /><path
             id="path126"
             d="m269.5 295.62l-1.429 11.341h-3.17l-1.341-11.341h5.94zm-0.589 12.531v4.574h-4.837v-4.574h4.837z" /><path
             id="path128"
             d="m276.05 295.62l-1.428 11.341h-3.171l-1.341-11.341h5.94zm-0.589 12.531v4.574h-4.837v-4.574h4.837z" /></g></g><g
         id="g142"
         fill="#fff"
         stroke="#fff"
         stroke-linecap="round"
         stroke-linejoin="round"
         stroke-miterlimit="1.4142"
         stroke-width=".8"
         style="opacity:1"><path
           id="p1cWChatIco1"
           d="m 58.071742,232.1905 c -1.8811,0.044 -3.6451,1.1923 -4.3809,3.0508 -0.981,2.478 0.23394,5.2866 2.7109,6.2676 4.998,1.979 18.436,2.1055 18.436,2.1055 0,0 -9.8839,-9.105 -14.881,-11.084 -0.6195,-0.24525 -1.2577,-0.35451 -1.8848,-0.33984 z m 42.497998,5.3711 c -0.16303,0.004 -0.32694,0.0162 -0.49219,0.0371 -5.331998,0.674 -17.167998,7.0371 -17.167998,7.0371 0,0 13.047,3.217 18.378998,2.543 2.644,-0.334 4.5195,-2.7525 4.1855,-5.3965 -0.31312,-2.4788 -2.4588,-4.2802 -4.9043,-4.2207 z"
           inkscape:connector-curvature="0"
           style="opacity:0" /></g></g><g
       id="p1cWChat2"><path
         id="p1cWChatBox2"
         d="m 304.6,263.93 -325.5,37.83 3.561,30.641 325.5,-37.83 z"
         inkscape:connector-curvature="0"
         style="fill:#ec7979;opacity:0" /><clipPath
         id="p1cChatBox2mG"><path
           id="p1cWChatBox2m"
           d="m 304.6,263.93 -325.5,37.83 3.561,30.641 325.5,-37.83 z"
           inkscape:connector-curvature="0" /></clipPath><g
         id="g187"
         clip-path="url(#p1cChatBox2mG)"
         fill="#fff"
         fill-rule="nonzero"><path
           id="path147"
           d="m94.031 348.2 1.12 12.96-4.957 0.428-1.12-12.959-3.533 0.305-0.353-4.082 12.023-1.04 0.353 4.083z" /><path
           id="path149"
           d="m110.93 359.8-4.982 0.43-0.66-7.641c-0.061-0.699-0.179-1.173-0.355-1.422s-0.483-0.354-0.922-0.316c-0.34 0.029-0.627 0.157-0.862 0.382-0.235 0.226-0.364 0.449-0.386 0.669-0.023 0.22-5e-3 0.675 0.055 1.366l0.621 7.179-4.982 0.431-1.473-17.042 4.981-0.431 0.506 5.843c0.797-1.251 1.92-1.939 3.368-2.065 0.733-0.063 1.387 8e-3 1.962 0.214s1.03 0.496 1.364 0.87c0.335 0.373 0.57 0.743 0.706 1.109 0.137 0.365 0.251 1.085 0.344 2.159z" /><path
           id="path151"
           d="m120.03 354.42 4.671-0.089c-0.167 1.272-0.776 2.396-1.828 3.372-1.052 0.975-2.539 1.546-4.462 1.712-2.139 0.185-3.899-0.285-5.279-1.411s-2.149-2.605-2.308-4.436c-0.164-1.897 0.326-3.554 1.47-4.969 1.144-1.416 2.765-2.214 4.862-2.395 2.031-0.176 3.726 0.298 5.085 1.422 1.359 1.123 2.131 2.746 2.314 4.869 0.015 0.174 0.032 0.416 0.05 0.725l-8.502 0.735c0.086 0.797 0.278 1.378 0.578 1.742s0.824 0.514 1.573 0.449c1.082-0.093 1.674-0.669 1.776-1.726zm-0.622-3.267c-0.083-0.856-0.305-1.418-0.666-1.684-0.362-0.267-0.791-0.378-1.289-0.335-1.177 0.102-1.704 0.877-1.579 2.325z" /><path
           id="path153"
           d="m135.8 344.86-3.792 14.189c-0.293 1.073-0.772 1.934-1.437 2.583s-1.743 1.037-3.232 1.166c-0.358 0.031-1.194 0.065-2.507 0.104l-0.306-3.534c0.658 0.044 1.262 0.042 1.811-5e-3 1.432-0.124 2.12-0.502 2.066-1.135-0.018-0.208-0.114-0.489-0.287-0.843l-5.575-11.379 5.329-0.461 2.685 6.594 1.606-6.965z" /><path
           id="path155"
           d="m140.02 353.66 3.887-0.877c0.304 0.896 1.234 1.277 2.79 1.143 1.29-0.112 1.914-0.417 1.871-0.917-0.019-0.216-0.158-0.374-0.419-0.473-0.26-0.099-0.861-0.171-1.804-0.215-2.611-0.135-4.27-0.556-4.977-1.262s-1.1-1.525-1.181-2.457c-0.112-1.299 0.338-2.396 1.351-3.293 1.012-0.897 2.397-1.421 4.153-1.573 3.079-0.266 5.14 0.676 6.181 2.824l-3.709 1.038c-0.414-0.719-1.183-1.03-2.307-0.933-0.533 0.046-0.924 0.154-1.174 0.322-0.249 0.168-0.368 0.323-0.356 0.465 0.036 0.416 0.458 0.635 1.265 0.656 2.101 0.05 3.532 0.164 4.294 0.342 0.761 0.177 1.432 0.564 2.012 1.16 0.579 0.596 0.908 1.348 0.987 2.256 0.12 1.391-0.365 2.545-1.456 3.461-1.09 0.917-2.655 1.463-4.694 1.64-3.438 0.297-5.676-0.805-6.714-3.307z" /><path
           id="path157"
           d="m166.26 355.01-4.744 0.41c-0.163-0.531-0.273-1.116-0.328-1.757-0.782 1.434-2.084 2.23-3.907 2.388-1.498 0.129-2.653-0.157-3.464-0.858-0.811-0.702-1.259-1.548-1.345-2.538-0.116-1.34 0.4-2.477 1.548-3.41 1.148-0.934 3.267-1.618 6.357-2.053l-0.025-0.287c-0.048-0.558-0.207-0.917-0.477-1.078-0.269-0.162-0.65-0.221-1.141-0.178-1.149 0.099-1.749 0.616-1.803 1.552l-4.581-0.032c0.42-2.711 2.515-4.23 6.285-4.556 1.024-0.088 1.973-0.068 2.848 0.062s1.581 0.39 2.118 0.779c0.537 0.39 0.911 0.819 1.124 1.287 0.212 0.468 0.378 1.388 0.496 2.762l0.438 5.069c0.084 0.965 0.284 1.778 0.601 2.438zm-5.682-5.496c-2.103 0.408-3.106 1.178-3.008 2.31 0.066 0.766 0.519 1.113 1.36 1.04 0.533-0.046 0.973-0.243 1.32-0.592s0.474-1.064 0.381-2.146z" /><path
           id="path159"
           d="m177.35 341.26-3.792 14.189c-0.293 1.073-0.772 1.934-1.437 2.583s-1.742 1.037-3.232 1.166c-0.358 0.031-1.194 0.066-2.507 0.104l-0.305-3.534c0.657 0.044 1.261 0.042 1.81-5e-3 1.432-0.124 2.12-0.502 2.066-1.135-0.018-0.208-0.114-0.489-0.287-0.843l-5.575-11.379 5.329-0.461 2.685 6.594 1.606-6.965z" /><path
           id="path161"
           d="m181.59 349.12 0.362 4.183-2.326 4.968-1.96 0.169 1.582-4.551-2.011 0.174-0.391-4.533z" /><path
           id="path163"
           d="m200.16 352.08-4.982 0.431-0.69-7.991c-0.057-0.657-0.195-1.069-0.415-1.234-0.22-0.166-0.484-0.235-0.792-0.209-0.907 0.079-1.306 0.75-1.197 2.016l0.66 7.628-4.982 0.431-1.097-12.698 4.619-0.399 0.156 1.798c0.563-1.433 1.723-2.225 3.48-2.376 0.924-0.08 1.719 0.029 2.387 0.328 0.667 0.299 1.162 0.717 1.485 1.255 0.324 0.538 0.545 1.502 0.665 2.892z" /><path
           id="path165"
           d="m209.25 346.71 4.671-0.09c-0.167 1.273-0.776 2.397-1.828 3.372-1.052 0.976-2.539 1.547-4.462 1.713-2.139 0.185-3.899-0.286-5.279-1.412s-2.15-2.604-2.308-4.435c-0.164-1.898 0.326-3.555 1.47-4.97s2.764-2.214 4.862-2.395c2.031-0.176 3.726 0.298 5.085 1.422s2.13 2.747 2.314 4.869c0.015 0.175 0.032 0.417 0.05 0.725l-8.502 0.735c0.085 0.798 0.278 1.379 0.578 1.743s0.824 0.513 1.573 0.448c1.082-0.093 1.674-0.668 1.776-1.725zm-0.622-3.267c-0.083-0.857-0.305-1.418-0.666-1.685-0.362-0.266-0.791-0.378-1.289-0.335-1.177 0.102-1.704 0.877-1.579 2.325z" /><path
           id="path167"
           d="m227.32 349.74-5.612 0.485-2.681-3.855-2.142 4.271-4.048 0.35 3.877-7.117-4.425-5.627 5.537-0.479 1.515 2.254c0.068 0.103 0.149 0.222 0.245 0.356 0.047 0.063 0.115 0.165 0.203 0.309 0.079-0.15 0.175-0.35 0.288-0.603 0.013-0.043 0.051-0.134 0.115-0.273l1.108-2.343 4.111-0.356-3.221 6.099z" /><path
           id="path169"
           d="m233.68 336.39 0.28 3.234-2.535 0.219 0.405 4.682c0.055 0.64 0.209 1.011 0.461 1.111 0.252 0.099 0.507 0.138 0.765 0.116 0.399-0.035 0.867-0.146 1.405-0.335l0.306 3.545c-0.966 0.277-1.923 0.456-2.872 0.538-1.531 0.132-2.685-0.099-3.462-0.695-0.777-0.595-1.228-1.612-1.352-3.052l-0.116-1.487-0.346-4.008-1.898 0.164-0.28-3.233 1.898-0.165-0.282-4.139 4.725-0.483 0.364 4.207z" /><path
           id="path171"
           d="m245.09 352.24-4.981 0.431-1.444-16.705 4.582-0.396 0.155 1.798c0.522-1.429 1.658-2.219 3.405-2.37 1.515-0.131 2.752 0.356 3.711 1.459 0.959 1.104 1.527 2.671 1.702 4.702 0.176 2.031-0.124 3.684-0.898 4.958-0.775 1.275-1.882 1.974-3.322 2.098-1.415 0.123-2.539-0.325-3.374-1.343zm-0.748-8.652c0.049 0.566 0.216 0.994 0.501 1.284s0.619 0.418 1.002 0.385c0.599-0.052 0.988-0.364 1.164-0.937 0.177-0.573 0.216-1.434 0.117-2.582-0.115-1.324-0.324-2.243-0.628-2.757-0.305-0.515-0.715-0.75-1.231-0.705-0.308 0.027-0.604 0.174-0.886 0.441-0.283 0.268-0.401 0.676-0.354 1.226z" /><path
           id="path173"
           d="m266.02 346.39-4.744 0.41c-0.164-0.531-0.273-1.117-0.328-1.758-0.782 1.435-2.084 2.231-3.907 2.388-1.498 0.13-2.653-0.156-3.464-0.858-0.811-0.701-1.26-1.547-1.345-2.537-0.116-1.341 0.4-2.477 1.548-3.411 1.147-0.934 3.266-1.618 6.357-2.053l-0.025-0.287c-0.048-0.557-0.207-0.917-0.477-1.078s-0.65-0.22-1.141-0.178c-1.149 0.099-1.75 0.617-1.803 1.552l-4.581-0.032c0.419-2.711 2.515-4.23 6.285-4.555 1.024-0.089 1.973-0.068 2.848 0.062 0.875 0.129 1.581 0.389 2.118 0.779 0.536 0.389 0.911 0.818 1.123 1.286 0.213 0.468 0.378 1.389 0.497 2.762l0.438 5.069c0.084 0.966 0.284 1.779 0.601 2.439zm-5.683-5.496c-2.103 0.408-3.105 1.178-3.007 2.31 0.066 0.766 0.519 1.112 1.36 1.04 0.533-0.046 0.973-0.244 1.32-0.592 0.347-0.349 0.474-1.064 0.38-2.147z" /><path
           id="path175"
           d="m278.57 329.61 0.17 3.42-0.238 8e-3c-0.452 0.013-0.773 0.029-0.965 0.045-0.774 0.067-1.227 0.261-1.358 0.583 1.016 0.7 1.572 1.604 1.668 2.711 0.112 1.298-0.317 2.319-1.289 3.061-0.971 0.742-2.339 1.19-4.104 1.342-0.041 4e-3 -0.258 0.014-0.651 0.031-0.368 0.015-0.56 0.024-0.577 0.025-0.807 0.07-1.193 0.313-1.157 0.729 0.032 0.366 0.407 0.531 1.125 0.494l4.097-0.178c1.496-0.062 2.625 0.259 3.386 0.965s1.186 1.57 1.274 2.594c0.105 1.215-0.327 2.253-1.297 3.112-0.969 0.86-2.953 1.419-5.949 1.678-4.619 0.399-7.021-0.462-7.204-2.585-0.1-1.157 0.442-2.017 1.626-2.581-0.839-0.489-1.292-1.116-1.358-1.882-0.108-1.249 0.622-2.259 2.191-3.032-1.408-0.474-2.171-1.397-2.29-2.771-0.109-1.257 0.356-2.282 1.394-3.076 1.039-0.794 2.515-1.274 4.429-1.44 0.874-0.075 1.677-0.056 2.408 0.057 0.119-2.015 1.086-3.101 2.9-3.257 0.417-0.036 1.006-0.054 1.769-0.053zm-6.582 8.833c0.966-0.083 1.404-0.637 1.316-1.661-0.091-1.048-0.632-1.53-1.622-1.444-0.982 0.085-1.427 0.66-1.335 1.725 0.087 1.007 0.634 1.467 1.641 1.38zm-0.65 7.324c-0.183 7e-3 -0.367 0.019-0.55 0.035-0.857 0.074-1.263 0.378-1.217 0.911 0.042 0.492 0.397 0.78 1.062 0.866 0.666 0.085 1.544 0.08 2.634-0.014 1.032-0.089 1.688-0.234 1.969-0.434 0.28-0.2 0.407-0.454 0.381-0.762-0.019-0.216-0.101-0.391-0.247-0.525s-0.47-0.192-0.971-0.174z" /><path
           id="path177"
           d="m287.7 339.93 4.672-0.09c-0.167 1.273-0.776 2.396-1.828 3.372s-2.539 1.547-4.462 1.713c-2.139 0.185-3.899-0.286-5.279-1.412s-2.15-2.604-2.308-4.435c-0.164-1.898 0.326-3.555 1.47-4.97 1.144-1.416 2.764-2.214 4.862-2.395 2.031-0.176 3.726 0.298 5.085 1.422 1.359 1.123 2.13 2.746 2.314 4.869 0.015 0.175 0.032 0.416 0.05 0.725l-8.502 0.735c0.085 0.798 0.278 1.378 0.578 1.742s0.824 0.514 1.573 0.449c1.082-0.093 1.674-0.668 1.775-1.725zm-0.622-3.267c-0.082-0.857-0.304-1.418-0.665-1.685-0.362-0.266-0.791-0.378-1.289-0.335-1.178 0.102-1.704 0.877-1.579 2.325z" /><path
           id="path179"
           d="m301.49 325.62 0.341 3.945-4.981 0.431-0.341-3.945zm0.422 4.882 1.097 12.697-4.981 0.43-1.098-12.697z" /><path
           id="path181"
           d="m302.66 339.6 3.886-0.876c0.304 0.896 1.234 1.276 2.791 1.142 1.29-0.112 1.913-0.417 1.87-0.916-0.019-0.217-0.158-0.375-0.418-0.474s-0.862-0.171-1.805-0.215c-2.611-0.135-4.27-0.556-4.977-1.262s-1.1-1.525-1.181-2.457c-0.112-1.299 0.338-2.396 1.351-3.293 1.012-0.896 2.397-1.421 4.153-1.573 3.08-0.266 5.14 0.676 6.181 2.825l-3.709 1.037c-0.414-0.719-1.183-1.03-2.307-0.932-0.532 0.046-0.924 0.153-1.173 0.321-0.25 0.168-0.369 0.323-0.356 0.465 0.036 0.416 0.457 0.635 1.264 0.656 2.101 0.05 3.533 0.164 4.294 0.342 0.762 0.177 1.432 0.564 2.012 1.16s0.909 1.348 0.987 2.256c0.12 1.391-0.365 2.545-1.455 3.461-1.091 0.917-2.656 1.463-4.695 1.64-3.438 0.297-5.675-0.805-6.713-3.307z" /><path
           id="path183"
           d="m320.28 337.11 0.394 4.557-4.745 0.41-0.393-4.557z" /><path
           id="path185"
           d="m325.78 336.64 0.394 4.557-4.745 0.41-0.394-4.557z" /></g><g
         id="g197"
         fill="#fff"
         stroke="#fff"
         stroke-linecap="round"
         stroke-linejoin="round"
         stroke-miterlimit="1.4142"
         stroke-width=".8"
         style="opacity:1"><path
           id="p1cWChatIco2"
           d="m 38.278901,305.39978 c -0.6268,-0.0208 -1.2669,0.0811 -1.8887,0.32031 -5.017,1.928 -14.99,10.936 -14.99,10.936 0,0 13.439,0.005 18.455,-1.9238 2.488,-0.956 3.7304,-3.7513 2.7734,-6.2383 -0.717,-1.866 -2.4692,-3.0313 -4.3496,-3.0938 z m -42.5510005,4.9473 c -2.4442,-0.0836 -4.6069,1.6969 -4.9453,4.1719 -0.36,2.641 1.4909,5.0775 4.1309,5.4375 5.32500001,0.727 18.4040005,-2.3613 18.4040005,-2.3613 0,0 -11.7720005,-6.48 -17.0980005,-7.207 -0.165,-0.0225 -0.32924,-0.0354 -0.49219,-0.041 z"
           inkscape:connector-curvature="0"
           style="opacity:0" /></g></g></g></svg>