<?xml version="1.0" encoding="UTF-8"?>
<svg clip-rule="evenodd" fill-rule="evenodd" stroke-linecap="round" stroke-linejoin="round" stroke-miterlimit="1.5" version="1.1" viewBox="0 0 990 185" xml:space="preserve" xmlns="http://www.w3.org/2000/svg" xmlns:cc="http://creativecommons.org/ns#" xmlns:dc="http://purl.org/dc/elements/1.1/" xmlns:rdf="http://www.w3.org/1999/02/22-rdf-syntax-ns#" xmlns:serif="http://www.serif.com/"><metadata><rdf:RDF><cc:Work rdf:about=""><dc:format>image/svg+xml</dc:format><dc:type rdf:resource="http://purl.org/dc/dcmitype/StillImage"/><dc:title/></cc:Work></rdf:RDF></metadata><rect id="p1UpNextTile" width="990" height="185" fill="none"/><g serif:id="p1UpNextTile"><rect id="UpNext" width="990" height="185" fill="none"/><rect width="990" height="185" fill="#fff"/><clipPath id="_clip1"><rect width="990" height="185"/></clipPath><g clip-path="url(#_clip1)"><path d="m164.12 0v170.33h825.88v-170.33h-825.88z" fill="#486b78"/><clipPath id="_clip2"><path d="m164.12 0v170.33h825.88v-170.33h-825.88z"/></clipPath><g clip-path="url(#_clip2)"><g id="WEBwork" fill-rule="nonzero"><path d="m838.54 14.667-22.209 83.734h-21.593l-11.714-46.191-11.062 46.191h-22.513l-22.247-83.734h24.185l11.713 48.194 11.426-48.194h20.179l12.431 48.288 11.731-48.288h19.673z" fill="#ec7979"/><path d="m909.7 78.403v19.998h-62.999v-83.734h62.999v19.324h-37.787v12.146h30.549v18.587h-30.549v13.679h37.787z" fill="#ec7979"/><path d="m919.88 98.401v-83.734h42.511c8.834 0 15.275 2.229 19.324 6.687 4.048 4.457 6.073 9.549 6.073 15.274 0 4.172-1.176 7.944-3.528 11.318-2.351 3.374-5.858 5.695-10.52 6.963 10.837 2.617 16.256 9.119 16.256 19.507 0 6.216-1.912 11.768-5.736 16.655-3.823 4.887-11.992 7.33-24.506 7.33h-39.874zm23.679-51.651h11.901c2.985 0 5.091-0.757 6.318-2.27s1.84-3.128 1.84-4.846c0-4.662-2.862-6.993-8.588-6.993h-11.471v14.109zm0 33.003h12.514c3.108 0 5.388-0.767 6.84-2.301 1.452-1.533 2.178-3.261 2.178-5.183s-0.706-3.691-2.117-5.306c-1.411-1.616-3.997-2.423-7.76-2.423h-11.655v15.213z" fill="#ec7979"/><path d="m908.12 71.528-7.128 26.873h-6.93l-3.759-14.824-3.55 14.824h-7.226l-7.14-26.873h7.762l3.759 15.467 3.668-15.467h6.476l3.989 15.497 3.765-15.497h6.314z" fill="#fff"/><path d="m921.7 98.815c-3.78 0-6.861-1.254-9.243-3.761-2.382-2.506-3.573-5.86-3.573-10.06 0-4.016 1.138-7.333 3.415-9.952 2.277-2.618 5.437-3.927 9.48-3.927 3.74 0 6.789 1.233 9.144 3.701 2.356 2.467 3.534 5.762 3.534 9.883 0 4.265-1.188 7.684-3.563 10.257-2.376 2.572-5.44 3.859-9.194 3.859zm-0.039-6.103c1.391 0 2.392-0.607 3.002-1.821 0.61-1.215 0.915-3.436 0.915-6.665 0-4.672-1.253-7.008-3.76-7.008-2.704 0-4.055 2.664-4.055 7.993 0 5 1.299 7.501 3.898 7.501z" fill="#fff"/><path d="m961.87 98.401h-9.145l-3.925-10.277h-2.601v10.277h-8.249v-26.873h14.037c3.097 0 5.503 0.725 7.215 2.176 1.713 1.45 2.569 3.363 2.569 5.738 0 1.549-0.315 2.917-0.944 4.105-0.63 1.188-1.904 2.235-3.82 3.14l4.863 11.714zm-15.671-16.025h3.524c1.037 0 1.87-0.217 2.5-0.65s0.945-1.07 0.945-1.91c0-1.719-1.056-2.579-3.169-2.579h-3.8v5.139z" fill="#fff"/><path d="m990 98.401h-9.026l-4.646-10.155-2.787 3.954v6.201h-7.776v-26.873h7.776v11.112l7.411-11.112h7.414l-6.787 9.835 8.421 17.038z" fill="#fff"/></g></g><path d="m164.12 0v170.33h825.88v-170.33h-825.88z" fill="none" stroke="#fff" stroke-width=".05px"/></g><path d="m41.173 25.751h-8.828c-1.673 0-2.876-0.496-3.609-1.489-0.732-0.993-1.098-2.287-1.098-3.882 0-1.679 0.351-3.029 1.054-4.048 0.703-1.018 1.849-1.528 3.438-1.528h9.043v4.16h-8.565c-0.638 0-1.103 0.135-1.396 0.404-0.293 0.27-0.44 0.7-0.44 1.291 0 0.493 0.106 0.897 0.318 1.212 0.211 0.315 0.451 0.503 0.718 0.565s0.787 0.093 1.562 0.093h7.803v3.222z" fill-rule="nonzero"/><path d="m32.686 32.089h-4.843v-4.15h13.33v5.693c0 1.419-0.163 2.499-0.488 3.238-0.326 0.738-0.824 1.324-1.495 1.757-0.67 0.433-1.422 0.65-2.255 0.65-1.27 0-2.295-0.443-3.077-1.328-0.781-0.886-1.172-2.067-1.172-3.545v-2.315zm2.862-0.058v1.367c0 1.204 0.443 1.806 1.328 1.806 0.833 0 1.25-0.556 1.25-1.669v-1.504h-2.578z" fill-rule="nonzero"/><path d="m27.843 57.197v-3.33l5.889-3.651c0.756-0.469 1.673-0.941 2.753-1.418-0.859 0.215-1.588 0.322-2.187 0.322h-6.455v-3.32h13.33v3.867l-4.883 3.106c-0.97 0.619-1.823 1.087-2.559 1.406 1.14-0.208 2.305-0.312 3.497-0.312h3.945v3.33h-13.33z" fill-rule="nonzero"/><path d="m31.026 69.55h-3.183v-10.029h13.33v10.029h-3.076v-6.015h-1.934v4.863h-2.959v-4.863h-2.178v6.015z" fill-rule="nonzero"/><path d="m41.173 82.58-6.183-3.875-7.147 4.49v-4.761l4.198-2.462-4.198-2.484v-3.745l6.883 4.294 6.447-4.118v4.772l-3.588 2.069 3.588 2.146v3.674z" fill-rule="nonzero"/><path d="m37.979 89.56h-10.136v-3.877h10.136v-2.764h3.194v9.405h-3.194v-2.764z" fill-rule="nonzero"/><path d="m31.407 96.406h-3.564v-3.711h3.564v3.711z" fill-rule="nonzero"/><path d="m31.407 101.9h-3.564v-3.711h3.564v3.711z" fill-rule="nonzero"/></g></svg>
