<?xml version="1.0" encoding="UTF-8"?>
<svg clip-rule="evenodd" fill-rule="evenodd" stroke-linejoin="round" stroke-miterlimit="1.4142" version="1.1" viewBox="0 0 990 185" xml:space="preserve" xmlns="http://www.w3.org/2000/svg" xmlns:cc="http://creativecommons.org/ns#" xmlns:dc="http://purl.org/dc/elements/1.1/" xmlns:rdf="http://www.w3.org/1999/02/22-rdf-syntax-ns#" xmlns:serif="http://www.serif.com/"><metadata><rdf:RDF><cc:Work rdf:about=""><dc:format>image/svg+xml</dc:format><dc:type rdf:resource="http://purl.org/dc/dcmitype/StillImage"/><dc:title/></cc:Work></rdf:RDF></metadata><rect id="p2UpNextTile" width="990" height="185" fill="none"/><g serif:id="p2UpNextTile"><rect id="UpNext" width="990" height="185" fill="none"/><clipPath id="_clip1"><rect width="990" height="185"/></clipPath><g clip-path="url(#_clip1)"><g fill="#fff"><rect width="990" height="185"/><rect width="990" height="185"/></g><path d="m164.12 0v170.33h825.88v-170.33h-825.88z" fill="#784869"/><g id="WEBwork" fill-rule="nonzero"><path d="m823.02 79.139v20.55h-58.706v-83.733h25.703v63.183h33.003z" fill="#ec7979"/><path d="m867.07 100.98c-11.778 0-21.379-3.906-28.801-11.717-7.423-7.811-11.134-18.26-11.134-31.346 0-12.515 3.548-22.851 10.643-31.01 7.096-8.158 16.941-12.238 29.537-12.238 11.655 0 21.153 3.845 28.494 11.533s11.011 17.953 11.011 30.794c0 13.291-3.701 23.945-11.103 31.96-7.402 8.016-16.951 12.024-28.647 12.024zm-0.123-19.017c4.335 0 7.453-1.891 9.355-5.674s2.852-10.705 2.852-20.765c0-14.559-3.905-21.838-11.716-21.838-8.425 0-12.637 8.302-12.637 24.905 0 15.582 4.049 23.372 12.146 23.372z" fill="#ec7979"/><path d="m990 52.762v46.927h-12.575c-1.023-3.476-2.147-6.4-3.374-8.772-5.194 6.707-12.882 10.061-23.065 10.061-10.797 0-19.671-3.773-26.624-11.318-6.952-7.545-10.428-17.759-10.428-30.641 0-12.514 3.364-23.035 10.091-31.562 6.727-8.526 16.737-12.79 30.028-12.79 9.978 0 18.014 2.536 24.108 7.607 6.093 5.071 10.04 12.269 11.839 21.593l-24.905 2.454c-1.227-8.711-5.051-13.067-11.472-13.067-8.424 0-12.636 8.016-12.636 24.047 0 9.692 1.349 16.082 4.048 19.17s5.971 4.631 9.815 4.631c3.108 0 5.756-0.94 7.944-2.821 2.188-1.882 3.302-4.458 3.343-7.73h-13.863v-17.789h37.726z" fill="#ec7979"/><path d="m874.48 74.105v26.873h-7.658v-19.215l-4.971 19.215h-5.237l-5.168-19.215v19.215h-6.182v-26.873h10.779l3.898 14.273 3.721-14.273h10.818z" fill="#fff"/><path d="m901.47 74.105-8.411 15.493v11.38h-8.013v-11.38l-9.041-15.493h9.026l4.711 8.858 4.515-8.858h7.213z" fill="#fff"/><path d="m931.92 94.382v6.596h-18.841v-26.873h8.249v20.277h10.592z" fill="#fff"/><rect x="934.8" y="74.105" width="8.249" height="26.873" fill="#fff"/><path d="m964.52 90.917h-8.761v10.061h-8.033v-26.873h19.432v6.398h-11.399v4.37h8.761v6.044z" fill="#fff"/><path d="m990 94.56v6.418h-20.219v-26.873h20.219v6.201h-12.127v3.898h9.804v5.965h-9.804v4.391h12.127z" fill="#fff"/></g><path d="m41.173 25.751h-8.828c-1.673 0-2.876-0.496-3.609-1.489-0.732-0.993-1.098-2.287-1.098-3.882 0-1.679 0.351-3.029 1.054-4.048 0.703-1.018 1.849-1.528 3.438-1.528h9.043v4.16h-8.565c-0.638 0-1.103 0.135-1.396 0.404-0.293 0.27-0.44 0.7-0.44 1.291 0 0.493 0.106 0.897 0.318 1.212 0.211 0.315 0.451 0.503 0.718 0.565s0.787 0.093 1.562 0.093h7.803v3.222z" fill-rule="nonzero"/><path d="m32.686 32.089h-4.843v-4.15h13.33v5.693c0 1.419-0.163 2.499-0.488 3.238-0.326 0.738-0.824 1.324-1.495 1.757-0.67 0.433-1.422 0.65-2.255 0.65-1.27 0-2.295-0.443-3.077-1.328-0.781-0.886-1.172-2.067-1.172-3.545v-2.315zm2.862-0.058v1.367c0 1.204 0.443 1.806 1.328 1.806 0.833 0 1.25-0.556 1.25-1.669v-1.504h-2.578z" fill-rule="nonzero"/><path d="m27.843 57.197v-3.33l5.889-3.651c0.756-0.469 1.673-0.941 2.753-1.418-0.859 0.215-1.588 0.322-2.187 0.322h-6.455v-3.32h13.33v3.867l-4.883 3.106c-0.97 0.619-1.823 1.087-2.559 1.406 1.14-0.208 2.305-0.312 3.497-0.312h3.945v3.33h-13.33z" fill-rule="nonzero"/><path d="m31.026 69.55h-3.183v-10.029h13.33v10.029h-3.076v-6.015h-1.934v4.863h-2.959v-4.863h-2.178v6.015z" fill-rule="nonzero"/><path d="m41.173 82.58-6.183-3.875-7.147 4.49v-4.761l4.198-2.462-4.198-2.484v-3.745l6.883 4.294 6.447-4.118v4.772l-3.588 2.069 3.588 2.146v3.674z" fill-rule="nonzero"/><path d="m37.979 89.56h-10.136v-3.877h10.136v-2.764h3.194v9.405h-3.194v-2.764z" fill-rule="nonzero"/><path d="m31.407 96.406h-3.564v-3.711h3.564v3.711z" fill-rule="nonzero"/><path d="m31.407 101.9h-3.564v-3.711h3.564v3.711z" fill-rule="nonzero"/></g></g></svg>
